<?xml version="1.0" encoding="UTF-8" standalone="no"?>
<!DOCTYPE svg PUBLIC "-//W3C//DTD SVG 1.1//EN" "http://www.w3.org/Graphics/SVG/1.1/DTD/svg11.dtd">
<svg xmlns="http://www.w3.org/2000/svg" version="1.1" viewBox="0.00 0.00 180.00 180.00">
<g stroke-width="2.00" fill="none" stroke-linecap="butt">
<path stroke="#82696d" vector-effect="non-scaling-stroke" d="
  M 126.50 149.48
  L 152.47 149.49
  Q 153.00 149.49 153.00 148.96
  L 153.00 56.21
  A 0.46 0.46 0.0 0 0 152.54 55.75
  L 126.51 55.76"
/>
<path stroke="#82696d" vector-effect="non-scaling-stroke" d="
  M 126.51 55.76
  L 126.51 29.44
  A 0.39 0.39 0.0 0 0 126.12 29.04
  L 99.98 29.03"
/>
<path stroke="#82a5ed" vector-effect="non-scaling-stroke" d="
  M 99.98 29.03
  L 37.66 29.05
  A 0.65 0.65 0.0 0 0 37.01 29.70
  L 37.00 55.50
  A 0.25 0.25 0.0 0 0 37.25 55.75
  L 99.50 55.75
  A 0.50 0.50 0.0 0 1 100.00 56.25
  L 100.00 69.80
  Q 100.00 70.43 99.38 70.49
  Q 90.43 71.35 81.65 72.26
  C 66.73 73.81 57.60 74.48 46.70 78.57
  C 33.23 83.62 27.85 93.36 27.10 107.19
  Q 26.55 117.47 27.22 123.73
  C 30.19 151.68 60.62 155.92 81.62 146.32
  Q 90.33 142.33 99.50 137.28
  A 0.33 0.33 0.0 0 1 99.99 137.57
  L 100.00 148.82
  Q 100.00 149.45 100.63 149.45
  L 126.50 149.48"
/>
<path stroke="#ffc480" vector-effect="non-scaling-stroke" d="
  M 99.98 29.03
  L 99.99 55.09
  Q 99.99 55.75 100.65 55.75
  L 126.51 55.76"
/>
<path stroke="#ffc480" vector-effect="non-scaling-stroke" d="
  M 126.51 55.76
  L 126.50 149.48"
/>
<path stroke="#82a5ed" vector-effect="non-scaling-stroke" d="
  M 79.32 121.57
  Q 89.20 116.44 99.21 111.26
  A 1.46 1.46 0.0 0 0 100.00 109.96
  L 100.00 94.52
  Q 100.00 93.90 99.38 93.96
  Q 85.56 95.48 72.62 96.94
  Q 65.65 97.73 60.42 99.64
  Q 53.45 102.17 53.50 109.76
  C 53.52 113.07 53.09 116.79 54.23 119.93
  C 57.58 129.18 72.85 124.93 79.32 121.57"
/>
</g>
<path fill="#054ada" d="
  M 0.00 0.00
  L 180.00 0.00
  L 180.00 180.00
  L 0.00 180.00
  L 0.00 0.00
  Z
  M 126.50 149.48
  L 152.47 149.49
  Q 153.00 149.49 153.00 148.96
  L 153.00 56.21
  A 0.46 0.46 0.0 0 0 152.54 55.75
  L 126.51 55.76
  L 126.51 29.44
  A 0.39 0.39 0.0 0 0 126.12 29.04
  L 99.98 29.03
  L 37.66 29.05
  A 0.65 0.65 0.0 0 0 37.01 29.70
  L 37.00 55.50
  A 0.25 0.25 0.0 0 0 37.25 55.75
  L 99.50 55.75
  A 0.50 0.50 0.0 0 1 100.00 56.25
  L 100.00 69.80
  Q 100.00 70.43 99.38 70.49
  Q 90.43 71.35 81.65 72.26
  C 66.73 73.81 57.60 74.48 46.70 78.57
  C 33.23 83.62 27.85 93.36 27.10 107.19
  Q 26.55 117.47 27.22 123.73
  C 30.19 151.68 60.62 155.92 81.62 146.32
  Q 90.33 142.33 99.50 137.28
  A 0.33 0.33 0.0 0 1 99.99 137.57
  L 100.00 148.82
  Q 100.00 149.45 100.63 149.45
  L 126.50 149.48
  Z"
/>
<path fill="#ffffff" d="
  M 99.98 29.03
  L 99.99 55.09
  Q 99.99 55.75 100.65 55.75
  L 126.51 55.76
  L 126.50 149.48
  L 100.63 149.45
  Q 100.00 149.45 100.00 148.82
  L 99.99 137.57
  A 0.33 0.33 0.0 0 0 99.50 137.28
  Q 90.33 142.33 81.62 146.32
  C 60.62 155.92 30.19 151.68 27.22 123.73
  Q 26.55 117.47 27.10 107.19
  C 27.85 93.36 33.23 83.62 46.70 78.57
  C 57.60 74.48 66.73 73.81 81.65 72.26
  Q 90.43 71.35 99.38 70.49
  Q 100.00 70.43 100.00 69.80
  L 100.00 56.25
  A 0.50 0.50 0.0 0 0 99.50 55.75
  L 37.25 55.75
  A 0.25 0.25 0.0 0 1 37.00 55.50
  L 37.01 29.70
  A 0.65 0.65 0.0 0 1 37.66 29.05
  L 99.98 29.03
  Z
  M 79.32 121.57
  Q 89.20 116.44 99.21 111.26
  A 1.46 1.46 0.0 0 0 100.00 109.96
  L 100.00 94.52
  Q 100.00 93.90 99.38 93.96
  Q 85.56 95.48 72.62 96.94
  Q 65.65 97.73 60.42 99.64
  Q 53.45 102.17 53.50 109.76
  C 53.52 113.07 53.09 116.79 54.23 119.93
  C 57.58 129.18 72.85 124.93 79.32 121.57
  Z"
/>
<path fill="#ff8800" d="
  M 99.98 29.03
  L 126.12 29.04
  A 0.39 0.39 0.0 0 1 126.51 29.44
  L 126.51 55.76
  L 100.65 55.75
  Q 99.99 55.75 99.99 55.09
  L 99.98 29.03
  Z"
/>
<path fill="#ff8800" d="
  M 126.51 55.76
  L 152.54 55.75
  A 0.46 0.46 0.0 0 1 153.00 56.21
  L 153.00 148.96
  Q 153.00 149.49 152.47 149.49
  L 126.50 149.48
  L 126.51 55.76
  Z"
/>
<path fill="#054ada" d="
  M 79.32 121.57
  C 72.85 124.93 57.58 129.18 54.23 119.93
  C 53.09 116.79 53.52 113.07 53.50 109.76
  Q 53.45 102.17 60.42 99.64
  Q 65.65 97.73 72.62 96.94
  Q 85.56 95.48 99.38 93.96
  Q 100.00 93.90 100.00 94.52
  L 100.00 109.96
  A 1.46 1.46 0.0 0 1 99.21 111.26
  Q 89.20 116.44 79.32 121.57
  Z"
/>
</svg>
