<?xml version="1.0" encoding="UTF-8"?>
<!DOCTYPE svg PUBLIC "-//W3C//DTD SVG 1.1//EN" "http://www.w3.org/Graphics/SVG/1.1/DTD/svg11.dtd">
<svg xmlns="http://www.w3.org/2000/svg" version="1.1" width="120px" height="120px" style="shape-rendering:geometricPrecision; text-rendering:geometricPrecision; image-rendering:optimizeQuality; fill-rule:evenodd; clip-rule:evenodd" xmlns:xlink="http://www.w3.org/1999/xlink">
<g><path style="opacity:1" fill="#536cfd" d="M -0.5,-0.5 C 14.5,-0.5 29.5,-0.5 44.5,-0.5C 29.8333,14.8333 14.8333,29.8333 -0.5,44.5C -0.5,29.5 -0.5,14.5 -0.5,-0.5 Z"/></g>
<g><path style="opacity:1" fill="#5666fb" d="M 44.5,-0.5 C 53.1667,-0.5 61.8333,-0.5 70.5,-0.5C 58.5586,13.2754 45.7253,26.2754 32,38.5C 31.6667,38.1667 31.3333,37.8333 31,37.5C 25.6087,39.1113 20.1087,40.1113 14.5,40.5C 13.5318,42.6074 13.1984,44.9407 13.5,47.5C 14.7553,49.5188 15.0886,51.5188 14.5,53.5C 15.0253,54.1924 15.6919,54.6924 16.5,55C 10.9647,60.7029 5.29805,66.2029 -0.5,71.5C -0.5,62.5 -0.5,53.5 -0.5,44.5C 14.8333,29.8333 29.8333,14.8333 44.5,-0.5 Z"/></g>
<g><path style="opacity:1" fill="#5b5cf5" d="M 70.5,-0.5 C 83.1667,-0.5 95.8333,-0.5 108.5,-0.5C 95.0352,13.4652 81.3686,27.2985 67.5,41C 67.6191,42.1448 67.9524,43.3115 68.5,44.5C 61.662,40.9899 54.3287,39.6565 46.5,40.5C 46.5,52.1667 46.5,63.8333 46.5,75.5C 46.1667,75.5 45.8333,75.5 45.5,75.5C 45.6665,63.8286 45.4999,52.1619 45,40.5C 44.5003,48.1594 44.3336,55.8261 44.5,63.5C 43.7784,63.0825 43.2784,62.4158 43,61.5C 42.6667,63.1667 42.3333,64.8333 42,66.5C 41.3615,63.4642 41.5282,60.4642 42.5,57.5C 42.0162,52.7604 39.6829,51.4271 35.5,53.5C 35.8774,60.2569 35.3774,66.9236 34,73.5C 33.5003,65.1733 33.3336,56.84 33.5,48.5C 36.7131,48.81 39.7131,48.4767 42.5,47.5C 42.5,45.1667 42.5,42.8333 42.5,40.5C 33.1667,40.5 23.8333,40.5 14.5,40.5C 20.1087,40.1113 25.6087,39.1113 31,37.5C 31.3333,37.8333 31.6667,38.1667 32,38.5C 45.7253,26.2754 58.5586,13.2754 70.5,-0.5 Z"/></g>
<g><path style="opacity:1" fill="#5f52f1" d="M 108.5,-0.5 C 112.167,-0.5 115.833,-0.5 119.5,-0.5C 119.5,10.8333 119.5,22.1667 119.5,33.5C 115.854,36.4789 112.521,39.8123 109.5,43.5C 105.551,49.7401 101.884,56.0734 98.5,62.5C 96.8338,60.8132 95.5005,58.8132 94.5,56.5C 97.9224,51.3224 101.589,46.3224 105.5,41.5C 102.5,40.1667 99.5,40.1667 96.5,41.5C 92.7536,45.9065 89.4203,50.5731 86.5,55.5C 85.5128,50.6946 85.1795,45.6946 85.5,40.5C 82.6146,40.1936 79.9479,40.5269 77.5,41.5C 75.8714,43.8577 74.7048,46.5243 74,49.5C 73.2303,48.4019 72.397,48.4019 71.5,49.5C 70.2485,47.9991 69.2485,46.3325 68.5,44.5C 67.9524,43.3115 67.6191,42.1448 67.5,41C 81.3686,27.2985 95.0352,13.4652 108.5,-0.5 Z"/></g>
<g><path style="opacity:1" fill="#9ea1ea" d="M 14.5,40.5 C 23.8333,40.5 33.1667,40.5 42.5,40.5C 42.5,42.8333 42.5,45.1667 42.5,47.5C 38.8333,47.5 35.1667,47.5 31.5,47.5C 34.6248,46.5206 37.9581,46.1872 41.5,46.5C 41.5,44.8333 41.5,43.1667 41.5,41.5C 32.5,41.5 23.5,41.5 14.5,41.5C 14.5,43.1667 14.5,44.8333 14.5,46.5C 17.8333,46.5 21.1667,46.5 24.5,46.5C 24.5,56.1667 24.5,65.8333 24.5,75.5C 23.5064,66.3483 23.1731,57.015 23.5,47.5C 20.1667,47.5 16.8333,47.5 13.5,47.5C 13.1984,44.9407 13.5318,42.6074 14.5,40.5 Z"/></g>
<g><path style="opacity:1" fill="#fbfbfe" d="M 31.5,47.5 C 31.5,47.8333 31.5,48.1667 31.5,48.5C 31.5,57.5 31.5,66.5 31.5,75.5C 29.1667,75.5 26.8333,75.5 24.5,75.5C 24.5,65.8333 24.5,56.1667 24.5,46.5C 21.1667,46.5 17.8333,46.5 14.5,46.5C 14.5,44.8333 14.5,43.1667 14.5,41.5C 23.5,41.5 32.5,41.5 41.5,41.5C 41.5,43.1667 41.5,44.8333 41.5,46.5C 37.9581,46.1872 34.6248,46.5206 31.5,47.5 Z"/></g>
<g><path style="opacity:1" fill="#f7f7fd" d="M 68.5,44.5 C 69.2485,46.3325 70.2485,47.9991 71.5,49.5C 75.5395,69.7969 67.2061,78.4636 46.5,75.5C 46.5,63.8333 46.5,52.1667 46.5,40.5C 54.3287,39.6565 61.662,40.9899 68.5,44.5 Z"/></g>
<g><path style="opacity:1" fill="#f7f5fc" d="M 98.5,62.5 C 100.833,66.5 103.167,70.5 105.5,74.5C 103.052,75.4731 100.385,75.8064 97.5,75.5C 94.8894,71.0493 92.0561,66.7159 89,62.5C 88,63.5 87,64.5 86,65.5C 85.5017,68.8168 85.335,72.1501 85.5,75.5C 83.1667,75.5 80.8333,75.5 78.5,75.5C 78.5,64.1667 78.5,52.8333 78.5,41.5C 80.5,41.5 82.5,41.5 84.5,41.5C 84.1725,46.544 84.5059,51.544 85.5,56.5C 86.1067,56.3764 86.44,56.0431 86.5,55.5C 89.4203,50.5731 92.7536,45.9065 96.5,41.5C 99.5,40.1667 102.5,40.1667 105.5,41.5C 101.589,46.3224 97.9224,51.3224 94.5,56.5C 95.5005,58.8132 96.8338,60.8132 98.5,62.5 Z"/></g>
<g><path style="opacity:1" fill="#a9a3e9" d="M 86.5,55.5 C 86.44,56.0431 86.1067,56.3764 85.5,56.5C 84.5059,51.544 84.1725,46.544 84.5,41.5C 82.5,41.5 80.5,41.5 78.5,41.5C 78.5,52.8333 78.5,64.1667 78.5,75.5C 77.5052,64.3456 77.1719,53.0123 77.5,41.5C 79.9479,40.5269 82.6146,40.1936 85.5,40.5C 85.1795,45.6946 85.5128,50.6946 86.5,55.5 Z"/></g>
<g><path style="opacity:1" fill="#595ef4" d="M 13.5,47.5 C 16.8333,47.5 20.1667,47.5 23.5,47.5C 23.1731,57.015 23.5064,66.3483 24.5,75.5C 26.8333,75.5 29.1667,75.5 31.5,75.5C 31.5,66.5 31.5,57.5 31.5,48.5C 32.4936,57.6517 32.8269,66.985 32.5,76.5C 29.8127,76.3359 27.146,76.5026 24.5,77C 32.5,78 32.5,79 24.5,80C 27.284,82.0805 26.9507,82.7472 23.5,82C 22.1068,80.8289 21.2735,79.3289 21,77.5C 20.6667,74.1667 20.3333,70.8333 20,67.5C 19.6667,68.8333 19.3333,70.1667 19,71.5C 12.6315,78.036 6.13149,84.3694 -0.5,90.5C -0.5,84.1667 -0.5,77.8333 -0.5,71.5C 5.29805,66.2029 10.9647,60.7029 16.5,55C 15.6919,54.6924 15.0253,54.1924 14.5,53.5C 15.0886,51.5188 14.7553,49.5188 13.5,47.5 Z"/></g>
<g><path style="opacity:1" fill="#847ee1" d="M 59.5,47.5 C 57.8333,47.5 56.1667,47.5 54.5,47.5C 54.5,54.8333 54.5,62.1667 54.5,69.5C 55.8333,69.5 57.1667,69.5 58.5,69.5C 57.0813,70.4511 55.4147,70.7845 53.5,70.5C 53.5,62.5 53.5,54.5 53.5,46.5C 55.7354,46.2053 57.7354,46.5386 59.5,47.5 Z"/></g>
<g><path style="opacity:1" fill="#5d53ea" d="M 59.5,47.5 C 64.6051,49.1274 66.6051,52.6274 65.5,58C 65.961,61.8396 64.961,65.173 62.5,68C 61.255,68.7914 59.9217,69.2914 58.5,69.5C 57.1667,69.5 55.8333,69.5 54.5,69.5C 54.5,62.1667 54.5,54.8333 54.5,47.5C 56.1667,47.5 57.8333,47.5 59.5,47.5 Z"/></g>
<g><path style="opacity:1" fill="#6841e9" d="M 119.5,33.5 C 119.5,62.1667 119.5,90.8333 119.5,119.5C 99.5,119.5 79.5,119.5 59.5,119.5C 71.6314,106.868 83.9647,94.3682 96.5,82C 94.682,80.261 93.682,78.0943 93.5,75.5C 94.9616,76.4577 96.2949,77.6244 97.5,79C 99.9018,79.8141 102.235,79.6474 104.5,78.5C 102.369,77.8313 100.369,77.1646 98.5,76.5C 101.247,76.8134 103.914,76.48 106.5,75.5C 106.376,74.8933 106.043,74.56 105.5,74.5C 103.167,70.5 100.833,66.5 98.5,62.5C 101.884,56.0734 105.551,49.7401 109.5,43.5C 112.521,39.8123 115.854,36.4789 119.5,33.5 Z"/></g>
<g><path style="opacity:1" fill="#5d56f3" d="M 31.5,48.5 C 31.5,48.1667 31.5,47.8333 31.5,47.5C 35.1667,47.5 38.8333,47.5 42.5,47.5C 39.7131,48.4767 36.7131,48.81 33.5,48.5C 33.3336,56.84 33.5003,65.1733 34,73.5C 35.3774,66.9236 35.8774,60.2569 35.5,53.5C 39.6829,51.4271 42.0162,52.7604 42.5,57.5C 41.5282,60.4642 41.3615,63.4642 42,66.5C 42.3333,64.8333 42.6667,63.1667 43,61.5C 43.2784,62.4158 43.7784,63.0825 44.5,63.5C 44.334,68.8437 44.5006,74.1771 45,79.5C 47.3253,80.4967 48.3253,82.1634 48,84.5C 36.298,96.0349 24.798,107.702 13.5,119.5C 8.83333,119.5 4.16667,119.5 -0.5,119.5C -0.5,109.833 -0.5,100.167 -0.5,90.5C 6.13149,84.3694 12.6315,78.036 19,71.5C 19.3333,70.1667 19.6667,68.8333 20,67.5C 20.3333,70.8333 20.6667,74.1667 21,77.5C 21.2735,79.3289 22.1068,80.8289 23.5,82C 26.9507,82.7472 27.284,82.0805 24.5,80C 32.5,79 32.5,78 24.5,77C 27.146,76.5026 29.8127,76.3359 32.5,76.5C 32.8269,66.985 32.4936,57.6517 31.5,48.5 Z"/></g>
<g><path style="opacity:1" fill="#6547ec" d="M 93.5,75.5 C 93.682,78.0943 94.682,80.261 96.5,82C 83.9647,94.3682 71.6314,106.868 59.5,119.5C 50.5,119.5 41.5,119.5 32.5,119.5C 47.6098,105.057 62.2765,90.3902 76.5,75.5C 76.5638,79.0624 78.3972,80.7291 82,80.5C 83.1667,80.3333 84.3333,80.1667 85.5,80C 87.4357,77.9632 89.1024,75.7966 90.5,73.5C 91.5178,74.1925 92.5178,74.8592 93.5,75.5 Z"/></g>
<g><path style="opacity:1" fill="#614eee" d="M 45.5,75.5 C 45.33,76.8221 45.6634,77.9887 46.5,79C 53.774,79.7162 60.774,78.7162 67.5,76C 69.7588,72.437 72.4255,69.2704 75.5,66.5C 76.4841,69.4281 76.8174,72.4281 76.5,75.5C 62.2765,90.3902 47.6098,105.057 32.5,119.5C 26.1667,119.5 19.8333,119.5 13.5,119.5C 24.798,107.702 36.298,96.0349 48,84.5C 48.3253,82.1634 47.3253,80.4967 45,79.5C 44.5006,74.1771 44.334,68.8437 44.5,63.5C 44.3336,55.8261 44.5003,48.1594 45,40.5C 45.4999,52.1619 45.6665,63.8286 45.5,75.5 Z"/></g>
<g><path style="opacity:1" fill="#5f4adc" d="M 77.5,41.5 C 77.1719,53.0123 77.5052,64.3456 78.5,75.5C 80.8333,75.5 83.1667,75.5 85.5,75.5C 85.335,72.1501 85.5017,68.8168 86,65.5C 87,64.5 88,63.5 89,62.5C 92.0561,66.7159 94.8894,71.0493 97.5,75.5C 97.5,76.1667 97.8333,76.5 98.5,76.5C 100.369,77.1646 102.369,77.8313 104.5,78.5C 102.235,79.6474 99.9018,79.8141 97.5,79C 96.2949,77.6244 94.9616,76.4577 93.5,75.5C 92.5178,74.8592 91.5178,74.1925 90.5,73.5C 89.1024,75.7966 87.4357,77.9632 85.5,80C 84.3333,80.1667 83.1667,80.3333 82,80.5C 78.3972,80.7291 76.5638,79.0624 76.5,75.5C 76.8174,72.4281 76.4841,69.4281 75.5,66.5C 72.4255,69.2704 69.7588,72.437 67.5,76C 60.774,78.7162 53.774,79.7162 46.5,79C 45.6634,77.9887 45.33,76.8221 45.5,75.5C 45.8333,75.5 46.1667,75.5 46.5,75.5C 67.2061,78.4636 75.5395,69.7969 71.5,49.5C 72.397,48.4019 73.2303,48.4019 74,49.5C 74.7048,46.5243 75.8714,43.8577 77.5,41.5 Z"/></g>
<g><path style="opacity:1" fill="#8b79cd" d="M 105.5,74.5 C 106.043,74.56 106.376,74.8933 106.5,75.5C 103.914,76.48 101.247,76.8134 98.5,76.5C 97.8333,76.5 97.5,76.1667 97.5,75.5C 100.385,75.8064 103.052,75.4731 105.5,74.5 Z"/></g>
</svg>
