<?xml version="1.0" encoding="UTF-8" standalone="no"?>
<!DOCTYPE svg PUBLIC "-//W3C//DTD SVG 1.1//EN" "http://www.w3.org/Graphics/SVG/1.1/DTD/svg11.dtd">
<svg xmlns="http://www.w3.org/2000/svg" version="1.1" viewBox="0.00 0.00 180.00 180.00">
<g stroke-width="2.00" fill="none" stroke-linecap="butt">
<path stroke="#80deb2" vector-effect="non-scaling-stroke" d="
  M 60.20 55.55
  C 67.87 48.93 77.42 44.99 87.55 44.31
  Q 88.26 44.26 88.26 43.55
  L 88.29 26.52
  A 0.57 0.57 0.0 0 0 87.69 25.95
  Q 64.26 27.39 47.04 42.85
  A 0.46 0.46 0.0 0 0 47.02 43.52
  L 58.99 55.51
  A 0.89 0.88 -42.8 0 0 60.20 55.55"
/>
<path stroke="#80deb2" vector-effect="non-scaling-stroke" d="
  M 93.40 44.31
  C 103.52 44.85 113.24 48.93 121.06 55.65
  A 0.75 0.74 43.0 0 0 122.08 55.62
  L 134.10 43.58
  A 0.53 0.53 0.0 0 0 134.08 42.81
  Q 117.01 27.41 93.44 25.96
  A 0.56 0.55 1.4 0 0 92.84 26.52
  L 92.88 43.77
  A 0.54 0.54 0.0 0 0 93.40 44.31"
/>
<path stroke="#80deb2" vector-effect="non-scaling-stroke" d="
  M 43.12 47.14
  C 33.36 58.01 26.67 72.88 26.46 87.67
  A 0.56 0.56 0.0 0 0 27.02 88.24
  L 43.98 88.25
  A 0.70 0.70 0.0 0 0 44.68 87.58
  Q 45.58 71.99 55.97 59.85
  A 0.58 0.58 0.0 0 0 55.94 59.06
  L 44.08 47.12
  A 0.67 0.67 0.0 0 0 43.12 47.14"
/>
<path stroke="#80deb2" vector-effect="non-scaling-stroke" d="
  M 137.17 88.14
  L 154.47 88.10
  A 0.54 0.54 0.0 0 0 155.01 87.53
  Q 153.64 64.26 138.12 46.95
  A 0.46 0.46 0.0 0 0 137.45 46.94
  L 125.34 59.09
  Q 124.86 59.56 125.31 60.07
  Q 127.21 62.17 128.77 64.49
  Q 136.11 75.35 136.70 87.68
  A 0.48 0.47 88.7 0 0 137.17 88.14"
/>
<path stroke="#80deb2" vector-effect="non-scaling-stroke" d="
  M 56.12 120.80
  C 49.44 113.63 45.19 103.51 44.48 93.64
  Q 44.43 92.99 43.78 92.99
  L 26.97 93.01
  Q 26.07 93.01 26.14 93.90
  Q 27.96 117.06 43.05 133.66
  A 0.76 0.76 0.0 0 0 44.15 133.68
  L 56.10 121.80
  A 0.72 0.72 0.0 0 0 56.12 120.80"
/>
<path stroke="#80deb2" vector-effect="non-scaling-stroke" d="
  M 154.02 102.09
  Q 154.86 97.67 155.01 93.83
  Q 155.03 93.14 154.35 93.14
  L 137.41 93.06
  Q 136.78 93.06 136.73 93.69
  Q 135.47 109.86 125.11 121.48
  A 0.35 0.35 0.0 0 0 125.13 121.96
  L 137.25 134.08
  A 0.65 0.65 0.0 0 0 138.19 134.06
  Q 150.51 120.79 154.02 102.09"
/>
<path stroke="#80deb2" vector-effect="non-scaling-stroke" d="
  M 46.90 137.91
  C 58.08 147.94 72.75 154.50 87.66 154.81
  Q 88.27 154.82 88.27 154.21
  L 88.28 137.24
  Q 88.28 136.62 87.66 136.58
  C 77.31 135.81 67.74 131.98 60.11 125.16
  A 0.70 0.69 42.8 0 0 59.15 125.19
  L 46.89 137.43
  A 0.33 0.33 0.0 0 0 46.90 137.91"
/>
<path stroke="#80deb2" vector-effect="non-scaling-stroke" d="
  M 93.54 154.85
  C 108.69 154.05 123.18 148.14 134.07 137.98
  A 0.52 0.52 0.0 0 0 134.08 137.23
  L 122.02 125.16
  A 0.60 0.60 0.0 0 0 121.20 125.13
  Q 109.39 135.43 93.44 136.59
  A 0.61 0.61 0.0 0 0 92.87 137.20
  L 92.88 154.23
  A 0.63 0.62 -1.3 0 0 93.54 154.85"
/>
</g>
<path fill="#ffffff" d="
  M 0.00 0.00
  L 180.00 0.00
  L 180.00 180.00
  L 0.00 180.00
  L 0.00 0.00
  Z
  M 60.20 55.55
  C 67.87 48.93 77.42 44.99 87.55 44.31
  Q 88.26 44.26 88.26 43.55
  L 88.29 26.52
  A 0.57 0.57 0.0 0 0 87.69 25.95
  Q 64.26 27.39 47.04 42.85
  A 0.46 0.46 0.0 0 0 47.02 43.52
  L 58.99 55.51
  A 0.89 0.88 -42.8 0 0 60.20 55.55
  Z
  M 93.40 44.31
  C 103.52 44.85 113.24 48.93 121.06 55.65
  A 0.75 0.74 43.0 0 0 122.08 55.62
  L 134.10 43.58
  A 0.53 0.53 0.0 0 0 134.08 42.81
  Q 117.01 27.41 93.44 25.96
  A 0.56 0.55 1.4 0 0 92.84 26.52
  L 92.88 43.77
  A 0.54 0.54 0.0 0 0 93.40 44.31
  Z
  M 43.12 47.14
  C 33.36 58.01 26.67 72.88 26.46 87.67
  A 0.56 0.56 0.0 0 0 27.02 88.24
  L 43.98 88.25
  A 0.70 0.70 0.0 0 0 44.68 87.58
  Q 45.58 71.99 55.97 59.85
  A 0.58 0.58 0.0 0 0 55.94 59.06
  L 44.08 47.12
  A 0.67 0.67 0.0 0 0 43.12 47.14
  Z
  M 137.17 88.14
  L 154.47 88.10
  A 0.54 0.54 0.0 0 0 155.01 87.53
  Q 153.64 64.26 138.12 46.95
  A 0.46 0.46 0.0 0 0 137.45 46.94
  L 125.34 59.09
  Q 124.86 59.56 125.31 60.07
  Q 127.21 62.17 128.77 64.49
  Q 136.11 75.35 136.70 87.68
  A 0.48 0.47 88.7 0 0 137.17 88.14
  Z
  M 56.12 120.80
  C 49.44 113.63 45.19 103.51 44.48 93.64
  Q 44.43 92.99 43.78 92.99
  L 26.97 93.01
  Q 26.07 93.01 26.14 93.90
  Q 27.96 117.06 43.05 133.66
  A 0.76 0.76 0.0 0 0 44.15 133.68
  L 56.10 121.80
  A 0.72 0.72 0.0 0 0 56.12 120.80
  Z
  M 154.02 102.09
  Q 154.86 97.67 155.01 93.83
  Q 155.03 93.14 154.35 93.14
  L 137.41 93.06
  Q 136.78 93.06 136.73 93.69
  Q 135.47 109.86 125.11 121.48
  A 0.35 0.35 0.0 0 0 125.13 121.96
  L 137.25 134.08
  A 0.65 0.65 0.0 0 0 138.19 134.06
  Q 150.51 120.79 154.02 102.09
  Z
  M 46.90 137.91
  C 58.08 147.94 72.75 154.50 87.66 154.81
  Q 88.27 154.82 88.27 154.21
  L 88.28 137.24
  Q 88.28 136.62 87.66 136.58
  C 77.31 135.81 67.74 131.98 60.11 125.16
  A 0.70 0.69 42.8 0 0 59.15 125.19
  L 46.89 137.43
  A 0.33 0.33 0.0 0 0 46.90 137.91
  Z
  M 93.54 154.85
  C 108.69 154.05 123.18 148.14 134.07 137.98
  A 0.52 0.52 0.0 0 0 134.08 137.23
  L 122.02 125.16
  A 0.60 0.60 0.0 0 0 121.20 125.13
  Q 109.39 135.43 93.44 136.59
  A 0.61 0.61 0.0 0 0 92.87 137.20
  L 92.88 154.23
  A 0.63 0.62 -1.3 0 0 93.54 154.85
  Z"
/>
<path fill="#00bc64" d="
  M 87.55 44.31
  C 77.42 44.99 67.87 48.93 60.20 55.55
  A 0.89 0.88 -42.8 0 1 58.99 55.51
  L 47.02 43.52
  A 0.46 0.46 0.0 0 1 47.04 42.85
  Q 64.26 27.39 87.69 25.95
  A 0.57 0.57 0.0 0 1 88.29 26.52
  L 88.26 43.55
  Q 88.26 44.26 87.55 44.31
  Z"
/>
<path fill="#00bc64" d="
  M 121.06 55.65
  C 113.24 48.93 103.52 44.85 93.40 44.31
  A 0.54 0.54 0.0 0 1 92.88 43.77
  L 92.84 26.52
  A 0.56 0.55 1.4 0 1 93.44 25.96
  Q 117.01 27.41 134.08 42.81
  A 0.53 0.53 0.0 0 1 134.10 43.58
  L 122.08 55.62
  A 0.75 0.74 43.0 0 1 121.06 55.65
  Z"
/>
<path fill="#00bc64" d="
  M 26.46 87.67
  C 26.67 72.88 33.36 58.01 43.12 47.14
  A 0.67 0.67 0.0 0 1 44.08 47.12
  L 55.94 59.06
  A 0.58 0.58 0.0 0 1 55.97 59.85
  Q 45.58 71.99 44.68 87.58
  A 0.70 0.70 0.0 0 1 43.98 88.25
  L 27.02 88.24
  A 0.56 0.56 0.0 0 1 26.46 87.67
  Z"
/>
<path fill="#00bc64" d="
  M 154.47 88.10
  L 137.17 88.14
  A 0.48 0.47 88.7 0 1 136.70 87.68
  Q 136.11 75.35 128.77 64.49
  Q 127.21 62.17 125.31 60.07
  Q 124.86 59.56 125.34 59.09
  L 137.45 46.94
  A 0.46 0.46 0.0 0 1 138.12 46.95
  Q 153.64 64.26 155.01 87.53
  A 0.54 0.54 0.0 0 1 154.47 88.10
  Z"
/>
<path fill="#00bc64" d="
  M 44.48 93.64
  C 45.19 103.51 49.44 113.63 56.12 120.80
  A 0.72 0.72 0.0 0 1 56.10 121.80
  L 44.15 133.68
  A 0.76 0.76 0.0 0 1 43.05 133.66
  Q 27.96 117.06 26.14 93.90
  Q 26.07 93.01 26.97 93.01
  L 43.78 92.99
  Q 44.43 92.99 44.48 93.64
  Z"
/>
<path fill="#00bc64" d="
  M 154.02 102.09
  Q 150.51 120.79 138.19 134.06
  A 0.65 0.65 0.0 0 1 137.25 134.08
  L 125.13 121.96
  A 0.35 0.35 0.0 0 1 125.11 121.48
  Q 135.47 109.86 136.73 93.69
  Q 136.78 93.06 137.41 93.06
  L 154.35 93.14
  Q 155.03 93.14 155.01 93.83
  Q 154.86 97.67 154.02 102.09
  Z"
/>
<path fill="#00bc64" d="
  M 87.66 154.81
  C 72.75 154.50 58.08 147.94 46.90 137.91
  A 0.33 0.33 0.0 0 1 46.89 137.43
  L 59.15 125.19
  A 0.70 0.69 42.8 0 1 60.11 125.16
  C 67.74 131.98 77.31 135.81 87.66 136.58
  Q 88.28 136.62 88.28 137.24
  L 88.27 154.21
  Q 88.27 154.82 87.66 154.81
  Z"
/>
<path fill="#00bc64" d="
  M 134.07 137.98
  C 123.18 148.14 108.69 154.05 93.54 154.85
  A 0.63 0.62 -1.3 0 1 92.88 154.23
  L 92.87 137.20
  A 0.61 0.61 0.0 0 1 93.44 136.59
  Q 109.39 135.43 121.20 125.13
  A 0.60 0.60 0.0 0 1 122.02 125.16
  L 134.08 137.23
  A 0.52 0.52 0.0 0 1 134.07 137.98
  Z"
/>
</svg>
