<svg width="48" height="48" viewBox="0 0 48 48" fill="none" xmlns="http://www.w3.org/2000/svg">
<g clip-path="url(#clip0_2317_3830)">
<path d="M25.7369 33.9967C21.9488 37.7875 21.278 38.6844 19.3566 39.506C15.1889 41.2844 11.7726 38.9756 10.3972 37.6003C8.78008 35.9883 7.86231 33.8824 7.86231 31.7114C7.85971 27.9493 10.392 25.872 11.6478 24.6162H11.6504L15.9143 20.7865L14.3699 19.2421L21.1064 17.2428L19.107 23.9792L17.5627 22.4322C12.8802 27.2057 10.8106 29.1635 10.8106 31.7114C10.8106 33.0478 11.3696 34.3997 12.4824 35.5151C15.0823 38.1098 17.8227 36.9555 18.1996 36.7943C19.4944 36.2405 19.6764 35.8895 24.9127 30.6532L25.7369 33.9967Z" fill="#DEE714"/>
<path d="M42.3687 36.3653L38.8198 35.2655L37.72 31.7166H36.3655L35.2657 35.2655L31.7168 36.3653V37.7199L35.2657 38.8196L36.3655 42.3685H37.72L38.8198 38.8196L42.3687 37.7199V36.3653Z" fill="#DEE714"/>
<path d="M31.3317 18.7533L25.0425 25.0426L18.7532 31.3318C17.3753 32.7098 15.2901 30.6272 16.6681 29.2467L29.2466 16.6682C30.6245 15.2902 32.7097 17.3728 31.3317 18.7533ZM10.28 5.63406L9.18026 9.18297L5.63135 10.2827V11.6373L9.18026 12.7371L10.28 16.286H11.6346L12.7344 12.7371L16.2833 11.6373V10.2827L12.7344 9.18297L11.6346 5.63406H10.28ZM23.0795 17.352C28.3158 12.1157 28.4978 11.7647 29.7925 11.2109C30.1695 11.0497 32.9099 9.89535 35.5098 12.4875C36.6226 13.6055 37.1816 14.9574 37.1816 16.2938C37.1816 18.8417 35.112 20.7995 30.4295 25.573L28.8852 24.026L26.8858 30.7624L33.6222 28.7631L32.0779 27.2187L36.3418 23.389H36.3444C37.6001 22.1332 40.1325 20.0559 40.1299 16.2938C40.1299 14.1228 39.2121 12.0169 37.5949 10.4049C36.2196 9.02957 32.8033 6.72083 28.6356 8.49918C26.7142 9.32076 26.0434 10.2177 22.2553 14.0084L23.0795 17.352Z" fill="#FF8800"/>
</g>
<defs>
<clipPath id="clip0_2317_3830">
<rect width="48" height="48" fill="white"/>
</clipPath>
</defs>
</svg>
