<?xml version="1.0" encoding="UTF-8"?>
<!DOCTYPE svg PUBLIC "-//W3C//DTD SVG 1.1//EN" "http://www.w3.org/Graphics/SVG/1.1/DTD/svg11.dtd">
<svg xmlns="http://www.w3.org/2000/svg" version="1.1" width="1258px" height="222px" style="shape-rendering:geometricPrecision; text-rendering:geometricPrecision; image-rendering:optimizeQuality; fill-rule:evenodd; clip-rule:evenodd" xmlns:xlink="http://www.w3.org/1999/xlink">
<g><path style="opacity:1" fill="#515151" d="M -0.5,-0.5 C 119.833,-0.5 240.167,-0.5 360.5,-0.5C 379.979,15.4693 399.645,31.3027 419.5,47C 421.606,48.6371 422.272,50.4705 421.5,52.5C 417.922,51.4113 414.255,51.2446 410.5,52C 409.944,52.3826 409.611,52.8826 409.5,53.5C 403.397,56.8713 401.897,61.8713 405,68.5C 405.708,69.3805 406.542,70.0472 407.5,70.5C 410.449,74.3445 414.116,75.3445 418.5,73.5C 419.93,72.4625 421.597,71.7959 423.5,71.5C 424.496,71.5858 425.329,71.2524 426,70.5C 426.309,69.2341 426.809,68.0674 427.5,67C 428.483,66.4092 429.15,66.7425 429.5,68C 434.215,79.9848 439.215,91.8181 444.5,103.5C 443.5,106.167 442.5,108.833 441.5,111.5C 440.076,113.515 439.41,115.848 439.5,118.5C 438.509,124.979 438.176,131.646 438.5,138.5C 433.816,153.88 427.983,168.88 421,183.5C 405.021,195.653 389.521,208.319 374.5,221.5C 249.5,221.5 124.5,221.5 -0.5,221.5C -0.5,147.5 -0.5,73.5 -0.5,-0.5 Z"/></g>
<g><path style="opacity:1" fill="#525252" d="M 360.5,-0.5 C 659.5,-0.5 958.5,-0.5 1257.5,-0.5C 1257.5,73.5 1257.5,147.5 1257.5,221.5C 963.167,221.5 668.833,221.5 374.5,221.5C 389.521,208.319 405.021,195.653 421,183.5C 427.983,168.88 433.816,153.88 438.5,138.5C 441.284,146.224 445.284,153.391 450.5,160C 452.734,161.75 455.068,163.25 457.5,164.5C 457.973,165.906 458.973,166.573 460.5,166.5C 462.158,167.181 463.825,168.015 465.5,169C 474.676,169.824 483.676,169.657 492.5,168.5C 496.207,168.208 499.707,167.208 503,165.5C 503.831,159.141 503.664,152.807 502.5,146.5C 501.893,146.624 501.56,146.957 501.5,147.5C 500.833,147.5 500.5,147.833 500.5,148.5C 499.508,148.328 498.842,148.662 498.5,149.5C 495.256,150.463 492.256,151.796 489.5,153.5C 488.833,153.5 488.167,153.5 487.5,153.5C 482.009,153.85 476.676,153.184 471.5,151.5C 466.444,148.777 462.777,144.777 460.5,139.5C 459.214,131.828 459.214,124.162 460.5,116.5C 460.5,116.167 460.5,115.833 460.5,115.5C 461.906,115.027 462.573,114.027 462.5,112.5C 464.892,107.775 468.559,104.442 473.5,102.5C 478.797,101.725 484.13,101.392 489.5,101.5C 490.93,102.537 492.597,103.204 494.5,103.5C 496.05,104.441 497.716,105.107 499.5,105.5C 499.5,106.167 499.833,106.5 500.5,106.5C 501.209,107.404 502.209,107.737 503.5,107.5C 503.823,100.978 503.49,94.6446 502.5,88.5C 500.898,86.9261 498.898,86.2594 496.5,86.5C 494.565,85.8505 492.565,85.5172 490.5,85.5C 484.013,84.346 477.346,84.1794 470.5,85C 468.277,85.5662 466.277,86.3995 464.5,87.5C 461.738,88.3795 459.071,89.5462 456.5,91C 452.269,95.0621 448.269,99.2288 444.5,103.5C 439.215,91.8181 434.215,79.9848 429.5,68C 429.15,66.7425 428.483,66.4092 427.5,67C 426.809,68.0674 426.309,69.2341 426,70.5C 425.329,71.2524 424.496,71.5858 423.5,71.5C 429.472,64.6535 428.806,58.6535 421.5,53.5C 421.5,53.1667 421.5,52.8333 421.5,52.5C 422.272,50.4705 421.606,48.6371 419.5,47C 399.645,31.3027 379.979,15.4693 360.5,-0.5 Z"/></g>
<g><path style="opacity:1" fill="#986043" d="M 107.5,16.5 C 107.167,16.5 106.833,16.5 106.5,16.5C 76.8333,16.5 47.1667,16.5 17.5,16.5C 17.5,46.1667 17.5,75.8333 17.5,105.5C 17.5,105.833 17.5,106.167 17.5,106.5C 16.5019,76.3379 16.1685,46.0046 16.5,15.5C 47.0046,15.1685 77.3379,15.5019 107.5,16.5 Z"/></g>
<g><path style="opacity:1" fill="#d66d36" d="M 106.5,16.5 C 106.5,16.8333 106.5,17.1667 106.5,17.5C 77.1667,17.5 47.8333,17.5 18.5,17.5C 18.5,46.8333 18.5,76.1667 18.5,105.5C 18.1667,105.5 17.8333,105.5 17.5,105.5C 17.5,75.8333 17.5,46.1667 17.5,16.5C 47.1667,16.5 76.8333,16.5 106.5,16.5 Z"/></g>
<g><path style="opacity:1" fill="#df7033" d="M 106.5,17.5 C 106.5,46.8333 106.5,76.1667 106.5,105.5C 77.1667,105.5 47.8333,105.5 18.5,105.5C 18.5,76.1667 18.5,46.8333 18.5,17.5C 47.8333,17.5 77.1667,17.5 106.5,17.5 Z"/></g>
<g><path style="opacity:1" fill="#ababab" d="M 842.5,46.5 C 841.07,47.5375 839.403,48.2041 837.5,48.5C 838.635,46.7868 840.302,46.1201 842.5,46.5 Z"/></g>
<g><path style="opacity:1" fill="#fcfcfc" d="M 861.5,47.5 C 861.5,52.5 861.5,57.5 861.5,62.5C 860.167,62.5 858.833,62.5 857.5,62.5C 854.36,61.3592 851.027,61.1925 847.5,62C 846.944,62.3826 846.611,62.8826 846.5,63.5C 844.14,64.865 842.473,66.865 841.5,69.5C 840.511,74.9753 840.178,80.642 840.5,86.5C 849.833,86.5 859.167,86.5 868.5,86.5C 869.167,80.6535 869.833,74.6535 870.5,68.5C 874.013,67.3355 877.346,66.0022 880.5,64.5C 882.861,64.3259 885.194,63.9926 887.5,63.5C 887.175,71.3516 887.508,79.0182 888.5,86.5C 894.833,86.5 901.167,86.5 907.5,86.5C 907.5,91.5 907.5,96.5 907.5,101.5C 900.978,101.177 894.645,101.51 888.5,102.5C 888.333,117.504 888.5,132.504 889,147.5C 889.278,148.416 889.778,149.082 890.5,149.5C 891.29,150.794 892.29,151.961 893.5,153C 897.587,153.762 901.587,153.596 905.5,152.5C 907.442,157.056 908.108,162.056 907.5,167.5C 905.421,167.971 903.421,168.637 901.5,169.5C 894.349,169.891 887.349,169.225 880.5,167.5C 875.662,165.329 872.662,161.663 871.5,156.5C 870.539,138.201 870.206,119.868 870.5,101.5C 860.319,101.173 850.319,101.506 840.5,102.5C 839.503,123.994 839.169,145.66 839.5,167.5C 833.5,167.5 827.5,167.5 821.5,167.5C 821.831,145.66 821.497,123.994 820.5,102.5C 816.702,101.517 812.702,101.183 808.5,101.5C 808.5,96.8333 808.5,92.1667 808.5,87.5C 812.702,87.8168 816.702,87.4834 820.5,86.5C 821.49,80.69 821.823,74.69 821.5,68.5C 823.074,66.8984 823.741,64.8984 823.5,62.5C 825.833,55.5 830.5,50.8333 837.5,48.5C 839.403,48.2041 841.07,47.5375 842.5,46.5C 844.978,45.8359 847.645,45.5025 850.5,45.5C 854.469,45.2942 858.135,45.9608 861.5,47.5 Z"/></g>
<g><path style="opacity:1" fill="#8e8e8e" d="M 861.5,47.5 C 862.488,52.6405 862.821,57.9738 862.5,63.5C 860.585,63.7845 858.919,63.4511 857.5,62.5C 858.833,62.5 860.167,62.5 861.5,62.5C 861.5,57.5 861.5,52.5 861.5,47.5 Z"/></g>
<g><path style="opacity:1" fill="#acacac" d="M 421.5,52.5 C 421.5,52.8333 421.5,53.1667 421.5,53.5C 417.484,52.2575 413.484,52.2575 409.5,53.5C 409.611,52.8826 409.944,52.3826 410.5,52C 414.255,51.2446 417.922,51.4113 421.5,52.5 Z"/></g>
<g><path style="opacity:1" fill="#f8f8f8" d="M 421.5,53.5 C 428.806,58.6535 429.472,64.6535 423.5,71.5C 421.597,71.7959 419.93,72.4625 418.5,73.5C 414.507,73.4996 410.841,72.4996 407.5,70.5C 406.542,70.0472 405.708,69.3805 405,68.5C 401.897,61.8713 403.397,56.8713 409.5,53.5C 413.484,52.2575 417.484,52.2575 421.5,53.5 Z"/></g>
<g><path style="opacity:1" fill="#f6f6f6" d="M 1045.5,51.5 C 1056.8,49.6985 1061.97,54.3652 1061,65.5C 1057.36,71.1768 1052.2,73.0101 1045.5,71C 1040.73,67.3007 1039.23,62.4674 1041,56.5C 1042.06,54.3408 1043.56,52.6741 1045.5,51.5 Z"/></g>
<g><path style="opacity:1" fill="#fcfcfc" d="M 292.5,54.5 C 298.796,71.0357 305.129,87.7023 311.5,104.5C 311.427,106.027 312.094,107.027 313.5,107.5C 314.965,112.562 316.632,117.562 318.5,122.5C 318.427,124.027 319.094,125.027 320.5,125.5C 321.498,129.658 322.998,133.658 325,137.5C 327.278,132.808 329.445,128.141 331.5,123.5C 333.834,121.824 334.834,119.491 334.5,116.5C 336.129,111.265 338.129,106.265 340.5,101.5C 342.834,99.8243 343.834,97.491 343.5,94.5C 344.321,90.8733 345.654,87.54 347.5,84.5C 349.834,82.8243 350.834,80.491 350.5,77.5C 352.129,72.2647 354.129,67.2647 356.5,62.5C 358.834,60.8243 359.834,58.491 359.5,55.5C 359.5,55.1667 359.5,54.8333 359.5,54.5C 368.5,54.5 377.5,54.5 386.5,54.5C 386.5,92.1667 386.5,129.833 386.5,167.5C 380.5,167.5 374.5,167.5 368.5,167.5C 368.833,137.826 368.5,108.159 367.5,78.5C 366.893,78.6236 366.56,78.9569 366.5,79.5C 365.766,80.7079 365.433,82.0413 365.5,83.5C 363.935,85.5093 362.935,87.8427 362.5,90.5C 357.733,100.455 353.733,110.789 350.5,121.5C 348.935,123.509 347.935,125.843 347.5,128.5C 341.809,141.227 336.642,154.227 332,167.5C 327.55,168.8 323.05,168.8 318.5,167.5C 307.159,139.804 295.826,112.138 284.5,84.5C 284.5,83.8333 284.5,83.1667 284.5,82.5C 284.585,81.0047 283.919,80.0047 282.5,79.5C 281.5,108.826 281.167,138.159 281.5,167.5C 275.833,167.5 270.167,167.5 264.5,167.5C 264.5,129.833 264.5,92.1667 264.5,54.5C 273.833,54.5 283.167,54.5 292.5,54.5 Z"/></g>
<g><path style="opacity:1" fill="#b8b8b8" d="M 359.5,54.5 C 368.652,53.5064 377.985,53.1731 387.5,53.5C 387.5,91.8333 387.5,130.167 387.5,168.5C 380.646,168.824 373.979,168.491 367.5,167.5C 367.833,167.5 368.167,167.5 368.5,167.5C 374.5,167.5 380.5,167.5 386.5,167.5C 386.5,129.833 386.5,92.1667 386.5,54.5C 377.5,54.5 368.5,54.5 359.5,54.5 Z"/></g>
<g><path style="opacity:1" fill="#cccccc" d="M 996.5,57.5 C 981.833,57.5 967.167,57.5 952.5,57.5C 952.5,94.5 952.5,131.5 952.5,168.5C 967.167,168.5 981.833,168.5 996.5,168.5C 981.676,169.496 966.676,169.829 951.5,169.5C 951.5,131.833 951.5,94.1667 951.5,56.5C 966.676,56.1706 981.676,56.5039 996.5,57.5 Z"/></g>
<g><path style="opacity:1" fill="#fcfcfc" d="M 996.5,57.5 C 1000.76,57.7025 1004.76,58.7025 1008.5,60.5C 1008.97,61.9063 1009.97,62.573 1011.5,62.5C 1015.57,65.5662 1018.9,69.2329 1021.5,73.5C 1022.25,78.4635 1022.59,83.4635 1022.5,88.5C 1020.11,97.2294 1014.78,103.563 1006.5,107.5C 1005.32,107.281 1004.32,107.614 1003.5,108.5C 1003.62,109.107 1003.96,109.44 1004.5,109.5C 1014.78,111.456 1022.11,117.123 1026.5,126.5C 1027.29,132.13 1027.63,137.797 1027.5,143.5C 1026.17,146.5 1024.83,149.5 1023.5,152.5C 1021.2,155.141 1018.86,157.808 1016.5,160.5C 1013.14,162.213 1009.81,163.88 1006.5,165.5C 1003.73,165.759 1001.39,166.759 999.5,168.5C 998.5,168.5 997.5,168.5 996.5,168.5C 981.833,168.5 967.167,168.5 952.5,168.5C 952.5,131.5 952.5,94.5 952.5,57.5C 967.167,57.5 981.833,57.5 996.5,57.5 Z"/></g>
<g><path style="opacity:1" fill="#c8c8c8" d="M 359.5,55.5 C 359.834,58.491 358.834,60.8243 356.5,62.5C 356.935,59.8427 357.935,57.5093 359.5,55.5 Z"/></g>
<g><path style="opacity:1" fill="#a6a6a6" d="M 857.5,62.5 C 853.766,62.3227 850.099,62.6561 846.5,63.5C 846.611,62.8826 846.944,62.3826 847.5,62C 851.027,61.1925 854.36,61.3592 857.5,62.5 Z"/></g>
<g><path style="opacity:1" fill="#999999" d="M 1008.5,60.5 C 1010.03,60.427 1011.03,61.0937 1011.5,62.5C 1009.97,62.573 1008.97,61.9063 1008.5,60.5 Z"/></g>
<g><path style="opacity:1" fill="#c1c1c1" d="M 888.5,62.5 C 888.5,70.5 888.5,78.5 888.5,86.5C 887.508,79.0182 887.175,71.3516 887.5,63.5C 885.194,63.9926 882.861,64.3259 880.5,64.5C 882.838,62.9605 885.505,62.2938 888.5,62.5 Z"/></g>
<g><path style="opacity:1" fill="#bebebe" d="M 823.5,62.5 C 823.741,64.8984 823.074,66.8984 821.5,68.5C 821.259,66.1016 821.926,64.1016 823.5,62.5 Z"/></g>
<g><path style="opacity:1" fill="#aaaaaa" d="M 880.5,64.5 C 877.346,66.0022 874.013,67.3355 870.5,68.5C 869.833,74.6535 869.167,80.6535 868.5,86.5C 868.5,86.1667 868.5,85.8333 868.5,85.5C 868.171,79.4632 868.504,73.4632 869.5,67.5C 873.014,65.8833 876.681,64.8833 880.5,64.5 Z"/></g>
<g><path style="opacity:1" fill="#bdbdbd" d="M 407.5,70.5 C 410.841,72.4996 414.507,73.4996 418.5,73.5C 414.116,75.3445 410.449,74.3445 407.5,70.5 Z"/></g>
<g><path style="opacity:1" fill="#797979" d="M 988.5,72.5 C 982.833,72.5 977.167,72.5 971.5,72.5C 971.5,82.5 971.5,92.5 971.5,102.5C 977.833,102.5 984.167,102.5 990.5,102.5C 984.021,103.491 977.354,103.824 970.5,103.5C 970.5,92.8333 970.5,82.1667 970.5,71.5C 976.69,71.1771 982.69,71.5104 988.5,72.5 Z"/></g>
<g><path style="opacity:1" fill="#535353" d="M 988.5,72.5 C 994.118,72.4751 998.451,74.8084 1001.5,79.5C 1002.34,83.0991 1002.68,86.7657 1002.5,90.5C 1000.8,96.8658 996.801,100.866 990.5,102.5C 984.167,102.5 977.833,102.5 971.5,102.5C 971.5,92.5 971.5,82.5 971.5,72.5C 977.167,72.5 982.833,72.5 988.5,72.5 Z"/></g>
<g><path style="opacity:1" fill="#d3d3d3" d="M 366.5,79.5 C 366.56,78.9569 366.893,78.6236 367.5,78.5C 368.5,108.159 368.833,137.826 368.5,167.5C 368.167,167.5 367.833,167.5 367.5,167.5C 367.831,137.995 367.498,108.662 366.5,79.5 Z"/></g>
<g><path style="opacity:1" fill="#b4b4b4" d="M 292.5,54.5 C 283.167,54.5 273.833,54.5 264.5,54.5C 264.5,92.1667 264.5,129.833 264.5,167.5C 270.167,167.5 275.833,167.5 281.5,167.5C 281.167,138.159 281.5,108.826 282.5,79.5C 283.919,80.0047 284.585,81.0047 284.5,82.5C 283.883,82.3893 283.383,82.056 283,81.5C 282.5,110.165 282.333,138.831 282.5,167.5C 276.355,168.49 270.022,168.823 263.5,168.5C 263.5,130.167 263.5,91.8333 263.5,53.5C 273.348,53.1729 283.014,53.5062 292.5,54.5 Z"/></g>
<g><path style="opacity:1" fill="#c8c8c8" d="M 350.5,77.5 C 350.834,80.491 349.834,82.8243 347.5,84.5C 347.935,81.8427 348.935,79.5093 350.5,77.5 Z"/></g>
<g><path style="opacity:1" fill="#878787" d="M 1021.5,73.5 C 1022.99,76.1864 1023.66,79.1864 1023.5,82.5C 1023.5,84.6965 1023.16,86.6965 1022.5,88.5C 1022.59,83.4635 1022.25,78.4635 1021.5,73.5 Z"/></g>
<g><path style="opacity:1" fill="#676767" d="M 284.5,82.5 C 284.5,83.1667 284.5,83.8333 284.5,84.5C 283.833,112.167 283.167,139.833 282.5,167.5C 282.333,138.831 282.5,110.165 283,81.5C 283.383,82.056 283.883,82.3893 284.5,82.5 Z"/></g>
<g><path style="opacity:1" fill="#737373" d="M 366.5,79.5 C 367.498,108.662 367.831,137.995 367.5,167.5C 366.833,139.5 366.167,111.5 365.5,83.5C 365.433,82.0413 365.766,80.7079 366.5,79.5 Z"/></g>
<g><path style="opacity:1" fill="#a4a4a4" d="M 561.5,85.5 C 557.131,85.4672 552.798,85.8005 548.5,86.5C 550.848,85.0483 553.514,84.3817 556.5,84.5C 558.369,84.5068 560.036,84.8401 561.5,85.5 Z"/></g>
<g><path style="opacity:1" fill="#bdbdbd" d="M 618.5,85.5 C 611.492,85.3337 604.492,85.5004 597.5,86C 594.647,87.4301 591.647,88.2634 588.5,88.5C 590.858,86.8714 593.524,85.7048 596.5,85C 604.012,84.1782 611.345,84.3448 618.5,85.5 Z"/></g>
<g><path style="opacity:1" fill="#b3b3b3" d="M 752.5,85.5 C 759.989,84.3443 767.655,84.1777 775.5,85C 777.852,85.2401 779.852,86.0735 781.5,87.5C 771.941,85.7163 762.275,85.0496 752.5,85.5 Z"/></g>
<g><path style="opacity:1" fill="#b7b7b7" d="M 490.5,85.5 C 481.716,85.0843 473.049,85.751 464.5,87.5C 466.277,86.3995 468.277,85.5662 470.5,85C 477.346,84.1794 484.013,84.346 490.5,85.5 Z"/></g>
<g><path style="opacity:1" fill="#fbfbfb" d="M 490.5,85.5 C 492.565,85.5172 494.565,85.8505 496.5,86.5C 497.78,87.9313 499.447,88.5979 501.5,88.5C 502.117,94.5982 501.45,100.265 499.5,105.5C 497.716,105.107 496.05,104.441 494.5,103.5C 493.365,101.787 491.698,101.12 489.5,101.5C 485.019,100.352 480.352,100.185 475.5,101C 474.584,101.278 473.918,101.778 473.5,102.5C 468.559,104.442 464.892,107.775 462.5,112.5C 461.094,112.973 460.427,113.973 460.5,115.5C 460.5,115.833 460.5,116.167 460.5,116.5C 459.778,116.918 459.278,117.584 459,118.5C 458.833,121.333 458.667,124.167 458.5,127C 458.326,131.442 458.993,135.609 460.5,139.5C 462.777,144.777 466.444,148.777 471.5,151.5C 472.347,152.966 473.68,153.8 475.5,154C 479.689,154.812 483.689,154.645 487.5,153.5C 488.167,153.5 488.833,153.5 489.5,153.5C 493.236,153.459 496.236,152.126 498.5,149.5C 498.842,148.662 499.508,148.328 500.5,148.5C 501.488,153.64 501.821,158.974 501.5,164.5C 498.5,165.833 495.5,167.167 492.5,168.5C 483.676,169.657 474.676,169.824 465.5,169C 463.825,168.015 462.158,167.181 460.5,166.5C 460.027,165.094 459.027,164.427 457.5,164.5C 455.068,163.25 452.734,161.75 450.5,160C 445.284,153.391 441.284,146.224 438.5,138.5C 438.176,131.646 438.509,124.979 439.5,118.5C 440.924,116.485 441.59,114.152 441.5,111.5C 442.5,108.833 443.5,106.167 444.5,103.5C 448.269,99.2288 452.269,95.0621 456.5,91C 459.071,89.5462 461.738,88.3795 464.5,87.5C 473.049,85.751 481.716,85.0843 490.5,85.5 Z"/></g>
<g><path style="opacity:1" fill="#fdfdfd" d="M 561.5,85.5 C 562.167,85.5 562.833,85.5 563.5,85.5C 563.5,85.8333 563.5,86.1667 563.5,86.5C 563.5,92.1667 563.5,97.8333 563.5,103.5C 562.167,103.5 560.833,103.5 559.5,103.5C 546.533,100.756 538.867,106.09 536.5,119.5C 535.504,135.325 535.17,151.325 535.5,167.5C 529.5,167.5 523.5,167.5 517.5,167.5C 517.5,140.5 517.5,113.5 517.5,86.5C 523.5,86.5 529.5,86.5 535.5,86.5C 535.176,90.5546 535.509,94.5546 536.5,98.5C 537.919,97.9953 538.585,96.9953 538.5,95.5C 540.562,91.1053 543.896,88.1053 548.5,86.5C 552.798,85.8005 557.131,85.4672 561.5,85.5 Z"/></g>
<g><path style="opacity:1" fill="#fcfcfc" d="M 618.5,85.5 C 630.068,87.9427 638.735,94.2761 644.5,104.5C 644.427,106.027 645.094,107.027 646.5,107.5C 647.301,109.042 647.634,110.708 647.5,112.5C 649.531,120.774 649.864,129.107 648.5,137.5C 645.689,150.982 638.022,160.649 625.5,166.5C 623.214,166.595 621.214,167.262 619.5,168.5C 615.849,169.165 612.015,169.499 608,169.5C 602.248,169.689 596.748,169.022 591.5,167.5C 589.898,165.926 587.898,165.259 585.5,165.5C 577.513,160.893 571.847,154.227 568.5,145.5C 566.716,135.941 566.05,126.275 566.5,116.5C 568.31,113.855 569.31,110.855 569.5,107.5C 570.383,104.296 572.05,101.629 574.5,99.5C 576.5,98.1667 578.167,96.5 579.5,94.5C 581.63,91.2633 584.63,89.2633 588.5,88.5C 591.647,88.2634 594.647,87.4301 597.5,86C 604.492,85.5004 611.492,85.3337 618.5,85.5 Z"/></g>
<g><path style="opacity:1" fill="#b5b5b5" d="M 682.5,84.5 C 679.855,86.3104 676.855,87.3104 673.5,87.5C 676.084,85.5275 679.084,84.5275 682.5,84.5 Z"/></g>
<g><path style="opacity:1" fill="#fafafa" d="M 682.5,84.5 C 688.69,84.1771 694.69,84.5104 700.5,85.5C 702.515,86.9238 704.848,87.5905 707.5,87.5C 707.833,87.5 708.167,87.5 708.5,87.5C 708.823,93.69 708.49,99.69 707.5,105.5C 706.167,104.833 704.833,104.167 703.5,103.5C 701.383,101.345 698.716,100.345 695.5,100.5C 690.821,100.334 686.155,100.501 681.5,101C 678.606,103.909 677.773,107.409 679,111.5C 679.66,113.324 680.827,114.657 682.5,115.5C 682.973,116.906 683.973,117.573 685.5,117.5C 687.282,118.72 689.282,119.386 691.5,119.5C 691.973,120.906 692.973,121.573 694.5,121.5C 696.167,122.167 697.833,122.833 699.5,123.5C 699.973,124.906 700.973,125.573 702.5,125.5C 706.238,128.235 709.238,131.568 711.5,135.5C 712.254,140.463 712.587,145.463 712.5,150.5C 709.323,160.342 702.657,166.342 692.5,168.5C 684.167,169.833 675.833,169.833 667.5,168.5C 667.167,168.5 666.833,168.5 666.5,168.5C 664.898,166.926 662.898,166.259 660.5,166.5C 659.194,160.401 659.194,154.401 660.5,148.5C 662.05,149.441 663.716,150.107 665.5,150.5C 665.973,151.906 666.973,152.573 668.5,152.5C 675.668,154.976 683.001,155.143 690.5,153C 695.044,147.471 694.377,142.804 688.5,139C 682.51,136.627 676.844,133.794 671.5,130.5C 671.027,129.094 670.027,128.427 668.5,128.5C 657.92,119.647 655.753,108.98 662,96.5C 665.155,92.4975 668.988,89.4975 673.5,87.5C 676.855,87.3104 679.855,86.3104 682.5,84.5 Z"/></g>
<g><path style="opacity:1" fill="#a2a2a2" d="M 700.5,85.5 C 703.152,85.4095 705.485,86.0762 707.5,87.5C 704.848,87.5905 702.515,86.9238 700.5,85.5 Z"/></g>
<g><path style="opacity:1" fill="#fbfbfb" d="M 752.5,85.5 C 762.275,85.0496 771.941,85.7163 781.5,87.5C 794.378,92.5418 801.878,101.875 804,115.5C 804.705,123.861 804.538,132.194 803.5,140.5C 802.129,142.936 801.129,145.603 800.5,148.5C 796.086,156.583 789.752,162.583 781.5,166.5C 777.386,167.51 773.386,168.51 769.5,169.5C 763.824,169.666 758.157,169.499 752.5,169C 748.471,168.584 744.804,167.417 741.5,165.5C 741.027,164.094 740.027,163.427 738.5,163.5C 729.378,157.59 724.045,149.256 722.5,138.5C 722.289,129.8 722.623,121.133 723.5,112.5C 726.629,100.036 734.295,91.7029 746.5,87.5C 748.898,87.7406 750.898,87.0739 752.5,85.5 Z"/></g>
<g><path style="opacity:1" fill="#909090" d="M 821.5,68.5 C 821.823,74.69 821.49,80.69 820.5,86.5C 816.167,86.5 811.833,86.5 807.5,86.5C 811.634,85.5151 815.968,85.1818 820.5,85.5C 820.178,79.642 820.511,73.9753 821.5,68.5 Z"/></g>
<g><path style="opacity:1" fill="#7f7f7f" d="M 841.5,69.5 C 841.5,74.8333 841.5,80.1667 841.5,85.5C 850.5,85.5 859.5,85.5 868.5,85.5C 868.5,85.8333 868.5,86.1667 868.5,86.5C 859.167,86.5 849.833,86.5 840.5,86.5C 840.178,80.642 840.511,74.9753 841.5,69.5 Z"/></g>
<g><path style="opacity:1" fill="#7a7a7a" d="M 888.5,62.5 C 889.492,69.9818 889.825,77.6484 889.5,85.5C 895.69,85.1771 901.69,85.5104 907.5,86.5C 901.167,86.5 894.833,86.5 888.5,86.5C 888.5,78.5 888.5,70.5 888.5,62.5 Z"/></g>
<g><path style="opacity:1" fill="#aaaaaa" d="M 1001.5,79.5 C 1002.12,79.6107 1002.62,79.944 1003,80.5C 1003.81,84.0267 1003.64,87.3601 1002.5,90.5C 1002.68,86.7657 1002.34,83.0991 1001.5,79.5 Z"/></g>
<g><path style="opacity:1" fill="#7c7c7c" d="M 365.5,83.5 C 365.834,86.491 364.834,88.8243 362.5,90.5C 362.935,87.8427 363.935,85.5093 365.5,83.5 Z"/></g>
<g><path style="opacity:1" fill="#858585" d="M 496.5,86.5 C 498.898,86.2594 500.898,86.9261 502.5,88.5C 502.167,88.5 501.833,88.5 501.5,88.5C 499.447,88.5979 497.78,87.9313 496.5,86.5 Z"/></g>
<g><path style="opacity:1" fill="#747474" d="M 563.5,86.5 C 563.5,86.1667 563.5,85.8333 563.5,85.5C 564.82,88.428 565.486,91.7614 565.5,95.5C 565.498,99.0175 565.165,102.351 564.5,105.5C 564.823,98.9779 564.49,92.6446 563.5,86.5 Z"/></g>
<g><path style="opacity:1" fill="#bdbdbd" d="M 752.5,85.5 C 750.898,87.0739 748.898,87.7406 746.5,87.5C 748.102,85.9261 750.102,85.2594 752.5,85.5 Z"/></g>
<g><path style="opacity:1" fill="#a7a7a7" d="M 1130.5,87.5 C 1124.46,87.3599 1118.46,87.6932 1112.5,88.5C 1115.7,86.9704 1119.2,86.3037 1123,86.5C 1125.69,86.5029 1128.19,86.8362 1130.5,87.5 Z"/></g>
<g><path style="opacity:1" fill="#b9b9b9" d="M 424.5,167.5 C 418.355,168.49 412.022,168.823 405.5,168.5C 405.5,141.167 405.5,113.833 405.5,86.5C 412.167,86.5 418.833,86.5 425.5,86.5C 425.831,113.672 425.498,140.672 424.5,167.5 Z"/></g>
<g><path style="opacity:1" fill="#fefffe" d="M 424.5,167.5 C 418.5,167.5 412.5,167.5 406.5,167.5C 406.5,140.833 406.5,114.167 406.5,87.5C 412.5,87.5 418.5,87.5 424.5,87.5C 424.5,114.167 424.5,140.833 424.5,167.5 Z"/></g>
<g><path style="opacity:1" fill="#b7b7b7" d="M 535.5,86.5 C 529.5,86.5 523.5,86.5 517.5,86.5C 517.5,113.5 517.5,140.5 517.5,167.5C 523.5,167.5 529.5,167.5 535.5,167.5C 535.17,151.325 535.504,135.325 536.5,119.5C 536.5,135.833 536.5,152.167 536.5,168.5C 529.833,168.5 523.167,168.5 516.5,168.5C 516.5,140.833 516.5,113.167 516.5,85.5C 523.022,85.1765 529.355,85.5098 535.5,86.5 Z"/></g>
<g><path style="opacity:1" fill="#aeaeae" d="M 535.5,86.5 C 536.321,89.6414 536.821,92.9748 537,96.5C 537.383,95.944 537.883,95.6107 538.5,95.5C 538.585,96.9953 537.919,97.9953 536.5,98.5C 535.509,94.5546 535.176,90.5546 535.5,86.5 Z"/></g>
<g><path style="opacity:1" fill="#cacaca" d="M 563.5,86.5 C 564.49,92.6446 564.823,98.9779 564.5,105.5C 562.447,105.598 560.78,104.931 559.5,103.5C 560.833,103.5 562.167,103.5 563.5,103.5C 563.5,97.8333 563.5,92.1667 563.5,86.5 Z"/></g>
<g><path style="opacity:1" fill="#d6d6d6" d="M 807.5,86.5 C 811.833,86.5 816.167,86.5 820.5,86.5C 816.702,87.4834 812.702,87.8168 808.5,87.5C 808.5,92.1667 808.5,96.8333 808.5,101.5C 812.702,101.183 816.702,101.517 820.5,102.5C 816.167,102.5 811.833,102.5 807.5,102.5C 807.5,97.1667 807.5,91.8333 807.5,86.5 Z"/></g>
<g><path style="opacity:1" fill="#fdfdfd" d="M 1130.5,87.5 C 1141.6,91.2643 1147.93,98.931 1149.5,110.5C 1149.5,129.833 1149.5,149.167 1149.5,168.5C 1143.83,168.5 1138.17,168.5 1132.5,168.5C 1132.83,150.992 1132.5,133.659 1131.5,116.5C 1130.71,112.859 1129.37,109.359 1127.5,106C 1114.52,97.8827 1104.68,100.716 1098,114.5C 1097.51,116.134 1097.34,117.801 1097.5,119.5C 1096.5,135.658 1096.17,151.991 1096.5,168.5C 1090.83,168.5 1085.17,168.5 1079.5,168.5C 1079.5,142.167 1079.5,115.833 1079.5,89.5C 1085.17,89.5 1090.83,89.5 1096.5,89.5C 1096.18,93.5546 1096.51,97.5546 1097.5,101.5C 1098.3,101.043 1098.63,100.376 1098.5,99.5C 1102.01,94.3144 1106.68,90.6478 1112.5,88.5C 1118.46,87.6932 1124.46,87.3599 1130.5,87.5 Z"/></g>
<g><path style="opacity:1" fill="#fbfbfb" d="M 1220.5,97.5 C 1220.37,98.3764 1220.7,99.0431 1221.5,99.5C 1222.49,96.2317 1222.82,92.8984 1222.5,89.5C 1228.17,89.5 1233.83,89.5 1239.5,89.5C 1239.5,118.167 1239.5,146.833 1239.5,175.5C 1238.05,178.254 1237.05,181.254 1236.5,184.5C 1232.86,192.475 1227.19,198.475 1219.5,202.5C 1215.95,203.13 1212.62,204.13 1209.5,205.5C 1208.43,206.434 1207.1,206.768 1205.5,206.5C 1196.82,206.416 1188.15,206.083 1179.5,205.5C 1176.78,203.928 1173.78,202.928 1170.5,202.5C 1169.88,199.752 1169.55,196.919 1169.5,194C 1169.52,191.071 1170.19,188.571 1171.5,186.5C 1174.6,187.699 1177.6,189.199 1180.5,191C 1182.47,191.495 1184.47,191.662 1186.5,191.5C 1189.15,192.164 1191.98,192.498 1195,192.5C 1199.13,192.714 1202.97,192.048 1206.5,190.5C 1213.65,187.899 1218.32,182.899 1220.5,175.5C 1221.22,175.082 1221.72,174.416 1222,173.5C 1222.83,167.804 1222.66,162.137 1221.5,156.5C 1220.48,157.852 1219.48,159.185 1218.5,160.5C 1214.79,165.04 1210.12,168.207 1204.5,170C 1182.28,174.146 1168.44,165.313 1163,143.5C 1162.33,135.5 1162.33,127.5 1163,119.5C 1163.19,116.964 1163.69,114.631 1164.5,112.5C 1166.83,110.824 1167.83,108.491 1167.5,105.5C 1171.19,98.4785 1176.52,93.1452 1183.5,89.5C 1186.5,89.7062 1189.16,89.0395 1191.5,87.5C 1202.96,85.209 1212.62,88.5423 1220.5,97.5 Z"/></g>
<g><path style="opacity:1" fill="#747474" d="M 1240.5,88.5 C 1234.31,88.1771 1228.31,88.5104 1222.5,89.5C 1222.82,92.8984 1222.49,96.2317 1221.5,99.5C 1220.7,99.0431 1220.37,98.3764 1220.5,97.5C 1221.48,94.3752 1221.81,91.0419 1221.5,87.5C 1228.02,87.1765 1234.36,87.5098 1240.5,88.5 Z"/></g>
<g><path style="opacity:1" fill="#7f7f7f" d="M 708.5,87.5 C 709.817,93.6783 709.817,100.012 708.5,106.5C 707.893,106.376 707.56,106.043 707.5,105.5C 708.49,99.69 708.823,93.69 708.5,87.5 Z"/></g>
<g><path style="opacity:1" fill="#c0c0c0" d="M 1191.5,87.5 C 1189.16,89.0395 1186.5,89.7062 1183.5,89.5C 1185.84,87.9605 1188.5,87.2938 1191.5,87.5 Z"/></g>
<g><path style="opacity:1" fill="#cfcfcf" d="M 501.5,88.5 C 501.833,88.5 502.167,88.5 502.5,88.5C 503.12,94.9262 502.453,100.926 500.5,106.5C 499.833,106.5 499.5,106.167 499.5,105.5C 501.45,100.265 502.117,94.5982 501.5,88.5 Z"/></g>
<g><path style="opacity:1" fill="#787878" d="M 502.5,88.5 C 503.49,94.6446 503.823,100.978 503.5,107.5C 502.209,107.737 501.209,107.404 500.5,106.5C 502.453,100.926 503.12,94.9262 502.5,88.5 Z"/></g>
<g><path style="opacity:1" fill="#b9b9b9" d="M 1041.5,88.5 C 1047.83,88.5 1054.17,88.5 1060.5,88.5C 1060.5,115.5 1060.5,142.5 1060.5,169.5C 1054.17,169.5 1047.83,169.5 1041.5,169.5C 1041.5,142.5 1041.5,115.5 1041.5,88.5 Z"/></g>
<g><path style="opacity:1" fill="#fefffe" d="M 1042.5,89.5 C 1048.17,89.5 1053.83,89.5 1059.5,89.5C 1059.5,115.833 1059.5,142.167 1059.5,168.5C 1053.83,168.5 1048.17,168.5 1042.5,168.5C 1042.5,142.167 1042.5,115.833 1042.5,89.5 Z"/></g>
<g><path style="opacity:1" fill="#bdbdbd" d="M 1096.5,88.5 C 1096.5,88.8333 1096.5,89.1667 1096.5,89.5C 1090.83,89.5 1085.17,89.5 1079.5,89.5C 1079.5,115.833 1079.5,142.167 1079.5,168.5C 1085.17,168.5 1090.83,168.5 1096.5,168.5C 1096.17,151.991 1096.5,135.658 1097.5,119.5C 1097.5,136.167 1097.5,152.833 1097.5,169.5C 1091.17,169.5 1084.83,169.5 1078.5,169.5C 1078.5,142.5 1078.5,115.5 1078.5,88.5C 1084.5,88.5 1090.5,88.5 1096.5,88.5 Z"/></g>
<g><path style="opacity:1" fill="#929292" d="M 1096.5,88.5 C 1097.17,92.1667 1097.83,95.8333 1098.5,99.5C 1098.63,100.376 1098.3,101.043 1097.5,101.5C 1096.51,97.5546 1096.18,93.5546 1096.5,89.5C 1096.5,89.1667 1096.5,88.8333 1096.5,88.5 Z"/></g>
<g><path style="opacity:1" fill="#d4d4d4" d="M 1222.5,89.5 C 1228.31,88.5104 1234.31,88.1771 1240.5,88.5C 1240.83,117.671 1240.5,146.671 1239.5,175.5C 1239.5,146.833 1239.5,118.167 1239.5,89.5C 1233.83,89.5 1228.17,89.5 1222.5,89.5 Z"/></g>
<g><path style="opacity:1" fill="#c5c5c5" d="M 343.5,94.5 C 343.834,97.491 342.834,99.8243 340.5,101.5C 340.935,98.8427 341.935,96.5093 343.5,94.5 Z"/></g>
<g><path style="opacity:1" fill="#c2c2c2" d="M 579.5,94.5 C 578.167,96.5 576.5,98.1667 574.5,99.5C 575.167,96.8333 576.833,95.1667 579.5,94.5 Z"/></g>
<g><path style="opacity:1" fill="#8d8d8d" d="M 489.5,101.5 C 484.13,101.392 478.797,101.725 473.5,102.5C 473.918,101.778 474.584,101.278 475.5,101C 480.352,100.185 485.019,100.352 489.5,101.5 Z"/></g>
<g><path style="opacity:1" fill="#9c9c9c" d="M 613.5,101.5 C 608.463,101.413 603.463,101.746 598.5,102.5C 598.918,101.778 599.584,101.278 600.5,101C 605.02,100.186 609.354,100.353 613.5,101.5 Z"/></g>
<g><path style="opacity:1" fill="#a2a2a2" d="M 695.5,100.5 C 698.716,100.345 701.383,101.345 703.5,103.5C 700.603,102.871 697.936,101.871 695.5,100.5 Z"/></g>
<g><path style="opacity:1" fill="#9a9a9a" d="M 772.5,102.5 C 766.5,101.167 760.5,101.167 754.5,102.5C 754.918,101.778 755.584,101.278 756.5,101C 758.667,100.833 760.833,100.667 763,100.5C 766.477,100.328 769.644,100.994 772.5,102.5 Z"/></g>
<g><path style="opacity:1" fill="#a2a2a2" d="M 489.5,101.5 C 491.698,101.12 493.365,101.787 494.5,103.5C 492.597,103.204 490.93,102.537 489.5,101.5 Z"/></g>
<g><path style="opacity:1" fill="#535353" d="M 613.5,101.5 C 614.93,102.537 616.597,103.204 618.5,103.5C 626.258,109.193 629.925,117.026 629.5,127C 629.293,130.523 628.96,134.023 628.5,137.5C 626.93,140.314 625.597,143.314 624.5,146.5C 622.817,148.514 620.817,150.18 618.5,151.5C 611.953,153.761 605.287,154.094 598.5,152.5C 597.508,152.672 596.842,152.338 596.5,151.5C 596.027,150.094 595.027,149.427 593.5,149.5C 588.912,145.571 586.579,140.571 586.5,134.5C 586.091,127.017 586.758,119.684 588.5,112.5C 590.167,107.5 593.5,104.167 598.5,102.5C 603.463,101.746 608.463,101.413 613.5,101.5 Z"/></g>
<g><path style="opacity:1" fill="#aeaeae" d="M 613.5,101.5 C 615.698,101.12 617.365,101.787 618.5,103.5C 616.597,103.204 614.93,102.537 613.5,101.5 Z"/></g>
<g><path style="opacity:1" fill="#535353" d="M 772.5,102.5 C 779.404,105.635 783.404,110.969 784.5,118.5C 784.674,125.535 784.341,132.535 783.5,139.5C 781.928,143.641 779.595,147.308 776.5,150.5C 773.982,151.264 771.649,152.264 769.5,153.5C 764.463,153.587 759.463,153.254 754.5,152.5C 748.846,150.344 745.012,146.344 743,140.5C 742.51,139.207 742.343,137.873 742.5,136.5C 742.062,128.353 742.729,120.353 744.5,112.5C 746.167,107.5 749.5,104.167 754.5,102.5C 760.5,101.167 766.5,101.167 772.5,102.5 Z"/></g>
<g><path style="opacity:1" fill="#aeaeae" d="M 907.5,86.5 C 908.833,91.8333 908.833,97.1667 907.5,102.5C 901.167,102.5 894.833,102.5 888.5,102.5C 894.645,101.51 900.978,101.177 907.5,101.5C 907.5,96.5 907.5,91.5 907.5,86.5 Z"/></g>
<g><path style="opacity:1" fill="#888888" d="M 1210.5,103.5 C 1204.86,102.284 1199.19,102.284 1193.5,103.5C 1193.92,102.778 1194.58,102.278 1195.5,102C 1200.17,101.333 1204.83,101.333 1209.5,102C 1210.06,102.383 1210.39,102.883 1210.5,103.5 Z"/></g>
<g><path style="opacity:1" fill="#545454" d="M 1210.5,103.5 C 1215.5,105.167 1218.83,108.5 1220.5,113.5C 1221.37,121.8 1221.7,130.133 1221.5,138.5C 1220.16,145.837 1216.16,151.171 1209.5,154.5C 1203.85,155.78 1198.18,155.78 1192.5,154.5C 1191.76,154.631 1191.09,154.464 1190.5,154C 1185.51,149.526 1182.51,144.026 1181.5,137.5C 1181.41,131.137 1181.74,124.804 1182.5,118.5C 1183.49,111.512 1187.16,106.512 1193.5,103.5C 1199.19,102.284 1204.86,102.284 1210.5,103.5 Z"/></g>
<g><path style="opacity:1" fill="#7d7d7d" d="M 840.5,102.5 C 850.167,102.5 859.833,102.5 869.5,102.5C 869.5,117.833 869.5,133.167 869.5,148.5C 868.504,133.676 868.171,118.676 868.5,103.5C 859.5,103.5 850.5,103.5 841.5,103.5C 841.831,125.34 841.497,147.006 840.5,168.5C 840.5,146.5 840.5,124.5 840.5,102.5 Z"/></g>
<g><path style="opacity:1" fill="#dcdcdc" d="M 840.5,102.5 C 850.319,101.506 860.319,101.173 870.5,101.5C 870.206,119.868 870.539,138.201 871.5,156.5C 869.777,154.22 869.111,151.553 869.5,148.5C 869.5,133.167 869.5,117.833 869.5,102.5C 859.833,102.5 850.167,102.5 840.5,102.5 Z"/></g>
<g><path style="opacity:1" fill="#747474" d="M 888.5,102.5 C 894.833,102.5 901.167,102.5 907.5,102.5C 901.69,103.49 895.69,103.823 889.5,103.5C 889.214,118.869 889.547,134.202 890.5,149.5C 889.778,149.082 889.278,148.416 889,147.5C 888.5,132.504 888.333,117.504 888.5,102.5 Z"/></g>
<g><path style="opacity:1" fill="#b2653c" d="M 106.5,16.5 C 106.833,16.5 107.167,16.5 107.5,16.5C 107.5,46.5 107.5,76.5 107.5,106.5C 77.5,106.5 47.5,106.5 17.5,106.5C 17.5,106.167 17.5,105.833 17.5,105.5C 17.8333,105.5 18.1667,105.5 18.5,105.5C 47.8333,105.5 77.1667,105.5 106.5,105.5C 106.5,76.1667 106.5,46.8333 106.5,17.5C 106.5,17.1667 106.5,16.8333 106.5,16.5 Z"/></g>
<g><path style="opacity:1" fill="#7b9552" d="M 206.5,16.5 C 207.833,46.5 207.833,76.5 206.5,106.5C 176.5,106.5 146.5,106.5 116.5,106.5C 116.5,76.5 116.5,46.5 116.5,16.5C 146.5,15.1667 176.5,15.1667 206.5,16.5 Z"/></g>
<g><path style="opacity:1" fill="#97c453" d="M 206.5,16.5 C 206.5,46.1667 206.5,75.8333 206.5,105.5C 176.833,105.5 147.167,105.5 117.5,105.5C 117.5,75.8333 117.5,46.1667 117.5,16.5C 147.167,16.5 176.833,16.5 206.5,16.5 Z"/></g>
<g><path style="opacity:1" fill="#5c6451" d="M 116.5,16.5 C 116.5,46.5 116.5,76.5 116.5,106.5C 146.5,106.5 176.5,106.5 206.5,106.5C 176.338,107.498 146.005,107.831 115.5,107.5C 115.169,76.9954 115.502,46.6621 116.5,16.5 Z"/></g>
<g><path style="opacity:1" fill="#999999" d="M 311.5,104.5 C 312.906,104.973 313.573,105.973 313.5,107.5C 312.094,107.027 311.427,106.027 311.5,104.5 Z"/></g>
<g><path style="opacity:1" fill="#989898" d="M 644.5,104.5 C 645.906,104.973 646.573,105.973 646.5,107.5C 645.094,107.027 644.427,106.027 644.5,104.5 Z"/></g>
<g><path style="opacity:1" fill="#acacac" d="M 1006.5,107.5 C 1005.83,108.167 1005.17,108.833 1004.5,109.5C 1003.96,109.44 1003.62,109.107 1003.5,108.5C 1004.32,107.614 1005.32,107.281 1006.5,107.5 Z"/></g>
<g><path style="opacity:1" fill="#c6c6c6" d="M 1167.5,105.5 C 1167.83,108.491 1166.83,110.824 1164.5,112.5C 1164.93,109.843 1165.93,107.509 1167.5,105.5 Z"/></g>
<g><path style="opacity:1" fill="#bebebe" d="M 820.5,102.5 C 821.497,123.994 821.831,145.66 821.5,167.5C 827.5,167.5 833.5,167.5 839.5,167.5C 839.169,145.66 839.503,123.994 840.5,102.5C 840.5,124.5 840.5,146.5 840.5,168.5C 833.833,168.5 827.167,168.5 820.5,168.5C 820.5,146.5 820.5,124.5 820.5,102.5 Z"/></g>
<g><path style="opacity:1" fill="#c0c0c0" d="M 569.5,107.5 C 569.31,110.855 568.31,113.855 566.5,116.5C 566.528,113.084 567.528,110.084 569.5,107.5 Z"/></g>
<g><path style="opacity:1" fill="#b6b6b6" d="M 441.5,111.5 C 441.59,114.152 440.924,116.485 439.5,118.5C 439.41,115.848 440.076,113.515 441.5,111.5 Z"/></g>
<g><path style="opacity:1" fill="#9d9d9d" d="M 462.5,112.5 C 462.573,114.027 461.906,115.027 460.5,115.5C 460.427,113.973 461.094,112.973 462.5,112.5 Z"/></g>
<g><path style="opacity:1" fill="#53aae9" d="M 18.5,116.5 C 47.8333,116.5 77.1667,116.5 106.5,116.5C 106.5,146.167 106.5,175.833 106.5,205.5C 76.8333,205.5 47.1667,205.5 17.5,205.5C 17.1686,175.662 17.5019,145.995 18.5,116.5 Z"/></g>
<g><path style="opacity:1" fill="#5288b0" d="M 18.5,116.5 C 18.5,116.167 18.5,115.833 18.5,115.5C 48.1667,115.5 77.8333,115.5 107.5,115.5C 107.5,145.5 107.5,175.5 107.5,205.5C 107.167,205.5 106.833,205.5 106.5,205.5C 106.5,175.833 106.5,146.167 106.5,116.5C 77.1667,116.5 47.8333,116.5 18.5,116.5 Z"/></g>
<g><path style="opacity:1" fill="#b19546" d="M 207.5,115.5 C 207.831,145.671 207.498,175.671 206.5,205.5C 176.671,206.498 146.671,206.831 116.5,206.5C 116.5,176.167 116.5,145.833 116.5,115.5C 146.833,115.5 177.167,115.5 207.5,115.5 Z"/></g>
<g><path style="opacity:1" fill="#f3c53f" d="M 206.5,205.5 C 176.833,205.5 147.167,205.5 117.5,205.5C 117.5,175.833 117.5,146.167 117.5,116.5C 147.167,116.5 176.833,116.5 206.5,116.5C 206.5,146.167 206.5,175.833 206.5,205.5 Z"/></g>
<g><path style="opacity:1" fill="#939393" d="M 682.5,115.5 C 684.027,115.427 685.027,116.094 685.5,117.5C 683.973,117.573 682.973,116.906 682.5,115.5 Z"/></g>
<g><path style="opacity:1" fill="#c6c6c6" d="M 334.5,116.5 C 334.834,119.491 333.834,121.824 331.5,123.5C 331.935,120.843 332.935,118.509 334.5,116.5 Z"/></g>
<g><path style="opacity:1" fill="#7e7e7e" d="M 991.5,119.5 C 984.833,119.5 978.167,119.5 971.5,119.5C 971.5,130.833 971.5,142.167 971.5,153.5C 978.5,153.5 985.5,153.5 992.5,153.5C 985.352,154.492 978.019,154.825 970.5,154.5C 970.5,142.5 970.5,130.5 970.5,118.5C 977.687,118.175 984.687,118.509 991.5,119.5 Z"/></g>
<g><path style="opacity:1" fill="#525252" d="M 991.5,119.5 C 997.948,120.219 1002.95,123.219 1006.5,128.5C 1007.27,132.452 1007.61,136.452 1007.5,140.5C 1005.32,148.015 1000.32,152.348 992.5,153.5C 985.5,153.5 978.5,153.5 971.5,153.5C 971.5,142.167 971.5,130.833 971.5,119.5C 978.167,119.5 984.833,119.5 991.5,119.5 Z"/></g>
<g><path style="opacity:1" fill="#b9b9b9" d="M 1149.5,110.5 C 1150.5,129.993 1150.83,149.66 1150.5,169.5C 1144.17,169.5 1137.83,169.5 1131.5,169.5C 1131.5,151.833 1131.5,134.167 1131.5,116.5C 1132.5,133.659 1132.83,150.992 1132.5,168.5C 1138.17,168.5 1143.83,168.5 1149.5,168.5C 1149.5,149.167 1149.5,129.833 1149.5,110.5 Z"/></g>
<g><path style="opacity:1" fill="#a1a1a1" d="M 691.5,119.5 C 693.027,119.427 694.027,120.094 694.5,121.5C 692.973,121.573 691.973,120.906 691.5,119.5 Z"/></g>
<g><path style="opacity:1" fill="#8f8f8f" d="M 1220.5,113.5 C 1221.27,114.263 1221.77,115.263 1222,116.5C 1222.82,124.012 1222.66,131.345 1221.5,138.5C 1221.7,130.133 1221.37,121.8 1220.5,113.5 Z"/></g>
<g><path style="opacity:1" fill="#7c7c7c" d="M 647.5,112.5 C 648.222,112.918 648.722,113.584 649,114.5C 651.096,122.376 650.929,130.043 648.5,137.5C 649.864,129.107 649.531,120.774 647.5,112.5 Z"/></g>
<g><path style="opacity:1" fill="#7f7f7f" d="M 744.5,112.5 C 742.729,120.353 742.062,128.353 742.5,136.5C 741.346,130.013 741.179,123.346 742,116.5C 742.608,114.934 743.442,113.6 744.5,112.5 Z"/></g>
<g><path style="opacity:1" fill="#979797" d="M 318.5,122.5 C 319.906,122.973 320.573,123.973 320.5,125.5C 319.094,125.027 318.427,124.027 318.5,122.5 Z"/></g>
<g><path style="opacity:1" fill="#7c7c7c" d="M 350.5,121.5 C 350.834,124.491 349.834,126.824 347.5,128.5C 347.935,125.843 348.935,123.509 350.5,121.5 Z"/></g>
<g><path style="opacity:1" fill="#898989" d="M 460.5,116.5 C 459.214,124.162 459.214,131.828 460.5,139.5C 458.993,135.609 458.326,131.442 458.5,127C 458.667,124.167 458.833,121.333 459,118.5C 459.278,117.584 459.778,116.918 460.5,116.5 Z"/></g>
<g><path style="opacity:1" fill="#989898" d="M 699.5,123.5 C 701.027,123.427 702.027,124.094 702.5,125.5C 700.973,125.573 699.973,124.906 699.5,123.5 Z"/></g>
<g><path style="opacity:1" fill="#a7a7a7" d="M 784.5,118.5 C 785.165,121.314 785.498,124.314 785.5,127.5C 785.722,131.797 785.055,135.797 783.5,139.5C 784.341,132.535 784.674,125.535 784.5,118.5 Z"/></g>
<g><path style="opacity:1" fill="#cfcfcf" d="M 723.5,112.5 C 722.623,121.133 722.289,129.8 722.5,138.5C 721.344,131.011 721.178,123.345 722,115.5C 722.232,114.263 722.732,113.263 723.5,112.5 Z"/></g>
<g><path style="opacity:1" fill="#868686" d="M 588.5,112.5 C 586.758,119.684 586.091,127.017 586.5,134.5C 585.348,129.015 585.182,123.349 586,117.5C 586.374,115.509 587.207,113.842 588.5,112.5 Z"/></g>
<g><path style="opacity:1" fill="#b1b1b1" d="M 668.5,128.5 C 670.027,128.427 671.027,129.094 671.5,130.5C 669.973,130.573 668.973,129.906 668.5,128.5 Z"/></g>
<g><path style="opacity:1" fill="#b9b9b9" d="M 1006.5,128.5 C 1008.02,130.462 1008.68,132.795 1008.5,135.5C 1008.49,137.369 1008.16,139.036 1007.5,140.5C 1007.61,136.452 1007.27,132.452 1006.5,128.5 Z"/></g>
<g><path style="opacity:1" fill="#c4c4c4" d="M 566.5,116.5 C 566.05,126.275 566.716,135.941 568.5,145.5C 567.073,143.852 566.24,141.852 566,139.5C 565.178,131.655 565.344,123.989 566.5,116.5 Z"/></g>
<g><path style="opacity:1" fill="#929292" d="M 1182.5,118.5 C 1181.74,124.804 1181.41,131.137 1181.5,137.5C 1180.35,132.015 1180.18,126.349 1181,120.5C 1181.28,119.584 1181.78,118.918 1182.5,118.5 Z"/></g>
<g><path style="opacity:1" fill="#8d8d8d" d="M 1026.5,126.5 C 1028.02,129.526 1028.69,132.859 1028.5,136.5C 1028.5,139.025 1028.16,141.359 1027.5,143.5C 1027.63,137.797 1027.29,132.13 1026.5,126.5 Z"/></g>
<g><path style="opacity:1" fill="#d1d1d1" d="M 628.5,137.5 C 628.674,141.36 627.341,144.36 624.5,146.5C 625.597,143.314 626.93,140.314 628.5,137.5 Z"/></g>
<g><path style="opacity:1" fill="#949494" d="M 803.5,140.5 C 803.655,143.716 802.655,146.383 800.5,148.5C 801.129,145.603 802.129,142.936 803.5,140.5 Z"/></g>
<g><path style="opacity:1" fill="#919191" d="M 711.5,135.5 C 712.991,138.186 713.657,141.186 713.5,144.5C 713.495,146.696 713.162,148.696 712.5,150.5C 712.587,145.463 712.254,140.463 711.5,135.5 Z"/></g>
<g><path style="opacity:1" fill="#767676" d="M 660.5,147.5 C 658.547,153.074 657.88,159.074 658.5,165.5C 657.51,159.355 657.177,153.022 657.5,146.5C 658.791,146.263 659.791,146.596 660.5,147.5 Z"/></g>
<g><path style="opacity:1" fill="#c7c7c7" d="M 500.5,148.5 C 500.5,147.833 500.833,147.5 501.5,147.5C 502.833,153.167 502.833,158.833 501.5,164.5C 501.821,158.974 501.488,153.64 500.5,148.5 Z"/></g>
<g><path style="opacity:1" fill="#797979" d="M 501.5,147.5 C 501.56,146.957 501.893,146.624 502.5,146.5C 503.664,152.807 503.831,159.141 503,165.5C 499.707,167.208 496.207,168.208 492.5,168.5C 495.5,167.167 498.5,165.833 501.5,164.5C 502.833,158.833 502.833,153.167 501.5,147.5 Z"/></g>
<g><path style="opacity:1" fill="#d1d1d1" d="M 660.5,147.5 C 660.5,147.833 660.5,148.167 660.5,148.5C 659.194,154.401 659.194,160.401 660.5,166.5C 659.508,166.672 658.842,166.338 658.5,165.5C 657.88,159.074 658.547,153.074 660.5,147.5 Z"/></g>
<g><path style="opacity:1" fill="#969696" d="M 593.5,149.5 C 595.027,149.427 596.027,150.094 596.5,151.5C 594.973,151.573 593.973,150.906 593.5,149.5 Z"/></g>
<g><path style="opacity:1" fill="#c4c4c4" d="M 498.5,149.5 C 496.236,152.126 493.236,153.459 489.5,153.5C 492.256,151.796 495.256,150.463 498.5,149.5 Z"/></g>
<g><path style="opacity:1" fill="#a7a7a7" d="M 665.5,150.5 C 667.027,150.427 668.027,151.094 668.5,152.5C 666.973,152.573 665.973,151.906 665.5,150.5 Z"/></g>
<g><path style="opacity:1" fill="#bcbcbc" d="M 776.5,150.5 C 774.91,152.821 772.577,153.821 769.5,153.5C 771.649,152.264 773.982,151.264 776.5,150.5 Z"/></g>
<g><path style="opacity:1" fill="#939393" d="M 905.5,152.5 C 906.209,151.596 907.209,151.263 908.5,151.5C 908.821,157.026 908.488,162.36 907.5,167.5C 908.108,162.056 907.442,157.056 905.5,152.5 Z"/></g>
<g><path style="opacity:1" fill="#b3b3b3" d="M 471.5,151.5 C 476.676,153.184 482.009,153.85 487.5,153.5C 483.689,154.645 479.689,154.812 475.5,154C 473.68,153.8 472.347,152.966 471.5,151.5 Z"/></g>
<g><path style="opacity:1" fill="#b1b1b1" d="M 618.5,151.5 C 617.653,152.966 616.32,153.8 614.5,154C 609.833,154.667 605.167,154.667 600.5,154C 599.584,153.722 598.918,153.222 598.5,152.5C 605.287,154.094 611.953,153.761 618.5,151.5 Z"/></g>
<g><path style="opacity:1" fill="#b0b0b0" d="M 754.5,152.5 C 759.463,153.254 764.463,153.587 769.5,153.5C 765.354,154.647 761.02,154.814 756.5,154C 755.584,153.722 754.918,153.222 754.5,152.5 Z"/></g>
<g><path style="opacity:1" fill="#9d9d9d" d="M 1192.5,154.5 C 1198.18,155.78 1203.85,155.78 1209.5,154.5C 1209.39,155.117 1209.06,155.617 1208.5,156C 1203.5,156.667 1198.5,156.667 1193.5,156C 1192.94,155.617 1192.61,155.117 1192.5,154.5 Z"/></g>
<g><path style="opacity:1" fill="#767676" d="M 1023.5,152.5 C 1022.61,156.395 1020.27,159.062 1016.5,160.5C 1018.86,157.808 1021.2,155.141 1023.5,152.5 Z"/></g>
<g><path style="opacity:1" fill="#969696" d="M 1220.5,175.5 C 1221.44,170.195 1221.61,164.861 1221,159.5C 1220.33,160.252 1219.5,160.586 1218.5,160.5C 1219.48,159.185 1220.48,157.852 1221.5,156.5C 1222.66,162.137 1222.83,167.804 1222,173.5C 1221.72,174.416 1221.22,175.082 1220.5,175.5 Z"/></g>
<g><path style="opacity:1" fill="#b2b2b2" d="M 738.5,163.5 C 740.027,163.427 741.027,164.094 741.5,165.5C 739.973,165.573 738.973,164.906 738.5,163.5 Z"/></g>
<g><path style="opacity:1" fill="#a8a8a8" d="M 457.5,164.5 C 459.027,164.427 460.027,165.094 460.5,166.5C 458.973,166.573 457.973,165.906 457.5,164.5 Z"/></g>
<g><path style="opacity:1" fill="#c6c6c6" d="M 585.5,165.5 C 587.898,165.259 589.898,165.926 591.5,167.5C 589.102,167.741 587.102,167.074 585.5,165.5 Z"/></g>
<g><path style="opacity:1" fill="#979797" d="M 1006.5,165.5 C 1004.61,167.241 1002.27,168.241 999.5,168.5C 1001.39,166.759 1003.73,165.759 1006.5,165.5 Z"/></g>
<g><path style="opacity:1" fill="#a5a5a5" d="M 625.5,166.5 C 623.898,168.074 621.898,168.741 619.5,168.5C 621.214,167.262 623.214,166.595 625.5,166.5 Z"/></g>
<g><path style="opacity:1" fill="#b3b3b3" d="M 660.5,166.5 C 662.898,166.259 664.898,166.926 666.5,168.5C 664.102,168.741 662.102,168.074 660.5,166.5 Z"/></g>
<g><path style="opacity:1" fill="#a2a2a2" d="M 781.5,166.5 C 777.982,168.966 773.982,169.966 769.5,169.5C 773.386,168.51 777.386,167.51 781.5,166.5 Z"/></g>
<g><path style="opacity:1" fill="#a5a5a5" d="M 667.5,168.5 C 675.833,169.833 684.167,169.833 692.5,168.5C 692.082,169.222 691.416,169.722 690.5,170C 683.833,170.667 677.167,170.667 670.5,170C 669.263,169.768 668.263,169.268 667.5,168.5 Z"/></g>
<g><path style="opacity:1" fill="#9f9f9f" d="M 880.5,167.5 C 887.349,169.225 894.349,169.891 901.5,169.5C 896.35,170.651 891.016,170.817 885.5,170C 883.509,169.626 881.842,168.793 880.5,167.5 Z"/></g>
<g><path style="opacity:1" fill="#8c8c8c" d="M 1239.5,175.5 C 1239.85,179.159 1238.85,182.159 1236.5,184.5C 1237.05,181.254 1238.05,178.254 1239.5,175.5 Z"/></g>
<g><path style="opacity:1" fill="#878787" d="M 1169.5,185.5 C 1168.51,190.64 1168.18,195.974 1168.5,201.5C 1167.18,195.987 1167.18,190.32 1168.5,184.5C 1169.11,184.624 1169.44,184.957 1169.5,185.5 Z"/></g>
<g><path style="opacity:1" fill="#d5d5d5" d="M 1169.5,185.5 C 1170.49,185.328 1171.16,185.662 1171.5,186.5C 1170.19,188.571 1169.52,191.071 1169.5,194C 1169.55,196.919 1169.88,199.752 1170.5,202.5C 1169.51,202.672 1168.84,202.338 1168.5,201.5C 1168.18,195.974 1168.51,190.64 1169.5,185.5 Z"/></g>
<g><path style="opacity:1" fill="#949494" d="M 1206.5,190.5 C 1202.97,192.048 1199.13,192.714 1195,192.5C 1191.98,192.498 1189.15,192.164 1186.5,191.5C 1193.2,191.664 1199.87,191.331 1206.5,190.5 Z"/></g>
<g><path style="opacity:1" fill="#9f9f9f" d="M 1170.5,202.5 C 1173.78,202.928 1176.78,203.928 1179.5,205.5C 1176.08,205.472 1173.08,204.472 1170.5,202.5 Z"/></g>
<g><path style="opacity:1" fill="#9b9b9b" d="M 1219.5,202.5 C 1216.68,204.712 1213.35,205.712 1209.5,205.5C 1212.62,204.13 1215.95,203.13 1219.5,202.5 Z"/></g>
<g><path style="opacity:1" fill="#5281a2" d="M 18.5,115.5 C 18.5,115.833 18.5,116.167 18.5,116.5C 17.5019,145.995 17.1686,175.662 17.5,205.5C 47.1667,205.5 76.8333,205.5 106.5,205.5C 106.833,205.5 107.167,205.5 107.5,205.5C 77.3379,206.498 47.0046,206.831 16.5,206.5C 15.841,175.815 16.5077,145.482 18.5,115.5 Z"/></g>
<g><path style="opacity:1" fill="#58564f" d="M 207.5,115.5 C 208.664,145.664 208.831,175.997 208,206.5C 177.402,207.832 146.902,207.832 116.5,206.5C 146.671,206.831 176.671,206.498 206.5,205.5C 207.498,175.671 207.831,145.671 207.5,115.5 Z"/></g>
<g><path style="opacity:1" fill="#a4a4a4" d="M 1179.5,205.5 C 1188.15,206.083 1196.82,206.416 1205.5,206.5C 1202.18,207.165 1198.68,207.499 1195,207.5C 1189.58,207.674 1184.41,207.007 1179.5,205.5 Z"/></g>
</svg>
