<svg width="48" height="48" viewBox="0 0 48 48" fill="none" xmlns="http://www.w3.org/2000/svg">
<g clip-path="url(#clip0_2317_3827)">
<path d="M19.5669 26.3503L14.666 31.2512L16.7512 33.3338L22.2942 27.7907L19.5669 26.3503Z" fill="#93ACC1"/>
<path d="M28.4355 21.6497L33.3338 16.7514L31.2512 14.6662L25.7056 20.2093L28.4355 21.6497Z" fill="#93ACC1"/>
<path d="M22.4377 31.3994L17.0298 36.8073C15.4178 38.4192 12.8075 38.4192 11.1955 36.8073C9.58359 35.1953 9.58359 32.585 11.1955 30.973L16.6034 25.5652L14.5183 23.48L9.1104 28.8879C6.34927 31.649 6.34927 36.1313 9.1104 38.8924C11.8715 41.6536 16.3538 41.6536 19.1149 38.8924L24.5228 33.4846L22.4377 31.3994Z" fill="#93ACC1"/>
<path d="M33.4845 24.52L38.8924 19.1121C41.6535 16.351 41.6535 11.8687 38.8924 9.10758C36.1313 6.34645 31.649 6.34645 28.8878 9.10758L23.48 14.5154L25.5651 16.6006L30.973 11.1927C32.585 9.58076 35.1953 9.58076 36.8073 11.1927C38.4192 12.8047 38.4192 15.415 36.8073 17.027L31.3994 22.4348L33.4845 24.52Z" fill="#93ACC1"/>
<path d="M23.4799 14.5154L22.453 15.5424L12.8462 19.5359L28.3704 28.0923L23.8751 29.9617L22.4374 31.3994L24.5199 33.4846L25.5469 32.4576L35.1562 28.4667L19.6294 19.9077L24.1247 18.041L25.5651 16.6006L23.4799 14.5154Z" fill="#E75E5B"/>
<path d="M14.674 12.5915L10.9639 8.88138C9.58589 7.50341 7.50074 9.58596 8.87871 10.9665L12.5888 14.6766C13.9668 16.0546 16.0519 13.9721 14.674 12.5915Z" fill="#E75E5B"/>
<path d="M18.4258 10.4595L17.7759 6.96002C17.4197 5.04387 14.5207 5.58206 14.8769 7.49821L15.5269 10.9977C15.8831 12.9139 18.782 12.3757 18.4258 10.4595Z" fill="#E75E5B"/>
<path d="M10.9975 15.5268L7.49797 14.8768C5.58182 14.5206 5.04103 17.4196 6.95978 17.7758L10.4593 18.4257C12.3754 18.7819 12.9162 15.883 10.9975 15.5268Z" fill="#E75E5B"/>
<path d="M33.326 35.4111L37.0361 39.1212C38.414 40.4992 40.4992 38.4166 39.1212 37.0361L35.4111 33.326C34.0332 31.948 31.948 34.0305 33.326 35.4111Z" fill="#E75E5B"/>
<path d="M37.0023 32.4732L40.5018 33.1232C42.4179 33.4794 42.9587 30.5804 41.04 30.2242L37.5405 29.5743C35.6243 29.2181 35.0835 32.117 37.0023 32.4732Z" fill="#E75E5B"/>
<path d="M29.5766 37.5405L30.2266 41.04C30.5828 42.9561 33.4817 42.4179 33.1256 40.5018L32.4756 37.0023C32.1194 35.0861 29.2205 35.6243 29.5766 37.5405Z" fill="#E75E5B"/>
</g>
<defs>
<clipPath id="clip0_2317_3827">
<rect width="48" height="48" fill="white"/>
</clipPath>
</defs>
</svg>
