<?xml version="1.0" encoding="UTF-8"?>
<!DOCTYPE svg PUBLIC "-//W3C//DTD SVG 1.1//EN" "http://www.w3.org/Graphics/SVG/1.1/DTD/svg11.dtd">
<svg xmlns="http://www.w3.org/2000/svg" version="1.1" width="400px" height="400px" style="shape-rendering:geometricPrecision; text-rendering:geometricPrecision; image-rendering:optimizeQuality; fill-rule:evenodd; clip-rule:evenodd" xmlns:xlink="http://www.w3.org/1999/xlink">
<g><path style="opacity:1" fill="#fefefe" d="M -0.5,-0.5 C 132.833,-0.5 266.167,-0.5 399.5,-0.5C 399.5,132.833 399.5,266.167 399.5,399.5C 266.167,399.5 132.833,399.5 -0.5,399.5C -0.5,266.167 -0.5,132.833 -0.5,-0.5 Z"/></g>
<g><path style="opacity:1" fill="#93baf8" d="M 203.5,75.5 C 203.857,80.93 202.857,86.2634 200.5,91.5C 200.082,88.9104 199.082,86.5771 197.5,84.5C 194.06,94.8674 191.06,105.201 188.5,115.5C 188.167,116.167 187.833,116.833 187.5,117.5C 186.479,116.099 185.479,114.765 184.5,113.5C 185.088,108.7 185.588,103.7 186,98.5C 185.632,97.09 184.799,96.09 183.5,95.5C 181.925,96.4565 180.258,97.1231 178.5,97.5C 182.364,90.9443 186.364,84.4443 190.5,78C 194.472,75.7289 198.806,74.8955 203.5,75.5 Z"/></g>
<g><path style="opacity:1" fill="#95cdf5" d="M 206.5,77.5 C 217.837,94.1639 228.17,111.497 237.5,129.5C 236.577,130.303 235.577,130.47 234.5,130C 232.707,128.22 231.04,126.387 229.5,124.5C 227.765,125.057 226.098,125.39 224.5,125.5C 223.438,126.425 223.438,127.425 224.5,128.5C 222.952,128.179 222.285,127.179 222.5,125.5C 220.738,125.643 219.071,125.309 217.5,124.5C 216.967,126.224 215.801,127.891 214,129.5C 211.684,129.097 209.517,128.431 207.5,127.5C 206.355,128.776 206.355,130.109 207.5,131.5C 206.726,132.711 205.893,132.711 205,131.5C 204.517,132.448 204.351,133.448 204.5,134.5C 203.5,134.167 202.833,133.5 202.5,132.5C 202.16,130.321 201.16,128.488 199.5,127C 201.647,124.496 201.647,122.162 199.5,120C 199.636,116.417 200.97,113.084 203.5,110C 201.606,108.899 200.939,107.566 201.5,106C 203.513,98.1739 205.513,90.0073 207.5,81.5C 207.154,80.1508 206.821,78.8175 206.5,77.5 Z"/></g>
<g><path style="opacity:1" fill="#8ac4f4" d="M 203.5,75.5 C 204.5,76.1667 205.5,76.8333 206.5,77.5C 206.821,78.8175 207.154,80.1508 207.5,81.5C 205.513,90.0073 203.513,98.1739 201.5,106C 200.939,107.566 201.606,108.899 203.5,110C 200.97,113.084 199.636,116.417 199.5,120C 201.647,122.162 201.647,124.496 199.5,127C 201.16,128.488 202.16,130.321 202.5,132.5C 201.178,132.67 200.011,132.337 199,131.5C 196.865,133.278 194.365,133.945 191.5,133.5C 191.913,129.184 191.913,125.351 191.5,122C 192.167,121.333 192.833,120.667 193.5,120C 193.384,118.732 193.051,117.398 192.5,116C 195.263,107.879 197.929,99.7121 200.5,91.5C 202.857,86.2634 203.857,80.93 203.5,75.5 Z"/></g>
<g><path style="opacity:1" fill="#8ed2f1" d="M 237.5,129.5 C 243.336,138.5 248.669,147.833 253.5,157.5C 246.347,160.106 239.014,162.106 231.5,163.5C 231.907,162.25 231.241,161.083 229.5,160C 230.531,155.51 230.531,151.343 229.5,147.5C 227.452,142.755 225.452,137.588 223.5,132C 223.619,130.855 223.952,129.688 224.5,128.5C 223.438,127.425 223.438,126.425 224.5,125.5C 226.098,125.39 227.765,125.057 229.5,124.5C 231.04,126.387 232.707,128.22 234.5,130C 235.577,130.47 236.577,130.303 237.5,129.5 Z"/></g>
<g><path style="opacity:1" fill="#7aaef6" d="M 184.5,113.5 C 184.047,114.458 183.381,115.292 182.5,116C 182.833,116.333 183.167,116.667 183.5,117C 182.569,119.907 181.569,122.74 180.5,125.5C 178.53,122.687 175.863,121.52 172.5,122C 173.408,126.121 173.241,130.288 172,134.5C 170.667,139.167 169.333,143.833 168,148.5C 167.667,148.167 167.333,147.833 167,147.5C 164.213,151.429 161.713,155.429 159.5,159.5C 159.664,156.326 160.664,153.493 162.5,151C 161.167,148.667 161.167,146.333 162.5,144C 160.875,143.147 160.542,142.147 161.5,141C 159.741,140.202 158.074,140.369 156.5,141.5C 154.703,143.449 152.703,145.116 150.5,146.5C 159.806,130.184 169.139,113.85 178.5,97.5C 180.258,97.1231 181.925,96.4565 183.5,95.5C 184.799,96.09 185.632,97.09 186,98.5C 185.588,103.7 185.088,108.7 184.5,113.5 Z"/></g>
<g><path style="opacity:1" fill="#7dbaf4" d="M 200.5,91.5 C 197.929,99.7121 195.263,107.879 192.5,116C 193.051,117.398 193.384,118.732 193.5,120C 192.833,120.667 192.167,121.333 191.5,122C 191.913,125.351 191.913,129.184 191.5,133.5C 191.5,133.833 191.5,134.167 191.5,134.5C 189.46,134.102 187.46,133.936 185.5,134C 181.606,139.376 177.606,144.543 173.5,149.5C 172.952,148.312 172.619,147.145 172.5,146C 173.449,145.383 174.282,145.549 175,146.5C 176.613,139.728 178.446,132.728 180.5,125.5C 181.569,122.74 182.569,119.907 183.5,117C 183.167,116.667 182.833,116.333 182.5,116C 183.381,115.292 184.047,114.458 184.5,113.5C 185.479,114.765 186.479,116.099 187.5,117.5C 187.833,116.833 188.167,116.167 188.5,115.5C 191.06,105.201 194.06,94.8674 197.5,84.5C 199.082,86.5771 200.082,88.9104 200.5,91.5 Z"/></g>
<g><path style="opacity:1" fill="#81caf1" d="M 224.5,128.5 C 223.952,129.688 223.619,130.855 223.5,132C 225.452,137.588 227.452,142.755 229.5,147.5C 230.531,151.343 230.531,155.51 229.5,160C 231.241,161.083 231.907,162.25 231.5,163.5C 226.08,165.748 220.413,167.415 214.5,168.5C 214.062,168.565 213.728,168.399 213.5,168C 215.878,167.026 215.544,166.359 212.5,166C 214.797,164.84 214.464,163.84 211.5,163C 212.167,162.667 212.833,162.333 213.5,162C 211.821,159.028 211.488,156.361 212.5,154C 210.578,152.54 209.911,150.873 210.5,149C 207.993,144.398 205.993,139.565 204.5,134.5C 204.351,133.448 204.517,132.448 205,131.5C 205.893,132.711 206.726,132.711 207.5,131.5C 206.355,130.109 206.355,128.776 207.5,127.5C 209.517,128.431 211.684,129.097 214,129.5C 215.801,127.891 216.967,126.224 217.5,124.5C 219.071,125.309 220.738,125.643 222.5,125.5C 222.285,127.179 222.952,128.179 224.5,128.5 Z"/></g>
<g><path style="opacity:1" fill="#79c4f1" d="M 202.5,132.5 C 202.833,133.5 203.5,134.167 204.5,134.5C 205.993,139.565 207.993,144.398 210.5,149C 209.911,150.873 210.578,152.54 212.5,154C 211.488,156.361 211.821,159.028 213.5,162C 212.833,162.333 212.167,162.667 211.5,163C 214.464,163.84 214.797,164.84 212.5,166C 215.544,166.359 215.878,167.026 213.5,168C 213.728,168.399 214.062,168.565 214.5,168.5C 211.811,170.117 208.811,171.117 205.5,171.5C 203.799,171.034 202.299,171.034 201,171.5C 200.203,168.78 199.037,166.28 197.5,164C 198.634,162.984 198.301,162.317 196.5,162C 197.167,161.667 197.833,161.333 198.5,161C 197.167,160 197.167,159 198.5,158C 195.858,157.437 195.191,155.937 196.5,153.5C 195.182,151.448 193.515,149.115 191.5,146.5C 192.902,145.158 192.569,144.324 190.5,144C 192.235,142.177 193.235,139.844 193.5,137C 192.619,136.292 191.953,135.458 191.5,134.5C 191.5,134.167 191.5,133.833 191.5,133.5C 194.365,133.945 196.865,133.278 199,131.5C 200.011,132.337 201.178,132.67 202.5,132.5 Z"/></g>
<g><path style="opacity:1" fill="#6fbcf1" d="M 191.5,134.5 C 191.953,135.458 192.619,136.292 193.5,137C 193.235,139.844 192.235,142.177 190.5,144C 192.569,144.324 192.902,145.158 191.5,146.5C 193.515,149.115 195.182,151.448 196.5,153.5C 195.191,155.937 195.858,157.437 198.5,158C 197.167,159 197.167,160 198.5,161C 197.833,161.333 197.167,161.667 196.5,162C 198.301,162.317 198.634,162.984 197.5,164C 199.037,166.28 200.203,168.78 201,171.5C 202.299,171.034 203.799,171.034 205.5,171.5C 194.919,174.481 184.252,177.481 173.5,180.5C 172.353,176.687 172.353,172.854 173.5,169C 172.833,168.667 172.167,168.333 171.5,168C 174.137,161.761 174.803,155.594 173.5,149.5C 177.606,144.543 181.606,139.376 185.5,134C 187.46,133.936 189.46,134.102 191.5,134.5 Z"/></g>
<g><path style="opacity:1" fill="#67a6f4" d="M 159.5,159.5 C 156.981,167.444 154.981,174.944 153.5,182C 154.641,182.741 154.641,183.575 153.5,184.5C 153.957,185.298 154.624,185.631 155.5,185.5C 153.401,186.612 151.067,187.279 148.5,187.5C 147.711,187.217 147.044,186.717 146.5,186C 148.353,180.576 150.02,175.076 151.5,169.5C 150.282,166.522 150.615,163.688 152.5,161C 151.584,160.626 150.75,160.126 150,159.5C 145.687,162.316 141.52,165.316 137.5,168.5C 141.848,161.131 146.181,153.798 150.5,146.5C 152.703,145.116 154.703,143.449 156.5,141.5C 158.074,140.369 159.741,140.202 161.5,141C 160.542,142.147 160.875,143.147 162.5,144C 161.167,146.333 161.167,148.667 162.5,151C 160.664,153.493 159.664,156.326 159.5,159.5 Z"/></g>
<g><path style="opacity:1" fill="#65b0f2" d="M 180.5,125.5 C 178.446,132.728 176.613,139.728 175,146.5C 174.282,145.549 173.449,145.383 172.5,146C 172.619,147.145 172.952,148.312 173.5,149.5C 174.803,155.594 174.137,161.761 171.5,168C 172.167,168.333 172.833,168.667 173.5,169C 172.353,172.854 172.353,176.687 173.5,180.5C 167.714,182.534 161.714,184.201 155.5,185.5C 154.624,185.631 153.957,185.298 153.5,184.5C 154.641,183.575 154.641,182.741 153.5,182C 154.981,174.944 156.981,167.444 159.5,159.5C 161.713,155.429 164.213,151.429 167,147.5C 167.333,147.833 167.667,148.167 168,148.5C 169.333,143.833 170.667,139.167 172,134.5C 173.241,130.288 173.408,126.121 172.5,122C 175.863,121.52 178.53,122.687 180.5,125.5 Z"/></g>
<g><path style="opacity:1" fill="#2c7ad1" d="M 253.5,157.5 C 268.197,181.551 282.53,205.884 296.5,230.5C 291.757,226.555 288.257,221.555 286,215.5C 282.257,211.268 278.757,206.935 275.5,202.5C 269.862,191.483 262.862,181.317 254.5,172C 254.833,171.667 255.167,171.333 255.5,171C 252.026,170.412 249.526,168.578 248,165.5C 247.16,168.464 246.16,168.797 245,166.5C 242.179,168.322 239.679,170.489 237.5,173C 237.833,173.333 238.167,173.667 238.5,174C 237.5,174.333 236.5,174.667 235.5,175C 236.451,175.718 236.617,176.551 236,177.5C 233.343,179.193 231.009,181.859 229,185.5C 224.819,189.672 220.986,194.672 217.5,200.5C 216.624,201.251 215.624,201.751 214.5,202C 215.167,202.333 215.833,202.667 216.5,203C 211.201,210.821 205.201,218.155 198.5,225C 198.833,225.333 199.167,225.667 199.5,226C 198.461,227.617 197.461,228.783 196.5,229.5C 191.5,227.5 186.5,225.5 181.5,223.5C 168.431,216.966 155.098,210.966 141.5,205.5C 140.833,204.833 140.167,204.167 139.5,203.5C 141.566,199.034 143.9,194.701 146.5,190.5C 146.043,189.702 145.376,189.369 144.5,189.5C 145.833,188.833 147.167,188.167 148.5,187.5C 151.067,187.279 153.401,186.612 155.5,185.5C 161.714,184.201 167.714,182.534 173.5,180.5C 184.252,177.481 194.919,174.481 205.5,171.5C 208.811,171.117 211.811,170.117 214.5,168.5C 220.413,167.415 226.08,165.748 231.5,163.5C 239.014,162.106 246.347,160.106 253.5,157.5 Z"/></g>
<g><path style="opacity:1" fill="#2673cd" d="M 275.5,202.5 C 269.715,196.922 263.548,192.589 257,189.5C 254.393,193.777 251.393,197.777 248,201.5C 247.383,202.449 247.549,203.282 248.5,204C 247.062,204.219 245.729,204.719 244.5,205.5C 245.46,206.812 245.294,208.146 244,209.5C 243.223,207.299 242.056,207.299 240.5,209.5C 240.709,210.086 241.043,210.586 241.5,211C 238.7,213.065 237.033,215.398 236.5,218C 234.945,219.583 233.778,221.416 233,223.5C 232.333,224.833 231.667,224.833 231,223.5C 230.535,224.931 229.701,226.097 228.5,227C 228.5,228 228.5,229 228.5,230C 227.5,230.333 226.5,230.667 225.5,231C 225.833,231.333 226.167,231.667 226.5,232C 224.677,233.658 223.01,235.491 221.5,237.5C 219.929,238.309 218.262,238.643 216.5,238.5C 209.588,235.87 202.922,232.87 196.5,229.5C 197.461,228.783 198.461,227.617 199.5,226C 199.167,225.667 198.833,225.333 198.5,225C 205.201,218.155 211.201,210.821 216.5,203C 215.833,202.667 215.167,202.333 214.5,202C 215.624,201.751 216.624,201.251 217.5,200.5C 220.986,194.672 224.819,189.672 229,185.5C 231.009,181.859 233.343,179.193 236,177.5C 236.617,176.551 236.451,175.718 235.5,175C 236.5,174.667 237.5,174.333 238.5,174C 238.167,173.667 237.833,173.333 237.5,173C 239.679,170.489 242.179,168.322 245,166.5C 246.16,168.797 247.16,168.464 248,165.5C 249.526,168.578 252.026,170.412 255.5,171C 255.167,171.333 254.833,171.667 254.5,172C 262.862,181.317 269.862,191.483 275.5,202.5 Z"/></g>
<g><path style="opacity:1" fill="#589ef2" d="M 148.5,187.5 C 147.167,188.167 145.833,188.833 144.5,189.5C 137.047,191.196 129.714,193.196 122.5,195.5C 127.071,186.262 132.071,177.262 137.5,168.5C 141.52,165.316 145.687,162.316 150,159.5C 150.75,160.126 151.584,160.626 152.5,161C 150.615,163.688 150.282,166.522 151.5,169.5C 150.02,175.076 148.353,180.576 146.5,186C 147.044,186.717 147.711,187.217 148.5,187.5 Z"/></g>
<g><path style="opacity:1" fill="#2e74d9" d="M 144.5,189.5 C 145.376,189.369 146.043,189.702 146.5,190.5C 143.9,194.701 141.566,199.034 139.5,203.5C 137.046,202.773 134.713,201.773 132.5,200.5C 130.579,199.637 128.579,198.971 126.5,198.5C 125.22,197.069 123.553,196.402 121.5,196.5C 121.5,195.833 121.833,195.5 122.5,195.5C 129.714,193.196 137.047,191.196 144.5,189.5 Z"/></g>
<g><path style="opacity:1" fill="#266dc8" d="M 275.5,202.5 C 278.757,206.935 282.257,211.268 286,215.5C 288.257,221.555 291.757,226.555 296.5,230.5C 305.226,244.94 313.726,259.607 322,274.5C 322.962,278.973 322.129,282.973 319.5,286.5C 316.987,284.074 313.987,282.408 310.5,281.5C 308.5,280.5 306.5,279.5 304.5,278.5C 303.391,278.443 302.391,278.11 301.5,277.5C 304.344,275.761 307.344,274.928 310.5,275C 312.471,272.857 313.804,270.357 314.5,267.5C 306.26,253.1 297.426,239.1 288,225.5C 283.681,221.485 279.681,217.818 276,214.5C 275,214.833 274,215.167 273,215.5C 272.667,214.833 272.333,214.167 272,213.5C 270.846,214.743 269.512,215.743 268,216.5C 266.365,220.572 264.032,224.572 261,228.5C 260.692,227.692 260.192,227.025 259.5,226.5C 258.979,231.55 256.479,235.217 252,237.5C 251.667,238.5 251.333,239.5 251,240.5C 249.636,239.742 248.469,240.242 247.5,242C 247.61,245.584 245.944,248.418 242.5,250.5C 241.292,249.766 239.959,249.433 238.5,249.5C 231.167,245.833 223.833,242.167 216.5,238.5C 218.262,238.643 219.929,238.309 221.5,237.5C 223.01,235.491 224.677,233.658 226.5,232C 226.167,231.667 225.833,231.333 225.5,231C 226.5,230.667 227.5,230.333 228.5,230C 228.5,229 228.5,228 228.5,227C 229.701,226.097 230.535,224.931 231,223.5C 231.667,224.833 232.333,224.833 233,223.5C 233.778,221.416 234.945,219.583 236.5,218C 237.033,215.398 238.7,213.065 241.5,211C 241.043,210.586 240.709,210.086 240.5,209.5C 242.056,207.299 243.223,207.299 244,209.5C 245.294,208.146 245.46,206.812 244.5,205.5C 245.729,204.719 247.062,204.219 248.5,204C 247.549,203.282 247.383,202.449 248,201.5C 251.393,197.777 254.393,193.777 257,189.5C 263.548,192.589 269.715,196.922 275.5,202.5 Z"/></g>
<g><path style="opacity:1" fill="#2f5ecc" d="M 121.5,196.5 C 123.553,196.402 125.22,197.069 126.5,198.5C 113.465,219.404 100.965,240.738 89,262.5C 86.7378,268.312 88.5711,272.312 94.5,274.5C 95.1667,274.833 95.8333,275.167 96.5,275.5C 96.5106,277.017 97.1772,278.184 98.5,279C 94.5094,279.521 90.8427,279.354 87.5,278.5C 87.1667,279.167 86.8333,279.833 86.5,280.5C 82.3796,278.224 79.713,274.891 78.5,270.5C 92.3434,245.47 106.677,220.804 121.5,196.5 Z"/></g>
<g><path style="opacity:1" fill="#1e55c5" d="M 126.5,198.5 C 128.579,198.971 130.579,199.637 132.5,200.5C 125.049,218.784 117.049,236.45 108.5,253.5C 106.426,257.738 104.593,262.071 103,266.5C 99.7778,268.674 96.2778,270.174 92.5,271C 93.9733,271.71 94.6399,272.876 94.5,274.5C 88.5711,272.312 86.7378,268.312 89,262.5C 100.965,240.738 113.465,219.404 126.5,198.5 Z"/></g>
<g><path style="opacity:1" fill="#1a55be" d="M 132.5,200.5 C 134.713,201.773 137.046,202.773 139.5,203.5C 140.167,204.167 140.833,204.833 141.5,205.5C 133.002,221.014 124.668,236.18 116.5,251C 118.285,252.593 118.452,254.093 117,255.5C 116.794,251.869 115.627,251.535 113.5,254.5C 113.709,255.086 114.043,255.586 114.5,256C 111.707,259.081 109.54,262.581 108,266.5C 103.293,266.414 101.793,268.747 103.5,273.5C 102.828,274.267 101.995,274.934 101,275.5C 99.5861,274.587 98.0861,274.587 96.5,275.5C 95.8333,275.167 95.1667,274.833 94.5,274.5C 94.6399,272.876 93.9733,271.71 92.5,271C 96.2778,270.174 99.7778,268.674 103,266.5C 104.593,262.071 106.426,257.738 108.5,253.5C 117.049,236.45 125.049,218.784 132.5,200.5 Z"/></g>
<g><path style="opacity:1" fill="#1754b4" d="M 141.5,205.5 C 155.098,210.966 168.431,216.966 181.5,223.5C 180.027,224.072 178.693,224.905 177.5,226C 180.167,226.667 180.167,227.333 177.5,228C 179.948,230.3 179.281,231.633 175.5,232C 178.708,234.447 178.708,236.113 175.5,237C 176.167,237.333 176.833,237.667 177.5,238C 177.383,240.43 176.716,242.93 175.5,245.5C 174.448,245.351 173.448,245.517 172.5,246C 173.833,246.667 173.833,247.333 172.5,248C 173.167,248.333 173.833,248.667 174.5,249C 170.368,252.269 170.701,253.602 175.5,253C 172.033,254.859 171.033,257.192 172.5,260C 171.529,261.204 170.529,261.704 169.5,261.5C 170.025,262.192 170.692,262.692 171.5,263C 170.663,264.011 170.33,265.178 170.5,266.5C 173.487,267.258 176.487,268.091 179.5,269C 178.262,269.69 178.262,270.19 179.5,270.5C 182.485,272.288 185.485,273.955 188.5,275.5C 175.485,275.29 162.818,275.29 150.5,275.5C 138.363,274.782 126.196,274.115 114,273.5C 112.564,273.559 111.231,273.892 110,274.5C 109.667,273.833 109.333,273.167 109,272.5C 107.989,273.337 106.822,273.67 105.5,273.5C 104.833,273.5 104.167,273.5 103.5,273.5C 101.793,268.747 103.293,266.414 108,266.5C 109.54,262.581 111.707,259.081 114.5,256C 114.043,255.586 113.709,255.086 113.5,254.5C 115.627,251.535 116.794,251.869 117,255.5C 118.452,254.093 118.285,252.593 116.5,251C 124.668,236.18 133.002,221.014 141.5,205.5 Z"/></g>
<g><path style="opacity:1" fill="#144eaa" d="M 181.5,223.5 C 186.5,225.5 191.5,227.5 196.5,229.5C 202.922,232.87 209.588,235.87 216.5,238.5C 223.833,242.167 231.167,245.833 238.5,249.5C 238.516,251.629 237.849,253.462 236.5,255C 237.634,256.016 237.301,256.683 235.5,257C 236.249,259.451 236.249,262.118 235.5,265C 236.744,267.382 238.577,269.215 241,270.5C 241.85,269.576 242.85,269.576 244,270.5C 245.03,270.836 245.53,271.503 245.5,272.5C 232.972,272.431 220.139,271.765 207,270.5C 203.445,272.707 199.779,272.707 196,270.5C 190.374,270.916 184.874,270.916 179.5,270.5C 178.262,270.19 178.262,269.69 179.5,269C 176.487,268.091 173.487,267.258 170.5,266.5C 170.33,265.178 170.663,264.011 171.5,263C 170.692,262.692 170.025,262.192 169.5,261.5C 170.529,261.704 171.529,261.204 172.5,260C 171.033,257.192 172.033,254.859 175.5,253C 170.701,253.602 170.368,252.269 174.5,249C 173.833,248.667 173.167,248.333 172.5,248C 173.833,247.333 173.833,246.667 172.5,246C 173.448,245.517 174.448,245.351 175.5,245.5C 176.716,242.93 177.383,240.43 177.5,238C 176.833,237.667 176.167,237.333 175.5,237C 178.708,236.113 178.708,234.447 175.5,232C 179.281,231.633 179.948,230.3 177.5,228C 180.167,227.333 180.167,226.667 177.5,226C 178.693,224.905 180.027,224.072 181.5,223.5 Z"/></g>
<g><path style="opacity:1" fill="#1e64c3" d="M 301.5,277.5 C 297.715,276.019 294.048,274.353 290.5,272.5C 274.436,265.132 258.436,257.798 242.5,250.5C 245.944,248.418 247.61,245.584 247.5,242C 248.469,240.242 249.636,239.742 251,240.5C 251.333,239.5 251.667,238.5 252,237.5C 256.479,235.217 258.979,231.55 259.5,226.5C 260.192,227.025 260.692,227.692 261,228.5C 264.032,224.572 266.365,220.572 268,216.5C 269.512,215.743 270.846,214.743 272,213.5C 272.333,214.167 272.667,214.833 273,215.5C 274,215.167 275,214.833 276,214.5C 279.681,217.818 283.681,221.485 288,225.5C 297.426,239.1 306.26,253.1 314.5,267.5C 313.804,270.357 312.471,272.857 310.5,275C 307.344,274.928 304.344,275.761 301.5,277.5 Z"/></g>
<g><path style="opacity:1" fill="#13489f" d="M 238.5,249.5 C 239.959,249.433 241.292,249.766 242.5,250.5C 258.436,257.798 274.436,265.132 290.5,272.5C 275.974,272.702 260.974,272.702 245.5,272.5C 245.53,271.503 245.03,270.836 244,270.5C 242.85,269.576 241.85,269.576 241,270.5C 238.577,269.215 236.744,267.382 235.5,265C 236.249,262.118 236.249,259.451 235.5,257C 237.301,256.683 237.634,256.016 236.5,255C 237.849,253.462 238.516,251.629 238.5,249.5 Z"/></g>
<g><path style="opacity:1" fill="#1e50a4" d="M 245.5,272.5 C 260.974,272.702 275.974,272.702 290.5,272.5C 294.048,274.353 297.715,276.019 301.5,277.5C 302.391,278.11 303.391,278.443 304.5,278.5C 284.82,279.453 264.82,279.619 244.5,279C 241.204,278.543 238.037,277.709 235,276.5C 234.667,276.833 234.333,277.167 234,277.5C 221.359,276.437 208.859,275.771 196.5,275.5C 193.624,275.208 190.957,275.208 188.5,275.5C 185.485,273.955 182.485,272.288 179.5,270.5C 184.874,270.916 190.374,270.916 196,270.5C 199.779,272.707 203.445,272.707 207,270.5C 220.139,271.765 232.972,272.431 245.5,272.5 Z"/></g>
<g><path style="opacity:1" fill="#3768cc" d="M 78.5,270.5 C 79.713,274.891 82.3796,278.224 86.5,280.5C 86.8333,279.833 87.1667,279.167 87.5,278.5C 90.8427,279.354 94.5094,279.521 98.5,279C 97.1772,278.184 96.5106,277.017 96.5,275.5C 98.0861,274.587 99.5861,274.587 101,275.5C 101.995,274.934 102.828,274.267 103.5,273.5C 104.167,273.5 104.833,273.5 105.5,273.5C 105.297,275.39 105.963,276.89 107.5,278C 104.927,278.194 102.261,278.861 99.5,280C 100.563,281.188 101.897,281.688 103.5,281.5C 100.466,283.018 97.1325,283.851 93.5,284C 94.3279,284.915 95.3279,285.581 96.5,286C 89.7386,287.041 83.5719,285.541 78,281.5C 76.7978,279.323 76.2978,276.989 76.5,274.5C 76.6596,272.847 77.3263,271.514 78.5,270.5 Z"/></g>
<g><path style="opacity:1" fill="#2960b8" d="M 188.5,275.5 C 190.957,275.208 193.624,275.208 196.5,275.5C 199.991,276.456 203.324,277.289 206.5,278C 195.833,278.333 185.167,278.667 174.5,279C 184.577,280.622 194.243,282.122 203.5,283.5C 192.118,282.963 180.451,282.63 168.5,282.5C 152.827,282.296 138.16,282.296 124.5,282.5C 122.941,281.926 121.441,281.26 120,280.5C 114.593,281.473 109.093,281.807 103.5,281.5C 101.897,281.688 100.563,281.188 99.5,280C 102.261,278.861 104.927,278.194 107.5,278C 105.963,276.89 105.297,275.39 105.5,273.5C 106.822,273.67 107.989,273.337 109,272.5C 109.333,273.167 109.667,273.833 110,274.5C 111.231,273.892 112.564,273.559 114,273.5C 126.196,274.115 138.363,274.782 150.5,275.5C 162.818,275.29 175.485,275.29 188.5,275.5 Z"/></g>
<g><path style="opacity:1" fill="#2b5bad" d="M 196.5,275.5 C 208.859,275.771 221.359,276.437 234,277.5C 234.333,277.167 234.667,276.833 235,276.5C 238.037,277.709 241.204,278.543 244.5,279C 264.82,279.619 284.82,279.453 304.5,278.5C 306.5,279.5 308.5,280.5 310.5,281.5C 310.082,282.222 309.416,282.722 308.5,283C 273.519,284.107 238.519,284.273 203.5,283.5C 194.243,282.122 184.577,280.622 174.5,279C 185.167,278.667 195.833,278.333 206.5,278C 203.324,277.289 199.991,276.456 196.5,275.5 Z"/></g>
<g><path style="opacity:1" fill="#3c65b3" d="M 310.5,281.5 C 313.987,282.408 316.987,284.074 319.5,286.5C 317.99,287.836 316.323,289.003 314.5,290C 272.501,290.5 230.501,290.667 188.5,290.5C 182.673,289.478 176.673,288.645 170.5,288C 171.416,287.626 172.25,287.126 173,286.5C 183.245,287.34 193.411,287.507 203.5,287C 200.833,286.667 198.167,286.333 195.5,286C 195,285.5 194.5,285 194,284.5C 192.732,284.616 191.398,284.949 190,285.5C 182.672,284.976 175.505,283.976 168.5,282.5C 180.451,282.63 192.118,282.963 203.5,283.5C 238.519,284.273 273.519,284.107 308.5,283C 309.416,282.722 310.082,282.222 310.5,281.5 Z"/></g>
<g><path style="opacity:1" fill="#406fc5" d="M 76.5,274.5 C 76.2978,276.989 76.7978,279.323 78,281.5C 83.5719,285.541 89.7386,287.041 96.5,286C 95.3279,285.581 94.3279,284.915 93.5,284C 97.1325,283.851 100.466,283.018 103.5,281.5C 109.093,281.807 114.593,281.473 120,280.5C 121.441,281.26 122.941,281.926 124.5,282.5C 138.16,282.296 152.827,282.296 168.5,282.5C 175.505,283.976 182.672,284.976 190,285.5C 191.398,284.949 192.732,284.616 194,284.5C 194.5,285 195,285.5 195.5,286C 198.167,286.333 200.833,286.667 203.5,287C 193.411,287.507 183.245,287.34 173,286.5C 172.25,287.126 171.416,287.626 170.5,288C 176.673,288.645 182.673,289.478 188.5,290.5C 153.498,290.667 118.498,290.5 83.5,290C 76.5968,286.706 74.2635,281.54 76.5,274.5 Z"/></g>
</svg>
