<?xml version="1.0" encoding="UTF-8" standalone="no"?>
<!DOCTYPE svg PUBLIC "-//W3C//DTD SVG 1.1//EN" "http://www.w3.org/Graphics/SVG/1.1/DTD/svg11.dtd">
<svg xmlns="http://www.w3.org/2000/svg" version="1.1" viewBox="0.00 0.00 180.00 180.00">
<path fill="#6b6bff" d="
  M 129.30 36.97
  C 129.26 46.19 141.12 41.62 146.03 43.73
  Q 150.99 45.87 151.02 52.74
  Q 151.19 93.53 151.02 131.08
  Q 150.99 137.35 146.30 139.70
  C 141.48 142.12 129.55 137.55 129.35 146.05
  C 129.19 153.32 130.53 161.53 121.72 164.34
  Q 118.83 165.27 115.03 165.27
  Q 75.84 165.27 37.59 165.22
  C 32.80 165.21 30.00 162.34 30.00 157.90
  Q 30.00 96.35 29.99 25.85
  C 29.99 19.38 34.28 18.28 39.67 18.30
  Q 76.94 18.44 113.43 18.29
  C 121.73 18.26 128.81 20.06 129.18 29.67
  Q 129.32 33.16 129.30 36.97
  Z
  M 95.55 127.36
  C 102.29 127.27 107.41 124.32 107.53 117.00
  Q 107.79 100.84 107.59 67.51
  C 107.53 57.48 100.90 55.95 92.33 56.18
  Q 85.12 56.37 77.88 56.25
  Q 73.51 56.17 73.50 60.51
  Q 73.45 92.46 73.50 123.58
  A 3.73 3.73 0.0 0 0 77.14 127.30
  Q 85.35 127.49 95.55 127.36
  Z"
/>
</svg>
