<svg width="104" height="34" viewBox="0 0 104 34" fill="none" xmlns="http://www.w3.org/2000/svg">
<g clip-path="url(#clip0_364_12)">
<path d="M100.76 20.7793L103.645 22.6956C102.709 24.0698 100.469 26.4274 96.5971 26.4274C91.789 26.4274 88.2081 22.7208 88.2081 18.0057C88.2081 12.988 91.8269 9.58398 96.1922 9.58398C100.583 9.58398 102.734 13.0636 103.43 14.9421L103.809 15.9003L92.4975 20.565C93.3579 22.2544 94.6992 23.1117 96.5971 23.1117C98.4951 23.1117 99.811 22.1787 100.76 20.7793ZM91.8902 17.7409L99.4441 14.6143C99.0265 13.5679 97.7865 12.8241 96.3061 12.8241C94.4208 12.8241 91.8016 14.4882 91.8902 17.7409Z" fill="#EA4335"/>
<path d="M82.7544 0.998047H86.3985V25.658H82.7544V0.998047Z" fill="#34A853"/>
<path d="M77.0091 10.2395H80.5266V25.217C80.5266 31.4324 76.8446 33.9917 72.4919 33.9917C68.3923 33.9917 65.925 31.2433 65.0013 29.0118L68.2278 27.6754C68.8099 29.0496 70.2144 30.676 72.4919 30.676C75.2883 30.676 77.0091 28.9488 77.0091 25.7213V24.511H76.8826C76.0474 25.5196 74.4532 26.4273 72.4287 26.4273C68.2025 26.4273 64.3307 22.7586 64.3307 18.0308C64.3307 13.2778 68.2025 9.57129 72.4287 9.57129C74.4405 9.57129 76.0474 10.4664 76.8826 11.4498H77.0091V10.2395ZM77.2621 18.0308C77.2621 15.0555 75.2756 12.887 72.745 12.887C70.1891 12.887 68.038 15.0555 68.038 18.0308C68.038 20.9683 70.1891 23.099 72.745 23.099C75.2756 23.1116 77.2621 20.9683 77.2621 18.0308Z" fill="#4285F4"/>
<path d="M44.3251 17.9675C44.3251 22.8213 40.529 26.3892 35.8725 26.3892C31.2159 26.3892 27.4198 22.8087 27.4198 17.9675C27.4198 13.0885 31.2159 9.5332 35.8725 9.5332C40.529 9.5332 44.3251 13.0885 44.3251 17.9675ZM40.6303 17.9675C40.6303 14.9418 38.4285 12.8615 35.8725 12.8615C33.3164 12.8615 31.1147 14.9418 31.1147 17.9675C31.1147 20.9681 33.3164 23.0735 35.8725 23.0735C38.4285 23.0735 40.6303 20.9681 40.6303 17.9675Z" fill="#EA4335"/>
<path d="M62.7869 18.0057C62.7869 22.8595 58.9908 26.4274 54.3343 26.4274C49.6777 26.4274 45.8816 22.8595 45.8816 18.0057C45.8816 13.1266 49.6777 9.58398 54.3343 9.58398C58.9908 9.58398 62.7869 13.114 62.7869 18.0057ZM59.0794 18.0057C59.0794 14.9799 56.8776 12.8997 54.3216 12.8997C51.7656 12.8997 49.5638 14.9799 49.5638 18.0057C49.5638 21.0062 51.7656 23.1117 54.3216 23.1117C56.8903 23.1117 59.0794 20.9936 59.0794 18.0057Z" fill="#FBBC05"/>
<path d="M13.5261 22.7333C8.22418 22.7333 4.07377 18.4721 4.07377 13.1896C4.07377 7.90711 8.22418 3.64583 13.5261 3.64583C16.3858 3.64583 18.4737 4.76788 20.0174 6.20512L22.5608 3.67104C20.4097 1.61604 17.5373 0.0527344 13.5261 0.0527344C6.26286 0.0527344 0.151123 5.95297 0.151123 13.1896C0.151123 20.4262 6.26286 26.3264 13.5261 26.3264C17.4487 26.3264 20.4097 25.0405 22.7253 22.6451C25.1042 20.2749 25.8381 16.9466 25.8381 14.2486C25.8381 13.4039 25.7369 12.534 25.623 11.891H13.5261V15.3959H22.1432C21.8902 17.5895 21.1942 19.0898 20.1693 20.111C18.9292 21.3591 16.9679 22.7333 13.5261 22.7333Z" fill="#4285F4"/>
</g>
<defs>
<clipPath id="clip0_364_12">
<rect width="104" height="34" fill="white"/>
</clipPath>
</defs>
</svg>
