<?xml version="1.0" encoding="UTF-8" standalone="no"?>
<!DOCTYPE svg PUBLIC "-//W3C//DTD SVG 1.1//EN" "http://www.w3.org/Graphics/SVG/1.1/DTD/svg11.dtd">
<svg xmlns="http://www.w3.org/2000/svg" version="1.1" viewBox="0.00 0.00 106.00 105.00">
<path fill="#d85140" d="   M 31.68 45.92   L 19.48 36.38   Q 24.87 26.56 33.78 21.44   C 47.45 13.58 64.04 15.23 75.98 25.65   A 0.54 0.53 -47.1 0 1 76.00 26.43   L 66.30 36.07   Q 65.85 36.53 65.37 36.09   Q 61.88 32.93 58.09 31.83   Q 55.33 31.03 50.95 31.14   Q 47.13 31.23 44.06 32.54   Q 35.25 36.29 31.68 45.92   Z"/>
<path fill="#f1bf42" d="   M 19.48 36.38   L 31.68 45.92   Q 29.59 51.81 30.62 55.88   Q 31.27 58.41 31.46 60.03   L 19.27 69.14   Q 11.71 52.39 19.48 36.38   Z"/>
<path fill="#5383ec" d="   M 76.07 80.72   L 64.28 71.46   Q 70.10 67.49 71.42 61.03   Q 71.53 60.49 70.98 60.49   L 52.61 60.48   Q 51.99 60.48 51.99 59.86   L 51.99 46.94   Q 51.99 46.38 52.56 46.38   L 85.74 46.38   Q 86.28 46.38 86.36 46.91   Q 88.25 58.82 84.11 68.99   Q 81.40 75.66 76.07 80.72   Z"/>
<path fill="#58a65c" d="   M 31.46 60.03   Q 32.63 62.32 33.52 63.78   Q 42.09 77.77 58.51 74.20   Q 61.21 73.61 64.28 71.46   L 76.07 80.72   Q 63.13 91.52 47.13 89.12   Q 28.23 86.30 19.27 69.14   L 31.46 60.03   Z"/>
</svg>