<svg id="Layer_2" xmlns="http://www.w3.org/2000/svg" viewBox="0 0 400 400"><defs><style>.cls-1,.cls-2,.cls-3,.cls-4{fill:none}.cls-2{stroke:#4285f4;stroke-width:13.8913px}.cls-2,.cls-3{stroke-linecap:round}.cls-2,.cls-3,.cls-4{stroke-miterlimit:10}.cls-5{clip-path:url(#clippath)}.cls-6{fill:#fff}.cls-7{fill:#4285f4}.cls-3,.cls-4{stroke:#fff;stroke-width:55.5654px}</style><clipPath id="clippath"><circle class="cls-1" cx="200" cy="200" r="200"/></clipPath></defs><g class="cls-5"><path class="cls-7" d="M0 0h400v400H0z"/><path class="cls-3" d="M383.932 443.523c0-53.74-43.565-97.305-97.304-97.305h-88.525"/><path class="cls-3" d="M16.068 443.523c0-53.74 43.565-97.305 97.304-97.305h88.525"/><path class="cls-4" d="M200 226.631v209.678"/><path class="cls-6" d="M82.375 89.81h33.236V56.572L82.375 89.81zm33.236 0h33.236V56.572L115.611 89.81zm34.535 0h33.236V56.572L150.146 89.81zm33.236 0h33.236V56.572L183.382 89.81zm33.236 0h33.236V56.572L216.618 89.81zm33.236 0h33.236V56.572L249.854 89.81zm34.535 0h33.236V56.572L284.389 89.81z"/><rect class="cls-6" x="64.508" y="88.791" width="270.985" height="185.97" rx="25.004" ry="25.004"/><rect class="cls-6" x="92.319" y="292.042" width="215.362" height="221.749" rx="25.004" ry="25.004"/><circle class="cls-7" cx="178.862" cy="340.15" r="10.206"/><circle class="cls-7" cx="221.138" cy="340.15" r="10.206"/><circle class="cls-7" cx="263.413" cy="340.15" r="10.206"/><circle class="cls-7" cx="136.587" cy="340.15" r="10.206"/><circle class="cls-7" cx="135.201" cy="158.382" r="24.232" transform="rotate(-54.516 135.2 158.382)"/><circle class="cls-7" cx="264.799" cy="158.382" r="24.232" transform="rotate(-54.516 264.8 158.382)"/><path class="cls-2" d="M253.99 211.682c-29.818 29.817-78.162 29.817-107.98 0"/></g></svg>