<?xml version="1.0" encoding="UTF-8" standalone="no"?>
<!DOCTYPE svg PUBLIC "-//W3C//DTD SVG 1.1//EN" "http://www.w3.org/Graphics/SVG/1.1/DTD/svg11.dtd">
<svg xmlns="http://www.w3.org/2000/svg" version="1.1" viewBox="0.00 0.00 180.00 180.00">
<g stroke-width="2.00" fill="none" stroke-linecap="butt">
<path stroke="#959da5" vector-effect="non-scaling-stroke" d="
  M 168.13 90.49
  A 77.63 77.63 0.0 0 0 90.50 12.86
  A 77.63 77.63 0.0 0 0 12.87 90.49
  A 77.63 77.63 0.0 0 0 90.50 168.12
  A 77.63 77.63 0.0 0 0 168.13 90.49"
/>
<path stroke="#75464d" vector-effect="non-scaling-stroke" d="
  M 77.62 74.92
  A 0.30 0.29 73.2 0 1 77.16 74.67
  L 77.82 46.05
  Q 77.85 44.68 76.48 44.58
  Q 66.31 43.83 57.11 48.02
  A 0.93 0.92 69.8 0 0 56.61 49.11
  Q 57.71 53.06 59.79 57.01
  C 61.47 60.19 61.38 63.98 61.31 67.49
  Q 60.64 99.32 59.84 130.13
  Q 59.75 133.39 60.03 136.48
  Q 60.08 136.96 60.55 137.05
  Q 69.29 138.75 76.83 135.05
  A 0.86 0.86 0.0 0 0 77.31 134.23
  Q 76.41 118.65 76.80 99.97
  Q 76.83 98.24 77.84 96.53
  Q 80.48 92.01 83.54 87.83
  A 0.75 0.75 0.0 0 1 84.85 88.03
  Q 92.03 109.44 101.16 128.14
  Q 103.77 133.50 107.76 138.32
  A 1.87 1.84 -22.2 0 0 109.36 138.98
  Q 117.63 138.22 124.21 132.81
  A 0.69 0.69 0.0 0 0 124.29 131.82
  Q 119.80 126.59 116.60 120.75
  Q 105.21 99.94 97.25 78.10
  Q 96.35 75.64 96.43 73.20
  Q 96.45 72.71 96.76 72.33
  Q 107.98 58.99 121.61 49.27
  A 0.59 0.59 0.0 0 0 121.65 48.34
  Q 116.10 43.71 108.99 42.24
  A 1.70 1.65 38.3 0 0 108.01 42.34
  Q 106.01 43.22 104.46 44.73
  Q 90.86 58.01 78.90 73.67
  Q 78.32 74.42 77.62 74.92"
/>
</g>
<path fill="#ffffff" d="
  M 0.00 0.00
  L 180.00 0.00
  L 180.00 180.00
  L 0.00 180.00
  L 0.00 0.00
  Z
  M 168.13 90.49
  A 77.63 77.63 0.0 0 0 90.50 12.86
  A 77.63 77.63 0.0 0 0 12.87 90.49
  A 77.63 77.63 0.0 0 0 90.50 168.12
  A 77.63 77.63 0.0 0 0 168.13 90.49
  Z"
/>
<path fill="#2a3b4b" d="
  M 168.13 90.49
  A 77.63 77.63 0.0 0 1 90.50 168.12
  A 77.63 77.63 0.0 0 1 12.87 90.49
  A 77.63 77.63 0.0 0 1 90.50 12.86
  A 77.63 77.63 0.0 0 1 168.13 90.49
  Z
  M 77.62 74.92
  A 0.30 0.29 73.2 0 1 77.16 74.67
  L 77.82 46.05
  Q 77.85 44.68 76.48 44.58
  Q 66.31 43.83 57.11 48.02
  A 0.93 0.92 69.8 0 0 56.61 49.11
  Q 57.71 53.06 59.79 57.01
  C 61.47 60.19 61.38 63.98 61.31 67.49
  Q 60.64 99.32 59.84 130.13
  Q 59.75 133.39 60.03 136.48
  Q 60.08 136.96 60.55 137.05
  Q 69.29 138.75 76.83 135.05
  A 0.86 0.86 0.0 0 0 77.31 134.23
  Q 76.41 118.65 76.80 99.97
  Q 76.83 98.24 77.84 96.53
  Q 80.48 92.01 83.54 87.83
  A 0.75 0.75 0.0 0 1 84.85 88.03
  Q 92.03 109.44 101.16 128.14
  Q 103.77 133.50 107.76 138.32
  A 1.87 1.84 -22.2 0 0 109.36 138.98
  Q 117.63 138.22 124.21 132.81
  A 0.69 0.69 0.0 0 0 124.29 131.82
  Q 119.80 126.59 116.60 120.75
  Q 105.21 99.94 97.25 78.10
  Q 96.35 75.64 96.43 73.20
  Q 96.45 72.71 96.76 72.33
  Q 107.98 58.99 121.61 49.27
  A 0.59 0.59 0.0 0 0 121.65 48.34
  Q 116.10 43.71 108.99 42.24
  A 1.70 1.65 38.3 0 0 108.01 42.34
  Q 106.01 43.22 104.46 44.73
  Q 90.86 58.01 78.90 73.67
  Q 78.32 74.42 77.62 74.92
  Z"
/>
<path fill="#c0504f" d="
  M 77.62 74.92
  Q 78.32 74.42 78.90 73.67
  Q 90.86 58.01 104.46 44.73
  Q 106.01 43.22 108.01 42.34
  A 1.70 1.65 38.3 0 1 108.99 42.24
  Q 116.10 43.71 121.65 48.34
  A 0.59 0.59 0.0 0 1 121.61 49.27
  Q 107.98 58.99 96.76 72.33
  Q 96.45 72.71 96.43 73.20
  Q 96.35 75.64 97.25 78.10
  Q 105.21 99.94 116.60 120.75
  Q 119.80 126.59 124.29 131.82
  A 0.69 0.69 0.0 0 1 124.21 132.81
  Q 117.63 138.22 109.36 138.98
  A 1.87 1.84 -22.2 0 1 107.76 138.32
  Q 103.77 133.50 101.16 128.14
  Q 92.03 109.44 84.85 88.03
  A 0.75 0.75 0.0 0 0 83.54 87.83
  Q 80.48 92.01 77.84 96.53
  Q 76.83 98.24 76.80 99.97
  Q 76.41 118.65 77.31 134.23
  A 0.86 0.86 0.0 0 1 76.83 135.05
  Q 69.29 138.75 60.55 137.05
  Q 60.08 136.96 60.03 136.48
  Q 59.75 133.39 59.84 130.13
  Q 60.64 99.32 61.31 67.49
  C 61.38 63.98 61.47 60.19 59.79 57.01
  Q 57.71 53.06 56.61 49.11
  A 0.93 0.92 69.8 0 1 57.11 48.02
  Q 66.31 43.83 76.48 44.58
  Q 77.85 44.68 77.82 46.05
  L 77.16 74.67
  A 0.30 0.29 73.2 0 0 77.62 74.92
  Z"
/>
</svg>
