<svg width="48" height="48" viewBox="0 0 48 48" fill="none" xmlns="http://www.w3.org/2000/svg">
<g clip-path="url(#clip0_2317_3826)">
<path d="M36.3235 39.1134L29.3687 32.1586C31.7658 29.7615 32.3092 26.0046 30.5724 22.9964C30.5464 22.9522 30.5204 22.908 30.497 22.8664L32.4808 20.5395C32.5666 20.6539 36.5783 25.7706 33.24 31.8622L36.1077 34.7299C36.3313 34.3919 41.9575 25.6146 35.0859 17.4872L37.0229 15.2174C42.8129 21.7043 43.1951 32.2262 36.3235 39.1134Z" fill="#FFC740"/>
<path d="M38.8458 13.0803L25.9657 28.1781C23.4646 31.1108 19.1643 26.9457 22.0372 24.3744L36.7295 11.0289C38.1152 9.82515 40.0054 11.6581 38.8458 13.0803ZM25.2092 19.3019L31.5478 11.0887C24.6658 7.64641 14.0944 9.10497 8.91016 18.0799C4.96866 24.91 6.10483 33.5392 11.6791 39.1134L18.6339 32.1586C16.2056 29.7303 15.7116 25.9707 17.4276 22.9964C19.7623 18.9561 24.1016 19.0471 25.2092 19.3019Z" fill="#00A98F"/>
</g>
<defs>
<clipPath id="clip0_2317_3826">
<rect width="48" height="48" fill="white"/>
</clipPath>
</defs>
</svg>
