<?xml version="1.0" encoding="UTF-8"?>
<!DOCTYPE svg PUBLIC "-//W3C//DTD SVG 1.1//EN" "http://www.w3.org/Graphics/SVG/1.1/DTD/svg11.dtd">
<svg xmlns="http://www.w3.org/2000/svg" version="1.1" width="48px" height="48px" style="shape-rendering:geometricPrecision; text-rendering:geometricPrecision; image-rendering:optimizeQuality; fill-rule:evenodd; clip-rule:evenodd" xmlns:xlink="http://www.w3.org/1999/xlink">
<g><path style="opacity:0.997" fill="#bedeff" d="M 0.5,-0.5 C 15.8333,-0.5 31.1667,-0.5 46.5,-0.5C 46.5,0.166667 46.8333,0.5 47.5,0.5C 47.5,3.5 47.5,6.5 47.5,9.5C 31.5,9.5 15.5,9.5 -0.5,9.5C -0.5,6.5 -0.5,3.5 -0.5,0.5C 0.166667,0.5 0.5,0.166667 0.5,-0.5 Z"/></g>
<g><path style="opacity:1" fill="#daecff" d="M -0.5,9.5 C 15.5,9.5 31.5,9.5 47.5,9.5C 47.5,17.5 47.5,25.5 47.5,33.5C 45.9284,29.3587 43.5951,25.692 40.5,22.5C 22.6343,10.4547 8.96759,14.1213 -0.5,33.5C -0.5,25.5 -0.5,17.5 -0.5,9.5 Z"/></g>
<g><path style="opacity:1" fill="#0e68ff" d="M 40.5,22.5 C 40.1667,23.5 39.5,24.1667 38.5,24.5C 36.742,24.8769 35.0754,25.5435 33.5,26.5C 32.8165,26.1373 32.1499,25.8039 31.5,25.5C 18.076,20.8785 10.076,25.5451 7.5,39.5C 4.83333,39.5 2.16667,39.5 -0.5,39.5C -0.5,37.5 -0.5,35.5 -0.5,33.5C 8.96759,14.1213 22.6343,10.4547 40.5,22.5 Z"/></g>
<g><path style="opacity:1" fill="#d6e9ff" d="M 31.5,25.5 C 31.6309,26.3764 31.2975,27.0431 30.5,27.5C 26.3806,29.0595 22.3806,30.8928 18.5,33C 16.5494,34.7342 15.5494,36.9009 15.5,39.5C 12.8333,39.5 10.1667,39.5 7.5,39.5C 10.076,25.5451 18.076,20.8785 31.5,25.5 Z"/></g>
<g><path style="opacity:1" fill="#cc6bff" d="M 40.5,22.5 C 43.5951,25.692 45.9284,29.3587 47.5,33.5C 47.5,35.5 47.5,37.5 47.5,39.5C 44.8333,39.5 42.1667,39.5 39.5,39.5C 39.8711,35.9966 38.8711,32.9966 36.5,30.5C 37.1667,28.5 37.8333,26.5 38.5,24.5C 39.5,24.1667 40.1667,23.5 40.5,22.5 Z"/></g>
<g><path style="opacity:0.971" fill="#68cbff" d="M 38.5,24.5 C 37.8333,26.5 37.1667,28.5 36.5,30.5C 34.9303,33.3135 33.5969,36.3135 32.5,39.5C 31.8159,42.8863 30.1492,45.553 27.5,47.5C 24.8333,47.5 22.1667,47.5 19.5,47.5C 16.6109,45.7226 15.2776,43.0559 15.5,39.5C 15.5494,36.9009 16.5494,34.7342 18.5,33C 22.3806,30.8928 26.3806,29.0595 30.5,27.5C 31.2975,27.0431 31.6309,26.3764 31.5,25.5C 32.1499,25.8039 32.8165,26.1373 33.5,26.5C 35.0754,25.5435 36.742,24.8769 38.5,24.5 Z"/></g>
<g><path style="opacity:1" fill="#d9e9ff" d="M 36.5,30.5 C 38.8711,32.9966 39.8711,35.9966 39.5,39.5C 37.1667,39.5 34.8333,39.5 32.5,39.5C 33.5969,36.3135 34.9303,33.3135 36.5,30.5 Z"/></g>
<g><path style="opacity:1" fill="#086bff" d="M 21.5,35.5 C 27.4877,35.664 28.821,38.164 25.5,43C 19.4034,43.1475 18.0701,40.6475 21.5,35.5 Z"/></g>
</svg>
