<?xml version="1.0" encoding="UTF-8" standalone="no"?>
<!DOCTYPE svg PUBLIC "-//W3C//DTD SVG 1.1//EN" "http://www.w3.org/Graphics/SVG/1.1/DTD/svg11.dtd">
<svg xmlns="http://www.w3.org/2000/svg" version="1.1" viewBox="0.00 0.00 128.00 128.00">
<g stroke-width="2.00" fill="none" stroke-linecap="butt">
<path stroke="#666666" vector-effect="non-scaling-stroke" d="
  M 48.62 18.02
  L 49.16 24.98"
/>
<path stroke="#a7a7a8" vector-effect="non-scaling-stroke" d="
  M 49.13 32.96
  L 40.93 32.96"
/>
<path stroke="#ddddde" vector-effect="non-scaling-stroke" d="
  M 115.99 61.84
  L 104.04 61.78"
/>
<path stroke="#8cb0e5" vector-effect="non-scaling-stroke" d="
  M 104.04 61.78
  Q 104.00 57.02 103.82 52.26
  Q 103.61 47.01 98.46 47.01
  Q 64.35 47.02 29.16 47.00
  C 26.65 47.00 24.14 48.84 24.08 51.50
  Q 23.95 56.48 24.00 61.45"
/>
<path stroke="#ddddde" vector-effect="non-scaling-stroke" d="
  M 24.00 61.45
  Q 23.20 61.75 22.49 61.81
  Q 17.10 62.29 12.02 61.52"
/>
<path stroke="#666666" vector-effect="non-scaling-stroke" d="
  M 79.95 18.49
  Q 79.12 18.88 79.00 19.75
  Q 78.81 21.06 78.91 25.00"
/>
<path stroke="#d2d2d3" vector-effect="non-scaling-stroke" d="
  M 103.97 109.98
  L 103.94 84.28"
/>
<path stroke="#f3f3f4" vector-effect="non-scaling-stroke" d="
  M 103.94 84.28
  L 103.79 62.00"
/>
<path stroke="#a7a7a8" vector-effect="non-scaling-stroke" d="
  M 87.12 32.94
  L 78.86 32.81"
/>
<path stroke="#96baef" vector-effect="non-scaling-stroke" d="
  M 104.04 61.78
  Q 103.86 61.82 103.79 62.00"
/>
<path stroke="#a2c6fa" vector-effect="non-scaling-stroke" d="
  M 103.79 62.00
  L 23.87 61.99"
/>
<path stroke="#96baef" vector-effect="non-scaling-stroke" d="
  M 23.87 61.99
  Q 24.04 62.31 24.00 61.45"
/>
<path stroke="#f3f3f4" vector-effect="non-scaling-stroke" d="
  M 23.87 61.99
  L 23.83 109.94"
/>
<path stroke="#dedede" vector-effect="non-scaling-stroke" d="
  M 103.94 84.28
  L 95.15 75.78"
/>
<path stroke="#a8a8a8" vector-effect="non-scaling-stroke" d="
  M 95.15 75.78
  Q 92.39 71.42 87.50 68.59
  A 0.34 0.34 0.0 0 0 86.99 68.88
  L 87.09 83.99"
/>
<path stroke="#dedede" vector-effect="non-scaling-stroke" d="
  M 87.09 83.99
  Q 80.28 76.34 72.28 69.51"
/>
<path stroke="#a8a8a8" vector-effect="non-scaling-stroke" d="
  M 72.28 69.51
  Q 72.37 69.18 71.94 68.85
  Q 71.55 68.55 71.14 68.80
  Q 63.87 73.07 62.63 80.50
  Q 60.50 93.36 71.46 99.71
  Q 71.89 99.96 71.89 100.46
  L 71.94 109.98"
/>
<path stroke="#e9e9ea" vector-effect="non-scaling-stroke" d="
  M 63.95 109.98
  L 64.01 104.97
  A 0.96 0.96 0.0 0 0 63.05 104.00
  L 29.96 104.00
  A 0.97 0.96 -1.9 0 0 28.99 105.03
  L 29.31 110.00"
/>
<path stroke="#878787" vector-effect="non-scaling-stroke" d="
  M 72.28 69.51
  L 72.00 84.01
  Q 71.99 84.66 72.56 84.97
  L 79.14 88.46
  Q 79.71 88.76 80.25 88.41
  L 87.09 83.99"
/>
<path stroke="#878787" vector-effect="non-scaling-stroke" d="
  M 95.15 75.78
  Q 100.75 91.96 87.55 99.67
  Q 87.11 99.93 87.11 100.43
  L 87.02 109.98"
/>
<path stroke="#96baef" vector-effect="non-scaling-stroke" d="
  M 35.26 54.17
  A 3.05 3.05 0.0 0 0 32.21 51.12
  A 3.05 3.05 0.0 0 0 29.16 54.17
  A 3.05 3.05 0.0 0 0 32.21 57.22
  A 3.05 3.05 0.0 0 0 35.26 54.17"
/>
<path stroke="#96baef" vector-effect="non-scaling-stroke" d="
  M 44.91 54.16
  A 3.07 3.07 0.0 0 0 41.84 51.09
  A 3.07 3.07 0.0 0 0 38.77 54.16
  A 3.07 3.07 0.0 0 0 41.84 57.23
  A 3.07 3.07 0.0 0 0 44.91 54.16"
/>
<path stroke="#e9e9ea" vector-effect="non-scaling-stroke" d="
  M 56.00 68.74
  A 0.74 0.74 0.0 0 0 55.26 68.00
  L 29.74 68.00
  A 0.74 0.74 0.0 0 0 29.00 68.74
  L 29.00 97.26
  A 0.74 0.74 0.0 0 0 29.74 98.00
  L 55.26 98.00
  A 0.74 0.74 0.0 0 0 56.00 97.26
  L 56.00 68.74"
/>
</g>
<path fill="#7b7b7b" d="
  M 48.62 18.02
  L 49.16 24.98
  L 49.13 32.96
  L 40.93 32.96
  L 41.07 25.69
  Q 41.08 25.18 41.44 24.83
  L 48.62 18.02
  Z"
/>
<path fill="#505050" d="
  M 48.62 18.02
  Q 69.91 17.90 79.50 18.07
  Q 79.92 18.08 79.95 18.49
  Q 79.12 18.88 79.00 19.75
  Q 78.81 21.06 78.91 25.00
  L 49.16 24.98
  L 48.62 18.02
  Z"
/>
<path fill="#7b7b7b" d="
  M 79.95 18.49
  L 86.53 24.86
  Q 86.90 25.21 86.92 25.73
  L 87.12 32.94
  L 78.86 32.81
  L 78.91 25.00
  Q 78.81 21.06 79.00 19.75
  Q 79.12 18.88 79.95 18.49
  Z"
/>
<path fill="#d3d3d4" d="
  M 78.86 32.81
  L 87.12 32.94
  L 100.82 33.04
  Q 101.39 33.04 101.79 33.44
  L 115.57 47.22
  A 1.41 1.40 23.0 0 1 115.97 48.20
  L 115.99 61.84
  L 104.04 61.78
  Q 104.00 57.02 103.82 52.26
  Q 103.61 47.01 98.46 47.01
  Q 64.35 47.02 29.16 47.00
  C 26.65 47.00 24.14 48.84 24.08 51.50
  Q 23.95 56.48 24.00 61.45
  Q 23.20 61.75 22.49 61.81
  Q 17.10 62.29 12.02 61.52
  L 12.06 48.14
  A 1.34 1.33 -23.1 0 1 12.44 47.21
  L 26.32 33.33
  A 1.17 1.13 -66.8 0 1 27.13 32.99
  L 40.93 32.96
  L 49.13 32.96
  L 78.86 32.81
  Z"
/>
<path fill="#458cf5" d="
  M 104.04 61.78
  Q 103.86 61.82 103.79 62.00
  L 23.87 61.99
  Q 24.04 62.31 24.00 61.45
  Q 23.95 56.48 24.08 51.50
  C 24.14 48.84 26.65 47.00 29.16 47.00
  Q 64.35 47.02 98.46 47.01
  Q 103.61 47.01 103.82 52.26
  Q 104.00 57.02 104.04 61.78
  Z
  M 35.26 54.17
  A 3.05 3.05 0.0 0 0 32.21 51.12
  A 3.05 3.05 0.0 0 0 29.16 54.17
  A 3.05 3.05 0.0 0 0 32.21 57.22
  A 3.05 3.05 0.0 0 0 35.26 54.17
  Z
  M 44.91 54.16
  A 3.07 3.07 0.0 0 0 41.84 51.09
  A 3.07 3.07 0.0 0 0 38.77 54.16
  A 3.07 3.07 0.0 0 0 41.84 57.23
  A 3.07 3.07 0.0 0 0 44.91 54.16
  Z"
/>
<circle fill="#e6e7e8" cx="32.21" cy="54.17" r="3.05"/>
<circle fill="#e6e7e8" cx="41.84" cy="54.16" r="3.07"/>
<path fill="#e6e7e8" d="
  M 12.02 61.52
  Q 17.10 62.29 22.49 61.81
  Q 23.20 61.75 24.00 61.45
  Q 24.04 62.31 23.87 61.99
  L 23.83 109.94
  C 18.86 110.27 14.96 110.19 12.84 106.08
  Q 12.01 104.47 12.01 100.78
  Q 11.98 80.89 12.02 61.52
  Z"
/>
<path fill="#e6e7e8" d="
  M 104.04 61.78
  L 115.99 61.84
  Q 116.03 81.55 115.98 101.37
  Q 115.97 104.51 115.20 106.02
  C 112.81 110.68 108.37 110.03 103.97 109.98
  L 103.94 84.28
  L 103.79 62.00
  Q 103.86 61.82 104.04 61.78
  Z"
/>
<path fill="#ffffff" d="
  M 23.87 61.99
  L 103.79 62.00
  L 103.94 84.28
  L 95.15 75.78
  Q 92.39 71.42 87.50 68.59
  A 0.34 0.34 0.0 0 0 86.99 68.88
  L 87.09 83.99
  Q 80.28 76.34 72.28 69.51
  Q 72.37 69.18 71.94 68.85
  Q 71.55 68.55 71.14 68.80
  Q 63.87 73.07 62.63 80.50
  Q 60.50 93.36 71.46 99.71
  Q 71.89 99.96 71.89 100.46
  L 71.94 109.98
  L 63.95 109.98
  L 64.01 104.97
  A 0.96 0.96 0.0 0 0 63.05 104.00
  L 29.96 104.00
  A 0.97 0.96 -1.9 0 0 28.99 105.03
  L 29.31 110.00
  L 23.83 109.94
  L 23.87 61.99
  Z
  M 56.00 68.74
  A 0.74 0.74 0.0 0 0 55.26 68.00
  L 29.74 68.00
  A 0.74 0.74 0.0 0 0 29.00 68.74
  L 29.00 97.26
  A 0.74 0.74 0.0 0 0 29.74 98.00
  L 55.26 98.00
  A 0.74 0.74 0.0 0 0 56.00 97.26
  L 56.00 68.74
  Z"
/>
<rect fill="#d3d3d4" x="29.00" y="68.00" width="27.00" height="30.00" rx="0.74"/>
<path fill="#505050" d="
  M 72.28 69.51
  L 72.00 84.01
  Q 71.99 84.66 72.56 84.97
  L 79.14 88.46
  Q 79.71 88.76 80.25 88.41
  L 87.09 83.99
  L 86.99 68.88
  A 0.34 0.34 0.0 0 1 87.50 68.59
  Q 92.39 71.42 95.15 75.78
  Q 100.75 91.96 87.55 99.67
  Q 87.11 99.93 87.11 100.43
  L 87.02 109.98
  L 71.94 109.98
  L 71.89 100.46
  Q 71.89 99.96 71.46 99.71
  Q 60.50 93.36 62.63 80.50
  Q 63.87 73.07 71.14 68.80
  Q 71.55 68.55 71.94 68.85
  Q 72.37 69.18 72.28 69.51
  Z"
/>
<path fill="#bdbdbd" d="
  M 87.09 83.99
  L 80.25 88.41
  Q 79.71 88.76 79.14 88.46
  L 72.56 84.97
  Q 71.99 84.66 72.00 84.01
  L 72.28 69.51
  Q 80.28 76.34 87.09 83.99
  Z"
/>
<path fill="#bdbdbd" d="
  M 95.15 75.78
  L 103.94 84.28
  L 103.97 109.98
  L 87.02 109.98
  L 87.11 100.43
  Q 87.11 99.93 87.55 99.67
  Q 100.75 91.96 95.15 75.78
  Z"
/>
<path fill="#d3d3d4" d="
  M 63.95 109.98
  L 29.31 110.00
  L 28.99 105.03
  A 0.97 0.96 -1.9 0 1 29.96 104.00
  L 63.05 104.00
  A 0.96 0.96 0.0 0 1 64.01 104.97
  L 63.95 109.98
  Z"
/>
</svg>
