<?xml version="1.0" encoding="UTF-8"?>
<!DOCTYPE svg PUBLIC "-//W3C//DTD SVG 1.1//EN" "http://www.w3.org/Graphics/SVG/1.1/DTD/svg11.dtd">
<svg xmlns="http://www.w3.org/2000/svg" version="1.1" width="1378px" height="224px" style="shape-rendering:geometricPrecision; text-rendering:geometricPrecision; image-rendering:optimizeQuality; fill-rule:evenodd; clip-rule:evenodd" xmlns:xlink="http://www.w3.org/1999/xlink">
<g><path style="opacity:1" fill="#111317" d="M -0.5,-0.5 C 458.833,-0.5 918.167,-0.5 1377.5,-0.5C 1377.5,74.1667 1377.5,148.833 1377.5,223.5C 918.167,223.5 458.833,223.5 -0.5,223.5C -0.5,148.833 -0.5,74.1667 -0.5,-0.5 Z"/></g>
<g><path style="opacity:1" fill="#e96f3b" d="M 79.5,27.5 C 127.834,27.3333 176.168,27.5 224.5,28C 270.904,30.2665 300.071,53.7665 312,98.5C 317.817,143.368 300.984,176.534 261.5,198C 244.897,205.087 227.563,208.254 209.5,207.5C 162.648,205.491 119.315,192.324 79.5,168C 73.3959,163.863 67.5626,159.363 62,154.5C 59.8489,151.784 60.0155,149.284 62.5,147C 80.5,146.667 98.5,146.333 116.5,146C 118.283,144.933 118.783,143.433 118,141.5C 92.0892,128.133 66.9226,113.633 42.5,98C 32.1614,90.8982 22.6614,82.7316 14,73.5C 13.0819,70.9369 13.5819,68.7702 15.5,67C 52.8749,66.8271 90.2082,66.3271 127.5,65.5C 130.191,63.0018 129.858,60.8351 126.5,59C 111.029,53.2647 96.3627,45.9314 82.5,37C 78.67,34.6582 77.67,31.4916 79.5,27.5 Z"/></g>
<g><path style="opacity:1" fill="#121317" d="M 215.5,53.5 C 247.356,51.5074 270.189,64.8407 284,93.5C 292.932,122.556 286.098,147.056 263.5,167C 243.567,180.539 222.233,183.206 199.5,175C 170.371,160.586 157.537,137.086 161,104.5C 168.763,76.2297 186.93,59.2297 215.5,53.5 Z"/></g>
<g><path style="opacity:1" fill="#fbfbfc" d="M 480.5,68.5 C 480.826,77.0168 480.493,85.3501 479.5,93.5C 454.445,82.4128 428.445,79.2461 401.5,84C 394.894,86.2534 392.727,90.7534 395,97.5C 396.41,98.7875 397.91,99.9542 399.5,101C 418.739,103.991 438.072,106.324 457.5,108C 480.319,112.149 489.819,125.649 486,148.5C 480.632,161.531 471.132,170.031 457.5,174C 434.678,179.106 412.011,178.439 389.5,172C 381.881,169.524 374.881,166.024 368.5,161.5C 368.174,152.983 368.507,144.65 369.5,136.5C 392.425,149.712 417.091,154.879 443.5,152C 448.107,151.266 452.441,149.766 456.5,147.5C 462.263,141.484 461.596,136.318 454.5,132C 436.587,129.349 418.587,127.349 400.5,126C 389.859,124.351 380.692,119.851 373,112.5C 361.577,92.3588 365.744,76.1922 385.5,64C 399.806,57.4494 414.806,55.1161 430.5,57C 448.087,57.0943 464.753,60.9276 480.5,68.5 Z"/></g>
<g><path style="opacity:1" fill="#fbfcfc" d="M 1145.5,56.5 C 1170.33,54.9002 1194.16,58.9002 1217,68.5C 1217.67,77.1667 1217.67,85.8333 1217,94.5C 1198.29,85.2575 1178.46,80.9241 1157.5,81.5C 1148.27,80.7762 1139.77,82.7762 1132,87.5C 1129.04,95.0743 1131.54,99.9076 1139.5,102C 1157.47,104.131 1175.47,106.131 1193.5,108C 1221.35,114.873 1229.52,131.373 1218,157.5C 1210.87,166.992 1201.37,172.826 1189.5,175C 1161.65,180.801 1134.98,177.468 1109.5,165C 1107.91,163.954 1106.41,162.787 1105,161.5C 1104.33,152.833 1104.33,144.167 1105,135.5C 1129.85,150.483 1156.69,155.65 1185.5,151C 1189.86,149.628 1193.36,147.128 1196,143.5C 1197.35,137.156 1194.85,132.989 1188.5,131C 1169.79,129.396 1151.12,127.396 1132.5,125C 1110.42,120.265 1100.92,106.765 1104,84.5C 1108.56,72.9355 1116.73,65.1022 1128.5,61C 1134.21,59.1657 1139.88,57.6657 1145.5,56.5 Z"/></g>
<g><path style="opacity:1" fill="#c1c2c3" d="M 505.5,60.5 C 540.996,59.5016 576.663,59.1683 612.5,59.5C 612.5,67.5 612.5,75.5 612.5,83.5C 585.5,83.5 558.5,83.5 531.5,83.5C 557.995,82.5021 584.661,82.1688 611.5,82.5C 611.5,75.1667 611.5,67.8333 611.5,60.5C 576.167,60.5 540.833,60.5 505.5,60.5 Z"/></g>
<g><path style="opacity:1" fill="#fefffe" d="M 505.5,60.5 C 540.833,60.5 576.167,60.5 611.5,60.5C 611.5,67.8333 611.5,75.1667 611.5,82.5C 584.661,82.1688 557.995,82.5021 531.5,83.5C 531.5,90.5 531.5,97.5 531.5,104.5C 557.833,104.5 584.167,104.5 610.5,104.5C 610.5,112.167 610.5,119.833 610.5,127.5C 584.167,127.5 557.833,127.5 531.5,127.5C 531.5,135.167 531.5,142.833 531.5,150.5C 557.995,151.498 584.661,151.831 611.5,151.5C 611.5,159.167 611.5,166.833 611.5,174.5C 576.167,174.5 540.833,174.5 505.5,174.5C 505.5,136.5 505.5,98.5 505.5,60.5 Z"/></g>
<g><path style="opacity:1" fill="#fdfdfd" d="M 747.5,61.5 C 763.422,60.5159 779.422,60.1825 795.5,60.5C 795.5,98.5 795.5,136.5 795.5,174.5C 786.833,174.5 778.167,174.5 769.5,174.5C 769.833,143.16 769.5,111.826 768.5,80.5C 767.914,80.7093 767.414,81.0426 767,81.5C 757.134,112.266 746.967,142.933 736.5,173.5C 722.182,174.499 707.849,174.833 693.5,174.5C 684.336,142.676 674.003,111.343 662.5,80.5C 661.5,111.826 661.167,143.16 661.5,174.5C 652.833,174.5 644.167,174.5 635.5,174.5C 635.5,136.167 635.5,97.8333 635.5,59.5C 652.077,59.1751 668.577,59.5084 685,60.5C 695.005,92.6817 705.505,124.682 716.5,156.5C 727.037,124.888 737.371,93.2211 747.5,61.5 Z"/></g>
<g><path style="opacity:1" fill="#fcfcfd" d="M 822.5,59.5 C 852.502,59.3334 882.502,59.5 912.5,60C 929.43,62.0376 940.263,71.2043 945,87.5C 948.645,111.89 938.812,127.89 915.5,135.5C 925.333,147.167 935.167,158.833 945,170.5C 945.49,171.793 945.657,173.127 945.5,174.5C 935.161,174.666 924.828,174.5 914.5,174C 903.978,161.646 893.645,149.146 883.5,136.5C 872.186,135.501 860.853,135.168 849.5,135.5C 849.5,148.5 849.5,161.5 849.5,174.5C 840.5,174.5 831.5,174.5 822.5,174.5C 822.5,136.167 822.5,97.8333 822.5,59.5 Z"/></g>
<g><path style="opacity:1" fill="#fdfdfd" d="M 989.5,122.5 C 991.611,142.278 1002.61,152.278 1022.5,152.5C 1042.92,152.747 1054.25,142.747 1056.5,122.5C 1057.5,102.007 1057.83,81.3401 1057.5,60.5C 1066.5,60.5 1075.5,60.5 1084.5,60.5C 1084.92,84.8645 1084.42,109.198 1083,133.5C 1074.39,163.419 1054.39,178.085 1023,177.5C 1000.99,178.493 983.658,170.16 971,152.5C 965.832,143.499 962.999,133.832 962.5,123.5C 962.5,102.5 962.5,81.5 962.5,60.5C 971.167,60.5 979.833,60.5 988.5,60.5C 988.169,81.3401 988.503,102.007 989.5,122.5 Z"/></g>
<g><path style="opacity:1" fill="#b0b1b2" d="M 1084.5,60.5 C 1075.5,60.5 1066.5,60.5 1057.5,60.5C 1057.83,81.3401 1057.5,102.007 1056.5,122.5C 1056.5,101.5 1056.5,80.5 1056.5,59.5C 1066.01,59.1731 1075.35,59.5064 1084.5,60.5 Z"/></g>
<g><path style="opacity:1" fill="#fefefe" d="M 1268.5,102.5 C 1291.66,103.498 1314.99,103.831 1338.5,103.5C 1338.5,89.1667 1338.5,74.8333 1338.5,60.5C 1346.83,60.5 1355.17,60.5 1363.5,60.5C 1363.5,98.5 1363.5,136.5 1363.5,174.5C 1355.17,174.5 1346.83,174.5 1338.5,174.5C 1338.5,159.5 1338.5,144.5 1338.5,129.5C 1315.17,129.5 1291.83,129.5 1268.5,129.5C 1268.5,144.5 1268.5,159.5 1268.5,174.5C 1259.17,174.5 1249.83,174.5 1240.5,174.5C 1240.5,136.167 1240.5,97.8333 1240.5,59.5C 1249.83,59.5 1259.17,59.5 1268.5,59.5C 1268.5,73.8333 1268.5,88.1667 1268.5,102.5 Z"/></g>
<g><path style="opacity:1" fill="#c4c4c5" d="M 989.5,122.5 C 988.503,102.007 988.169,81.3401 988.5,60.5C 979.833,60.5 971.167,60.5 962.5,60.5C 962.5,81.5 962.5,102.5 962.5,123.5C 961.503,102.34 961.169,81.0065 961.5,59.5C 970.833,59.5 980.167,59.5 989.5,59.5C 989.5,80.5 989.5,101.5 989.5,122.5 Z"/></g>
<g><path style="opacity:1" fill="#e76e3b" d="M 220.5,70.5 C 252.853,71.0226 270.02,87.3559 272,119.5C 271.097,120.701 269.931,121.535 268.5,122C 264.167,122.667 259.833,122.667 255.5,122C 253.194,116.741 251.361,111.241 250,105.5C 243.589,94.034 233.756,87.7007 220.5,86.5C 217.837,81.1459 217.837,75.8125 220.5,70.5 Z"/></g>
<g><path style="opacity:1" fill="#747577" d="M 480.5,68.5 C 481.821,77.0088 481.821,85.6755 480.5,94.5C 479.893,94.3764 479.56,94.0431 479.5,93.5C 480.493,85.3501 480.826,77.0168 480.5,68.5 Z"/></g>
<g><path style="opacity:1" fill="#111317" d="M 850.5,83.5 C 870.567,83.0359 890.567,83.5359 910.5,85C 919.771,89.8926 921.938,97.0593 917,106.5C 914.448,109.359 911.281,111.026 907.5,111.5C 888.5,111.5 869.5,111.5 850.5,111.5C 850.5,102.167 850.5,92.8333 850.5,83.5 Z"/></g>
<g><path style="opacity:1" fill="#adaeaf" d="M 1338.5,60.5 C 1338.5,60.1667 1338.5,59.8333 1338.5,59.5C 1347.17,59.5 1355.83,59.5 1364.5,59.5C 1364.83,98.0036 1364.5,136.337 1363.5,174.5C 1363.5,136.5 1363.5,98.5 1363.5,60.5C 1355.17,60.5 1346.83,60.5 1338.5,60.5 Z"/></g>
<g><path style="opacity:1" fill="#505154" d="M 1338.5,59.5 C 1338.5,59.8333 1338.5,60.1667 1338.5,60.5C 1338.5,74.8333 1338.5,89.1667 1338.5,103.5C 1314.99,103.831 1291.66,103.498 1268.5,102.5C 1291.5,102.5 1314.5,102.5 1337.5,102.5C 1337.17,87.9903 1337.5,73.6569 1338.5,59.5 Z"/></g>
<g><path style="opacity:1" fill="#dbdcdc" d="M 795.5,174.5 C 795.5,136.5 795.5,98.5 795.5,60.5C 779.422,60.1825 763.422,60.5159 747.5,61.5C 763.466,59.5149 779.799,58.8482 796.5,59.5C 796.832,98.0036 796.499,136.337 795.5,174.5 Z"/></g>
<g><path style="opacity:1" fill="#838486" d="M 850.5,83.5 C 850.5,92.8333 850.5,102.167 850.5,111.5C 869.5,111.5 888.5,111.5 907.5,111.5C 888.341,112.497 869.007,112.83 849.5,112.5C 849.173,102.652 849.506,92.9856 850.5,83.5 Z"/></g>
<g><path style="opacity:1" fill="#4b4c4f" d="M 610.5,127.5 C 584.672,128.498 558.672,128.831 532.5,128.5C 532.5,135.833 532.5,143.167 532.5,150.5C 532.167,150.5 531.833,150.5 531.5,150.5C 531.5,142.833 531.5,135.167 531.5,127.5C 557.833,127.5 584.167,127.5 610.5,127.5 Z"/></g>
<g><path style="opacity:1" fill="#9c9d9f" d="M 369.5,136.5 C 368.507,144.65 368.174,152.983 368.5,161.5C 367.179,152.991 367.179,144.325 368.5,135.5C 369.107,135.624 369.44,135.957 369.5,136.5 Z"/></g>
<g><path style="opacity:1" fill="#909193" d="M 531.5,150.5 C 531.833,150.5 532.167,150.5 532.5,150.5C 559.167,150.5 585.833,150.5 612.5,150.5C 612.826,158.684 612.492,166.684 611.5,174.5C 611.5,166.833 611.5,159.167 611.5,151.5C 584.661,151.831 557.995,151.498 531.5,150.5 Z"/></g>
</svg>
