<?xml version="1.0" encoding="UTF-8" standalone="no"?>
<!DOCTYPE svg PUBLIC "-//W3C//DTD SVG 1.1//EN" "http://www.w3.org/Graphics/SVG/1.1/DTD/svg11.dtd">
<svg xmlns="http://www.w3.org/2000/svg" version="1.1" viewBox="0.00 0.00 180.00 180.00">
<g stroke-width="2.00" fill="none" stroke-linecap="butt">
<path stroke="#ffb296" vector-effect="non-scaling-stroke" d="
  M 75.75 67.77
  A 1.58 1.58 0.0 0 1 74.29 68.75
  L 28.74 68.75
  A 1.50 1.50 0.0 0 0 27.24 70.20
  Q 27.19 71.57 28.17 72.53
  Q 33.33 77.58 38.79 81.34
  Q 52.28 90.61 70.23 99.42
  Q 71.29 99.94 71.24 101.15
  A 1.45 1.44 0.8 0 1 69.80 102.54
  Q 59.24 102.61 48.75 102.56
  Q 46.03 102.55 47.72 105.53
  A 1.50 1.47 -85.1 0 0 48.05 105.93
  Q 52.13 109.51 56.86 112.30
  C 72.43 121.46 90.38 127.26 108.83 127.94
  Q 119.28 128.33 127.51 125.49
  C 148.70 118.18 158.98 94.31 149.79 73.74
  C 143.61 59.92 129.34 52.55 114.94 52.49
  Q 84.68 52.36 55.76 52.45
  Q 54.37 52.46 54.34 54.06
  A 1.51 1.51 0.0 0 0 55.01 55.35
  Q 63.74 61.17 74.68 65.46
  Q 76.42 66.14 75.75 67.77"
/>
<path stroke="#ffb296" vector-effect="non-scaling-stroke" d="
  M 142.52 89.82
  A 26.78 26.78 0.0 0 0 115.74 63.04
  A 26.78 26.78 0.0 0 0 88.96 89.82
  A 26.78 26.78 0.0 0 0 115.74 116.60
  A 26.78 26.78 0.0 0 0 142.52 89.82"
/>
<path stroke="#ffb296" vector-effect="non-scaling-stroke" d="
  M 115.66 77.68
  C 123.63 78.41 126.72 83.46 127.99 90.75
  A 1.76 1.75 0.7 0 0 129.39 92.18
  C 131.39 92.56 135.92 93.10 135.85 89.88
  C 135.62 78.71 126.83 70.49 115.66 70.36
  Q 113.72 70.34 113.53 72.26
  Q 113.35 73.99 113.54 75.63
  Q 113.77 77.51 115.66 77.68"
/>
</g>
<path fill="#ff642d" d="
  M 0.00 0.00
  L 180.00 0.00
  L 180.00 180.00
  L 0.00 180.00
  L 0.00 0.00
  Z
  M 75.75 67.77
  A 1.58 1.58 0.0 0 1 74.29 68.75
  L 28.74 68.75
  A 1.50 1.50 0.0 0 0 27.24 70.20
  Q 27.19 71.57 28.17 72.53
  Q 33.33 77.58 38.79 81.34
  Q 52.28 90.61 70.23 99.42
  Q 71.29 99.94 71.24 101.15
  A 1.45 1.44 0.8 0 1 69.80 102.54
  Q 59.24 102.61 48.75 102.56
  Q 46.03 102.55 47.72 105.53
  A 1.50 1.47 -85.1 0 0 48.05 105.93
  Q 52.13 109.51 56.86 112.30
  C 72.43 121.46 90.38 127.26 108.83 127.94
  Q 119.28 128.33 127.51 125.49
  C 148.70 118.18 158.98 94.31 149.79 73.74
  C 143.61 59.92 129.34 52.55 114.94 52.49
  Q 84.68 52.36 55.76 52.45
  Q 54.37 52.46 54.34 54.06
  A 1.51 1.51 0.0 0 0 55.01 55.35
  Q 63.74 61.17 74.68 65.46
  Q 76.42 66.14 75.75 67.77
  Z"
/>
<path fill="#ffffff" d="
  M 75.75 67.77
  Q 76.42 66.14 74.68 65.46
  Q 63.74 61.17 55.01 55.35
  A 1.51 1.51 0.0 0 1 54.34 54.06
  Q 54.37 52.46 55.76 52.45
  Q 84.68 52.36 114.94 52.49
  C 129.34 52.55 143.61 59.92 149.79 73.74
  C 158.98 94.31 148.70 118.18 127.51 125.49
  Q 119.28 128.33 108.83 127.94
  C 90.38 127.26 72.43 121.46 56.86 112.30
  Q 52.13 109.51 48.05 105.93
  A 1.50 1.47 -85.1 0 1 47.72 105.53
  Q 46.03 102.55 48.75 102.56
  Q 59.24 102.61 69.80 102.54
  A 1.45 1.44 0.8 0 0 71.24 101.15
  Q 71.29 99.94 70.23 99.42
  Q 52.28 90.61 38.79 81.34
  Q 33.33 77.58 28.17 72.53
  Q 27.19 71.57 27.24 70.20
  A 1.50 1.50 0.0 0 1 28.74 68.75
  L 74.29 68.75
  A 1.58 1.58 0.0 0 0 75.75 67.77
  Z
  M 142.52 89.82
  A 26.78 26.78 0.0 0 0 115.74 63.04
  A 26.78 26.78 0.0 0 0 88.96 89.82
  A 26.78 26.78 0.0 0 0 115.74 116.60
  A 26.78 26.78 0.0 0 0 142.52 89.82
  Z"
/>
<path fill="#ff642d" d="
  M 142.52 89.82
  A 26.78 26.78 0.0 0 1 115.74 116.60
  A 26.78 26.78 0.0 0 1 88.96 89.82
  A 26.78 26.78 0.0 0 1 115.74 63.04
  A 26.78 26.78 0.0 0 1 142.52 89.82
  Z
  M 115.66 77.68
  C 123.63 78.41 126.72 83.46 127.99 90.75
  A 1.76 1.75 0.7 0 0 129.39 92.18
  C 131.39 92.56 135.92 93.10 135.85 89.88
  C 135.62 78.71 126.83 70.49 115.66 70.36
  Q 113.72 70.34 113.53 72.26
  Q 113.35 73.99 113.54 75.63
  Q 113.77 77.51 115.66 77.68
  Z"
/>
<path fill="#ffffff" d="
  M 127.99 90.75
  C 126.72 83.46 123.63 78.41 115.66 77.68
  Q 113.77 77.51 113.54 75.63
  Q 113.35 73.99 113.53 72.26
  Q 113.72 70.34 115.66 70.36
  C 126.83 70.49 135.62 78.71 135.85 89.88
  C 135.92 93.10 131.39 92.56 129.39 92.18
  A 1.76 1.75 0.7 0 1 127.99 90.75
  Z"
/>
</svg>
