<?xml version="1.0" encoding="UTF-8" standalone="no"?>
<!DOCTYPE svg PUBLIC "-//W3C//DTD SVG 1.1//EN" "http://www.w3.org/Graphics/SVG/1.1/DTD/svg11.dtd">
<svg xmlns="http://www.w3.org/2000/svg" version="1.1" viewBox="0.00 0.00 1360.00 1358.00">

<path fill="#f05011" d="   M 1194.12 924.04   C 1194.03 923.59 1193.95 923.09 1194.13 922.64   Q 1201.27 904.87 1207.40 886.72   Q 1208.04 884.82 1208.59 882.90   Q 1211.19 874.59 1213.71 866.22   Q 1220.96 842.11 1227.27 817.74   C 1227.76 815.87 1227.99 814.03 1228.46 812.17   Q 1230.87 802.46 1233.04 790.70   Q 1239.58 755.35 1242.68 721.21   C 1246.53 678.81 1244.60 634.31 1239.31 591.38   Q 1237.54 576.95 1234.96 564.13   Q 1222.80 503.67 1197.69 446.38   Q 1157.43 354.54 1086.35 281.95   C 1064.24 259.38 1040.95 238.42 1015.82 219.69   Q 1001.91 209.32 986.26 198.78   Q 970.67 188.28 933.15 167.40   Q 926.55 163.72 900.30 152.20   Q 870.23 139.00 833.95 128.08   Q 807.56 120.14 785.36 115.99   Q 755.81 110.46 728.11 107.85   Q 718.24 106.92 708.58 106.55   Q 663.86 104.87 625.88 108.38   Q 607.68 110.06 587.23 113.65   Q 491.04 130.52 406.31 176.69   Q 396.90 181.82 377.33 193.77   Q 368.60 199.09 360.60 204.74   Q 335.76 222.26 314.80 239.90   Q 287.03 263.26 263.90 288.66   C 252.43 301.26 239.54 316.00 228.66 330.39   Q 203.13 364.19 182.62 401.83   C 168.21 428.27 155.50 455.20 145.89 482.88   C 132.90 520.27 122.97 559.16 118.32 599.69   Q 108.74 683.02 119.78 764.25   Q 121.89 779.75 125.92 799.96   Q 128.00 810.32 130.28 819.50   Q 139.57 856.91 152.30 892.20   C 155.86 902.09 159.35 912.16 163.79 921.51   Q 165.13 924.33 163.11 926.33   Q 134.84 954.35 112.34 975.83   Q 102.30 985.42 92.72 995.47   Q 92.39 995.82 91.97 996.05   A 0.79 0.78 -30.2 0 1 90.92 995.78   Q 88.60 992.04 86.45 987.92   Q 72.92 961.87 59.65 930.59   C 50.92 910.00 43.36 887.94 36.72 865.86   Q 19.21 807.65 12.84 753.19   C 9.40 723.70 8.43 690.14 8.81 656.55   Q 9.14 627.17 12.73 598.37   Q 14.16 586.95 16.53 569.50   Q 17.98 558.84 19.89 549.67   Q 24.70 526.57 30.38 504.65   C 34.25 489.68 39.12 475.41 43.84 460.83   C 52.53 433.95 63.61 408.28 77.17 380.62   Q 95.12 343.97 112.51 317.92   Q 128.45 294.02 144.85 271.04   Q 151.98 261.05 161.13 250.25   Q 185.65 221.28 209.08 197.79   Q 229.87 176.94 248.59 161.24   Q 266.03 146.61 290.54 128.98   Q 298.38 123.34 307.21 117.66   Q 341.89 95.39 371.97 79.72   Q 418.04 55.73 470.95 38.13   Q 482.14 34.41 501.00 28.90   Q 510.89 26.01 520.36 23.73   Q 551.48 16.26 574.59 12.07   Q 600.30 7.42 634.07 4.74   Q 644.09 3.95 653.93 3.57   C 717.84 1.11 782.31 8.39 844.57 25.00   Q 862.81 29.87 890.14 38.87   C 917.70 47.96 944.54 59.70 972.77 73.33   Q 990.90 82.08 1005.05 90.47   C 1022.08 100.57 1038.85 110.45 1054.88 121.57   Q 1087.20 143.99 1110.53 163.56   Q 1150.68 197.25 1190.59 243.73   Q 1200.75 255.57 1210.66 269.18   C 1230.81 296.86 1249.75 324.21 1265.96 353.88   Q 1284.61 388.03 1300.05 425.72   C 1304.88 437.52 1309.22 450.14 1313.76 462.20   Q 1316.09 468.38 1318.19 475.08   C 1320.00 480.89 1322.00 486.64 1323.62 492.51   C 1327.27 505.80 1331.41 519.02 1334.54 532.67   Q 1354.81 620.97 1348.68 712.55   Q 1345.60 758.38 1336.51 802.02   Q 1324.82 858.09 1306.40 910.11   Q 1303.36 918.69 1299.15 928.52   Q 1293.17 942.52 1287.80 954.86   Q 1279.87 973.11 1268.28 994.48   A 1.32 1.32 0.0 0 1 1266.19 994.79   L 1194.12 924.04   Z"/>

<path fill="#458ed6" d="   M 1000.00 753.78   L 998.15 758.78   Q 997.66 760.65 996.76 760.50   Q 992.76 759.84 982.50 759.43   Q 969.85 758.92 959.96 761.83   Q 959.24 761.98 959.20 761.94   A 1.95 1.78 -58.1 0 1 958.82 759.87   C 961.61 753.01 963.94 746.10 967.23 739.58   C 971.51 731.09 974.34 722.34 977.17 713.20   C 980.98 700.87 983.60 688.28 986.38 675.84   C 987.30 671.71 987.27 667.53 988.74 663.44   Q 992.98 651.56 1007.67 651.30   Q 1022.00 651.05 1037.39 651.08   A 0.69 0.68 -0.4 0 0 1038.08 650.39   L 1037.84 557.58   A 0.90 0.89 88.8 0 0 1036.91 556.68   Q 1020.12 557.29 1002.92 556.70   C 989.49 556.24 987.91 545.26 986.36 534.77   C 985.23 527.16 983.38 519.85 981.75 512.27   Q 980.50 506.48 978.59 501.05   Q 970.98 479.40 962.16 461.57   Q 957.72 452.59 951.74 444.07   Q 951.47 443.69 951.06 443.48   Q 950.58 443.24 950.72 442.78   Q 949.32 440.53 947.54 438.39   C 944.77 434.54 941.82 430.87 939.91 426.20   C 937.76 420.93 938.86 415.74 941.88 410.99   C 945.87 404.69 952.65 400.33 959.01 396.43   Q 959.45 396.16 959.59 395.67   Q 960.09 393.89 958.57 392.22   Q 925.42 355.74 889.20 322.06   A 0.73 0.73 0.0 0 0 888.13 322.15   Q 885.14 326.01 881.84 329.99   C 877.65 335.07 870.04 341.38 863.16 340.69   Q 857.62 340.13 853.75 337.48   C 845.26 331.67 837.30 325.94 827.92 320.49   Q 818.00 314.74 814.67 313.08   C 796.80 304.17 777.65 296.23 758.34 291.36   Q 747.42 288.61 734.10 286.05   C 725.32 284.36 717.26 281.23 717.28 271.02   Q 717.30 257.87 717.46 245.34   A 0.40 0.40 0.0 0 0 717.06 244.94   C 687.36 245.03 660.87 244.71 628.22 245.08   Q 627.55 245.09 627.54 245.77   Q 627.36 255.95 627.58 268.64   C 627.70 275.85 623.83 283.79 616.10 284.97   Q 597.27 287.86 582.15 292.17   Q 548.15 301.87 516.31 320.23   C 507.10 325.55 498.93 332.52 489.49 337.42   C 475.90 344.47 463.66 334.76 457.69 322.87   A 2.05 2.05 0.0 0 0 454.43 322.32   Q 442.09 334.32 428.91 346.85   Q 410.15 364.69 386.71 389.96   Q 385.14 391.64 383.87 393.54   C 382.54 395.53 384.14 397.28 385.74 398.28   C 392.34 402.37 397.15 406.00 401.39 412.83   C 406.03 420.30 402.93 425.52 397.88 432.25   Q 376.05 461.34 365.62 496.85   C 364.38 501.06 362.96 505.23 362.00 509.51   Q 358.16 525.16 355.86 541.05   Q 354.47 550.58 346.48 554.71   C 343.71 556.14 340.15 556.58 337.04 556.68   Q 324.70 557.07 309.24 556.73   Q 305.98 556.65 305.94 559.95   Q 305.34 605.17 306.14 650.32   A 0.59 0.58 -86.6 0 0 306.64 650.89   Q 308.14 651.10 309.60 651.15   Q 321.37 651.50 331.85 651.22   Q 341.48 650.97 345.76 652.78   Q 353.51 656.05 355.63 665.60   C 358.60 679.07 361.04 692.85 365.14 706.21   Q 368.65 717.66 374.68 731.90   Q 384.15 754.23 399.63 775.45   C 403.57 780.85 404.68 787.21 401.02 793.26   C 397.92 798.38 392.58 801.82 387.81 805.38   Q 385.94 806.76 384.50 808.81   Q 384.20 809.23 384.42 809.70   Q 386.05 813.13 387.65 814.79   Q 400.07 827.59 434.77 863.41   Q 442.64 871.55 451.73 881.17   Q 453.20 882.72 455.17 884.25   A 1.71 1.70 -51.1 0 0 457.53 883.99   C 462.26 878.35 467.71 868.22 475.32 866.09   Q 477.55 865.47 481.77 865.02   Q 485.79 864.97 487.27 865.59   Q 492.04 867.61 498.90 872.32   Q 505.91 877.12 513.14 881.72   C 530.04 892.46 547.22 900.24 565.85 906.36   Q 582.49 911.82 588.32 913.12   Q 599.36 915.57 611.25 918.26   C 618.72 919.95 626.81 922.98 627.04 931.85   Q 627.52 950.26 627.59 967.59   A 0.93 0.93 0.0 0 0 628.52 968.52   L 717.44 968.97   A 0.56 0.56 0.0 0 0 718.00 968.41   Q 717.95 952.36 718.05 934.90   Q 718.09 928.33 719.72 925.34   Q 722.85 919.59 729.73 918.53   Q 739.18 917.08 748.13 915.36   C 757.80 913.49 767.81 910.13 777.67 907.63   Q 783.19 906.24 788.96 904.67   Q 784.68 909.73 781.07 914.57   Q 770.31 929.02 766.46 947.01   Q 765.41 951.93 765.37 956.43   Q 765.25 969.78 765.57 983.79   Q 765.70 989.28 764.28 994.46   Q 759.60 1011.63 743.76 1021.63   Q 735.30 1026.98 723.85 1026.93   Q 669.87 1026.67 619.74 1026.74   C 604.72 1026.76 591.89 1016.95 584.82 1004.01   C 581.10 997.20 580.06 988.74 580.09 980.09   Q 580.13 965.52 580.02 948.66   A 1.67 1.67 0.0 0 0 579.20 947.24   Q 577.07 945.98 574.55 945.19   C 559.37 940.43 544.12 935.75 529.71 929.78   Q 509.58 921.43 492.59 911.07   A 1.37 1.36 -56.0 0 0 490.80 911.42   C 483.04 921.72 473.99 933.57 461.50 938.28   Q 440.86 946.07 423.64 933.21   C 420.18 930.63 417.13 927.35 414.13 924.35   Q 384.15 894.40 356.10 865.62   Q 346.35 855.61 337.34 846.08   C 325.99 834.08 322.84 817.78 328.95 802.31   C 333.31 791.28 343.96 781.20 353.80 774.53   A 1.71 1.70 60.1 0 0 354.37 772.39   C 348.79 760.69 342.98 748.87 338.58 737.42   Q 331.69 719.47 326.52 700.18   A 0.94 0.93 -7.1 0 0 325.61 699.48   Q 306.14 699.51 287.19 699.45   C 282.62 699.43 278.04 699.43 273.77 697.46   C 258.56 690.46 248.78 675.85 248.78 658.95   Q 248.78 613.13 248.77 556.45   C 248.76 540.71 253.78 526.59 266.90 517.36   Q 276.62 510.52 288.38 510.31   Q 307.05 509.97 324.72 510.04   A 1.78 1.77 -84.3 0 0 326.47 508.60   Q 331.55 481.33 342.42 458.06   Q 348.87 444.26 356.37 431.98   A 1.47 1.47 0.0 0 0 355.70 429.87   Q 339.20 422.79 329.82 405.72   C 323.50 394.23 324.65 378.55 330.70 367.05   Q 333.82 361.10 339.55 355.11   Q 372.63 320.48 409.37 283.20   C 414.64 277.85 420.81 271.55 427.46 268.33   C 441.74 261.41 459.13 263.98 471.61 273.68   C 478.22 278.82 484.66 286.11 490.65 293.14   A 1.88 1.88 0.0 0 0 493.08 293.50   Q 502.71 287.34 509.10 284.04   Q 542.93 266.59 577.54 257.48   Q 580.40 256.72 580.36 253.97   Q 580.22 244.18 580.32 233.68   Q 580.43 222.53 582.48 216.13   Q 585.54 206.54 591.61 199.97   C 598.86 192.14 610.28 187.87 620.62 187.82   Q 656.81 187.63 722.41 187.76   Q 726.36 187.77 730.03 188.47   Q 753.86 193.04 762.84 214.79   C 764.79 219.51 765.33 225.71 765.34 231.02   Q 765.36 242.95 765.34 252.99   Q 765.34 254.61 765.77 256.13   Q 765.92 256.65 766.43 256.79   C 789.86 263.15 813.09 271.42 834.33 282.58   Q 845.54 288.47 855.19 293.15   A 1.55 1.55 0.0 0 0 857.20 292.54   Q 865.65 278.17 880.36 269.91   C 888.65 265.25 896.97 263.58 906.43 265.52   C 917.58 267.81 923.88 273.95 931.33 281.77   Q 962.75 314.78 1004.18 356.29   Q 1010.25 362.38 1014.74 371.01   C 1022.65 386.22 1018.50 404.09 1006.33 415.89   Q 998.44 423.55 987.32 429.97   A 1.83 1.83 0.0 0 0 986.65 432.46   Q 994.02 445.39 1000.31 459.96   C 1006.60 474.53 1012.23 487.64 1016.00 502.24   Q 1017.01 506.16 1017.41 510.12   Q 1017.46 510.56 1017.90 510.55   Q 1037.14 510.43 1057.16 510.53   C 1076.40 510.63 1091.00 525.92 1095.54 543.65   Q 1096.91 548.99 1096.95 562.84   Q 1097.13 615.65 1096.79 656.62   Q 1096.73 663.80 1094.15 670.49   Q 1085.79 692.21 1064.79 698.47   Q 1060.86 699.64 1055.29 699.62   Q 1037.31 699.54 1019.29 699.60   A 2.05 2.05 0.0 0 0 1017.41 700.87   C 1015.96 704.44 1014.47 708.07 1013.43 711.77   Q 1007.47 733.03 1000.00 753.78   Z"/>

<path fill="#ffa11b" d="   M 895.37 501.28   Q 897.24 505.98 899.51 511.18   C 903.36 520.00 906.54 529.82 908.83 538.61   Q 912.61 553.10 914.41 572.46   Q 916.59 595.99 914.67 623.90   Q 914.04 633.14 912.06 643.49   C 909.41 657.32 906.49 670.53 901.64 682.99   Q 898.17 691.90 894.58 700.51   Q 886.26 720.46 873.91 737.71   Q 866.19 748.50 856.69 759.55   Q 855.11 761.38 853.84 763.81   A 1.68 1.68 0.0 0 0 854.15 765.78   Q 875.78 787.16 896.61 809.84   Q 907.52 819.88 912.61 825.64   Q 924.90 839.56 937.68 852.72   A 0.93 0.92 40.7 0 0 939.09 852.62   C 946.81 842.01 955.26 834.05 967.71 830.37   Q 977.95 827.34 987.47 829.47   Q 1001.97 832.70 1011.54 843.96   C 1016.79 850.15 1023.76 859.38 1030.25 866.29   Q 1062.13 900.23 1093.12 933.57   Q 1120.15 962.63 1144.43 987.93   Q 1151.44 995.24 1158.15 1002.47   C 1171.61 1016.98 1185.61 1031.34 1199.29 1045.84   Q 1217.11 1064.74 1234.85 1083.13   C 1240.09 1088.56 1245.52 1095.04 1249.40 1101.53   Q 1257.11 1114.41 1259.98 1124.72   Q 1274.51 1177.04 1248.34 1222.81   C 1226.57 1260.89 1182.16 1283.01 1138.69 1278.29   C 1110.45 1275.22 1084.88 1261.86 1065.43 1241.31   C 1034.27 1208.40 1002.17 1176.34 970.66 1144.40   C 951.63 1125.12 933.38 1105.30 914.37 1086.48   Q 900.49 1072.75 887.05 1058.59   C 872.92 1043.70 858.32 1029.17 843.95 1014.57   Q 838.28 1008.81 833.92 1000.46   C 825.65 984.62 829.93 965.37 840.96 951.81   Q 846.71 944.74 853.15 938.89   C 857.98 934.50 862.42 930.06 866.92 925.35   Q 867.76 924.47 866.91 923.61   L 821.45 877.31   Q 816.93 872.80 812.12 868.29   Q 807.02 863.50 802.79 859.20   C 795.17 851.48 787.61 843.93 780.26 835.74   Q 775.01 829.90 769.69 824.25   A 1.05 1.05 0.0 0 0 768.52 824.00   Q 742.79 834.44 714.09 838.99   Q 684.74 843.64 657.53 842.16   C 647.23 841.59 636.77 840.27 626.26 838.75   Q 606.86 835.94 588.88 829.28   Q 582.12 826.77 575.37 824.07   C 566.91 820.70 559.47 817.02 551.87 812.32   Q 547.60 809.68 543.36 807.30   Q 525.15 794.81 508.69 780.42   Q 500.97 773.66 494.70 766.67   Q 477.87 747.90 465.88 729.98   Q 450.30 706.69 439.67 675.15   Q 436.62 666.11 434.37 655.72   Q 426.16 617.80 429.02 579.44   Q 429.34 575.11 429.99 570.76   C 431.03 563.72 431.83 556.50 433.30 549.72   Q 441.46 512.27 459.67 478.43   Q 463.22 471.82 475.27 454.87   Q 491.08 433.19 512.59 414.35   Q 527.01 401.72 540.80 393.22   C 563.03 379.52 586.58 368.90 611.95 362.10   Q 621.52 359.54 631.52 358.15   Q 672.63 352.43 712.61 358.80   C 741.32 363.36 767.63 373.68 793.11 387.70   C 834.01 410.20 867.59 446.37 888.97 487.41   C 891.11 491.51 893.14 496.59 895.37 501.28   Z   M 750.26 429.59   Q 705.79 409.95 660.61 412.04   C 640.82 412.95 620.26 417.67 602.28 424.54   C 571.03 436.47 544.51 458.15 524.05 484.17   Q 511.28 500.43 500.94 523.08   Q 492.54 541.47 488.56 565.35   Q 484.50 589.72 485.83 609.39   Q 486.87 624.71 489.07 636.48   Q 496.40 675.60 519.35 707.90   Q 537.85 733.95 561.11 750.51   Q 616.07 789.63 684.99 785.18   Q 712.00 783.44 742.97 772.56   C 751.53 769.56 759.94 764.86 768.11 760.44   Q 787.00 750.21 802.74 734.56   C 822.22 715.18 838.14 692.83 847.26 667.57   Q 848.99 662.78 850.58 658.20   C 857.78 637.41 860.42 615.25 859.62 592.86   Q 858.56 563.34 851.03 541.35   C 839.69 508.21 819.16 477.04 791.50 455.02   C 778.91 445.00 765.50 436.32 750.26 429.59   Z   M 999.67 917.31   C 993.49 911.03 987.66 903.78 981.05 897.57   Q 979.86 896.44 978.68 897.59   L 895.53 979.06   A 1.45 1.45 0.0 0 0 895.44 981.04   C 902.89 989.74 911.31 998.04 919.16 1006.51   C 931.02 1019.30 943.56 1031.36 955.56 1043.99   Q 966.13 1055.11 976.82 1066.02   C 980.25 1069.53 983.37 1073.41 986.91 1076.90   C 1001.47 1091.25 1014.97 1105.87 1029.05 1120.33   Q 1036.56 1128.04 1044.88 1136.81   Q 1076.11 1169.74 1110.04 1204.66   Q 1115.66 1210.44 1122.76 1214.75   Q 1128.45 1218.21 1136.61 1219.90   Q 1152.00 1223.09 1167.13 1219.07   Q 1177.75 1216.26 1184.94 1210.87   C 1200.88 1198.93 1209.65 1182.25 1209.40 1161.82   Q 1209.34 1156.86 1208.02 1150.71   Q 1206.51 1143.61 1204.67 1139.14   Q 1202.00 1132.63 1196.96 1126.16   C 1186.79 1113.09 1173.47 1099.89 1161.14 1087.49   C 1149.37 1075.65 1138.87 1064.32 1127.87 1052.40   C 1121.39 1045.38 1114.29 1038.44 1107.69 1031.39   C 1095.73 1018.61 1083.49 1006.24 1071.64 993.23   Q 1064.17 985.02 1057.93 978.68   Q 1048.80 969.40 1040.96 961.03   Q 1035.94 955.68 1030.97 950.26   Q 1021.82 940.28 1011.77 929.77   Q 1006.14 923.87 999.67 917.31   Z"/>

<path fill="#9dbf53" d="   M 529.68 1063.29   Q 532.61 1069.30 533.26 1070.99   Q 536.32 1078.95 533.80 1088.49   Q 530.36 1101.47 516.78 1106.99   Q 508.68 1110.28 500.16 1109.40   Q 492.30 1106.00 487.59 1103.16   C 472.80 1094.24 455.06 1082.40 438.65 1072.36   Q 423.56 1063.13 408.54 1053.79   C 398.42 1047.50 388.18 1040.24 377.56 1034.37   A 1.73 1.72 38.6 0 0 375.58 1034.59   C 371.92 1037.85 368.61 1041.56 365.00 1044.99   Q 315.67 1091.99 265.19 1139.67   C 260.11 1144.46 255.41 1149.48 250.32 1153.89   A 0.98 0.98 0.0 0 0 250.01 1154.78   C 252.62 1170.51 252.94 1185.04 248.86 1200.36   C 242.78 1223.16 227.19 1241.15 206.03 1251.84   Q 178.64 1265.68 148.70 1257.82   C 116.06 1249.25 91.91 1222.06 87.12 1189.43   Q 85.15 1176.03 87.77 1160.18   C 91.54 1137.44 104.85 1118.48 124.19 1105.90   Q 135.71 1098.41 150.35 1095.75   C 172.36 1091.76 195.48 1095.80 214.99 1107.39   A 0.94 0.94 0.0 0 0 216.14 1107.25   C 224.47 1098.86 232.47 1090.67 241.25 1082.55   C 264.11 1061.40 286.40 1039.76 308.94 1018.09   C 323.52 1004.07 337.27 989.13 352.32 975.64   Q 354.83 973.39 360.75 970.32   C 366.74 967.21 374.94 966.49 381.24 968.29   C 390.49 970.94 397.97 976.33 406.18 981.76   Q 422.01 992.26 440.32 1003.67   Q 458.93 1015.26 467.24 1020.47   Q 500.90 1041.55 521.00 1055.03   Q 525.89 1058.31 529.68 1063.29   Z   M 198.5200 1178.5977   A 29.19 28.85 3.0 0 0 170.8799 1148.2595   A 29.19 28.85 3.0 0 0 140.2200 1175.5423   A 29.19 28.85 3.0 0 0 167.8601 1205.8805   A 29.19 28.85 3.0 0 0 198.5200 1178.5977   Z"/>

<path fill="#f05011" d="   M 399.21 1285.71   Q 370.85 1272.58 344.23 1257.45   Q 322.12 1244.89 300.65 1232.60   Q 300.14 1232.30 299.73 1231.88   A 1.33 1.33 0.0 0 1 299.98 1229.84   Q 301.68 1228.78 303.11 1227.36   Q 336.28 1194.53 372.47 1159.70   A 2.00 1.99 -53.0 0 1 374.78 1159.37   C 381.27 1162.81 387.30 1166.77 393.82 1170.29   Q 400.61 1173.95 407.02 1177.42   C 417.94 1183.34 429.41 1188.48 440.69 1193.75   Q 449.84 1198.02 459.01 1201.65   Q 490.16 1213.99 511.49 1220.41   Q 583.26 1242.02 657.59 1246.20   Q 686.29 1247.82 714.30 1245.78   Q 744.11 1243.62 778.94 1237.93   Q 788.69 1236.33 798.53 1234.19   Q 864.36 1219.86 925.53 1191.63   A 1.58 1.57 55.8 0 1 927.33 1191.98   Q 937.42 1202.72 947.69 1212.68   C 965.37 1229.82 982.74 1247.38 1000.28 1264.11   A 0.96 0.95 -39.2 0 1 1000.12 1265.62   C 991.56 1270.92 981.88 1275.72 972.90 1279.93   Q 934.60 1297.87 896.05 1311.73   C 865.05 1322.87 833.24 1330.65 799.16 1337.62   Q 789.27 1339.65 779.65 1341.03   Q 698.22 1352.69 621.84 1345.54   Q 573.49 1341.02 515.55 1326.75   Q 503.81 1323.85 477.80 1316.07   Q 441.05 1305.08 399.21 1285.71   Z"/>

</svg>