<?xml version="1.0" encoding="UTF-8" standalone="no"?>
<!DOCTYPE svg PUBLIC "-//W3C//DTD SVG 1.1//EN" "http://www.w3.org/Graphics/SVG/1.1/DTD/svg11.dtd">
<svg xmlns="http://www.w3.org/2000/svg" version="1.1" viewBox="0.00 0.00 48.00 48.00">
<path fill="#6b75ff" d="
  M 48.00 22.44
  L 48.00 26.39
  Q 46.16 39.86 34.33 45.50
  Q 33.75 45.77 34.11 45.24
  Q 42.18 33.29 31.20 23.45
  C 28.01 20.59 23.79 17.88 21.48 14.20
  C 19.45 10.98 20.02 6.63 22.82 4.17
  C 27.02 0.48 33.30 2.10 37.64 5.15
  Q 46.52 11.40 48.00 22.44
  Z"
/>
<path fill="#332797" d="
  M 0.00 26.36
  L 0.00 22.09
  Q 1.50 9.06 12.21 2.53
  Q 12.81 2.16 12.57 2.82
  Q 8.54 13.91 17.44 22.04
  C 22.95 27.08 31.14 32.44 26.35 41.29
  C 23.86 45.90 18.20 46.86 13.55 45.23
  C 4.81 42.16 1.27 35.22 0.00 26.36
  Z"
/>
</svg>
