<?xml version="1.0" encoding="UTF-8" standalone="no"?>
<!DOCTYPE svg PUBLIC "-//W3C//DTD SVG 1.1//EN" "http://www.w3.org/Graphics/SVG/1.1/DTD/svg11.dtd">
<svg xmlns="http://www.w3.org/2000/svg" width="164" height="24" fill="none" viewBox="0 0 164 24" class="app-header__logo"><path fill="#092540" fill-rule="evenodd" d="M75.676 4.6c-.571 0-1.044-.183-1.419-.549-.358-.365-.538-.83-.538-1.39 0-.558.18-1.013.538-1.362.375-.366.848-.549 1.419-.549.57 0 1.036.183 1.395.549.375.349.564.804.564 1.363 0 .558-.19 1.02-.564 1.39-.359.365-.825.548-1.395.548zM73.94 20.105V6.393h3.469v13.713H73.94zM43.14 4.052c.376.366.848.548 1.419.548.57 0 1.036-.182 1.395-.548.375-.37.564-.831.564-1.39 0-.558-.189-1.014-.564-1.363-.358-.366-.825-.548-1.395-.548-.57 0-1.044.182-1.419.548-.358.35-.537.805-.537 1.363 0 .559.179 1.024.538 1.39zm-.316 2.34v13.714h3.47V6.392h-3.47zm6.342 0v13.717h3.468V13.03c0-1.253.28-2.23.842-2.932.577-.702 1.327-1.05 2.25-1.05.938 0 1.633.312 2.086.94.453.625.678 1.53.678 2.71v7.41h3.469V13.03c0-1.253.28-2.23.84-2.932.578-.702 1.337-1.05 2.276-1.05.923 0 1.601.312 2.035.94.453.625.678 1.53.678 2.71v7.403h3.469V12.36c0-2.064-.47-3.63-1.409-4.7-.939-1.068-2.285-1.603-4.04-1.603a5.68 5.68 0 0 0-2.708.665 5.296 5.296 0 0 0-1.953 1.799c-.867-1.64-2.341-2.46-4.418-2.46-.939 0-1.77.202-2.494.608a4.706 4.706 0 0 0-1.708 1.576l-.297-1.852h-3.064zM80.286.867v19.242h3.468V.867h-3.468zm12.072 19.57c-1.265 0-2.396-.312-3.387-.94-.995-.628-1.78-1.483-2.357-2.57-.577-1.087-.868-2.324-.868-3.703 0-1.38.29-2.61.868-3.677.577-1.087 1.366-1.935 2.357-2.544.994-.628 2.122-.94 3.387-.94 1.01 0 1.898.192 2.657.581.76.386 1.373.931 1.842 1.633V6.395h3.469V20.11h-3.09l-.379-1.965c-.433.608-1.01 1.144-1.734 1.602-.708.463-1.627.692-2.765.692zm.73-3.094c1.122 0 2.035-.38 2.739-1.134.724-.774 1.086-1.762 1.086-2.959s-.362-2.174-1.086-2.932c-.704-.775-1.617-1.16-2.739-1.16-1.101 0-2.014.379-2.738 1.133-.724.755-1.086 1.732-1.086 2.933 0 1.197.362 2.184 1.086 2.959.724.77 1.637 1.16 2.739 1.16zM103.11 6.392v13.714h3.469v-6.25c0-1.051.16-1.872.486-2.46.345-.59.815-1.005 1.411-1.244.597-.24 1.275-.36 2.035-.36h.975l-.975-3.4c-.708 0-1.454.126-2.005.469a5.595 5.595 0 0 0-1.979 2.1l-.326-2.57h-3.091zm13.318 13.717-3.932-13.714h3.443l2.331 9.87 2.71-9.87h3.85l2.709 9.87 2.36-9.87h3.443l-3.958 13.714h-3.605l-2.873-10.26-2.875 10.26h-3.603zm20.467-.555c1.05.588 2.25.884 3.606.884 1.082 0 2.051-.203 2.902-.608a6.126 6.126 0 0 0 2.168-1.66 6.54 6.54 0 0 0 1.274-2.376h-3.524c-.238.518-.6.94-1.086 1.273-.472.312-1.059.469-1.763.469-.939 0-1.745-.303-2.413-.911-.649-.609-1.011-1.447-1.082-2.517h10.217c.016-.24.026-.469.026-.692.02-.219.03-.432.03-.635 0-1.253-.291-2.386-.868-3.4a6.142 6.142 0 0 0-2.36-2.434c-1.011-.588-2.175-.884-3.495-.884-1.412 0-2.637.312-3.687.94-1.03.609-1.842 1.463-2.439 2.57-.577 1.104-.867 2.367-.867 3.787 0 1.4.297 2.633.893 3.704a6.347 6.347 0 0 0 2.468 2.49zm1.382-9.87c.649-.5 1.399-.749 2.25-.749.887 0 1.627.27 2.223.801.597.535.92 1.254.975 2.158h-6.696c.182-.994.596-1.732 1.248-2.211zm18.616 10.754c-1.014 0-1.898-.193-2.657-.582a4.782 4.782 0 0 1-1.842-1.632l-.382 1.882h-3.09V.866h3.468v7.49c.434-.608 1.005-1.143 1.709-1.602.724-.462 1.653-.691 2.791-.691 1.264 0 2.393.312 3.387.94a6.693 6.693 0 0 1 2.357 2.57c.577 1.088.867 2.325.867 3.704 0 1.38-.29 2.617-.867 3.704a6.698 6.698 0 0 1-2.357 2.543c-.988.612-2.119.914-3.384.914zm-.731-3.095c1.102 0 2.015-.379 2.739-1.134.724-.754 1.086-1.732 1.086-2.932 0-1.197-.362-2.184-1.086-2.959-.724-.774-1.633-1.16-2.739-1.16-1.121 0-2.04.386-2.764 1.16-.704.755-1.056 1.732-1.056 2.933 0 1.196.352 2.184 1.056 2.958.72.755 1.643 1.134 2.764 1.134zM38.414 12.53c.796.26 1.428.655 1.898 1.19.469.519.704 1.263.707 2.24a3.907 3.907 0 0 1-.652 2.295c-.453.681-1.102 1.216-1.953 1.602-.85.39-1.852.582-3.01.582-1.192 0-2.242-.196-3.145-.582-.903-.405-1.627-.957-2.168-1.659a4.748 4.748 0 0 1-.887-1.918l3.14-.492c.114.256.55.91 1.017 1.25.034.032.068.06.104.092l.016.014c.49.37 1.112.552 1.872.552s1.31-.156 1.653-.468c.361-.313.54-.672.54-1.078 0-.592-.253-.987-.759-1.19-.508-.22-1.213-.432-2.116-.635a22.319 22.319 0 0 1-1.76-.469 9.089 9.089 0 0 1-1.653-.691 3.86 3.86 0 0 1-1.193-1.107c-.307-.459-.46-1.02-.46-1.686 0-1.217.47-2.237 1.408-3.068.959-.828 2.296-1.244 4.014-1.244 1.59 0 2.856.38 3.795 1.134A4.421 4.421 0 0 1 40.35 9.48l-2.899.732-.003-.014s-.381-.748-1-1.077c-.366-.216-.849-.326-1.448-.326-.652 0-1.158.127-1.52.386-.342.26-.515.582-.515.968 0 .405.264.728.786.967.522.24 1.22.462 2.087.665.938.223 1.8.472 2.575.748z" clip-rule="evenodd"></path><path fill="#F4732A" d="M21.167 6.877c-1.2-1.871-2.937-3.434-4.93-4.228l-.59-.2a6.953 6.953 0 0 0-2.01-.31c-2.159.01-3.906 1.796-3.906 4 0 .918.303 1.762.811 2.434l-.244-.32c.117.174.244.346.391.52.62.75 1.5 1.529 2.64 2.413 2.805 2.17 4.624 4.096 4.774 6.483.036.322.058.651.058.984 0 1.213-.264 2.497-.714 3.4h.004s-.193.353-.072.456c.062.053.196.093.43-.05a11.323 11.323 0 0 0 3.182-3.115 11.33 11.33 0 0 0 1.953-6.207 11.317 11.317 0 0 0-1.777-6.26z"></path><path fill="#092540" d="m12.658 15.032-1.757-1.45c-3.68-2.685-5.594-5.581-4.545-9.152.095-.325.212-.641.346-.95v-.004s.26-.545-.306-.276A11.288 11.288 0 0 0 .51 12.532a11.329 11.329 0 0 0 1.92 6.942 8.788 8.788 0 0 0 2.015 2.028h-.003c3.88 2.856 7.208 1.353 7.208 1.353h.003a4.534 4.534 0 0 0 2.771-4.202 4.542 4.542 0 0 0-1.767-3.62z"></path></svg>