<?xml version="1.0" encoding="UTF-8" standalone="no"?>
<!DOCTYPE svg PUBLIC "-//W3C//DTD SVG 1.1//EN" "http://www.w3.org/Graphics/SVG/1.1/DTD/svg11.dtd">
<svg xmlns="http://www.w3.org/2000/svg" version="1.1" viewBox="0.00 0.00 180.00 180.00">
<g stroke-width="2.00" fill="none" stroke-linecap="butt">
<path stroke="#fab995" vector-effect="non-scaling-stroke" d="
  M 151.97 122.84
  C 160.79 104.94 161.83 83.56 153.95 65.06
  C 145.70 45.68 129.09 28.99 107.88 25.47
  Q 99.64 24.10 93.28 26.70
  C 80.57 31.90 74.67 46.07 79.68 58.92
  C 82.36 65.80 89.06 72.01 94.85 76.51
  Q 106.06 85.22 113.86 92.46
  C 121.55 99.60 128.18 108.88 129.40 119.71
  Q 131.20 135.73 124.75 149.28
  A 1.06 1.05 6.3 0 0 125.94 150.76
  Q 127.42 150.41 128.70 149.52
  Q 144.20 138.61 151.97 122.84"
/>
<path stroke="#8492a0" vector-effect="non-scaling-stroke" d="
  M 54.26 149.75
  C 68.49 156.87 88.76 158.23 99.97 145.07
  Q 108.94 134.54 106.11 120.51
  C 105.13 115.68 102.10 109.86 98.40 106.60
  Q 91.01 100.06 79.47 91.14
  Q 72.24 85.55 65.88 77.82
  C 54.95 64.52 52.22 49.27 59.37 32.91
  Q 59.67 32.24 59.49 31.54
  A 0.72 0.72 0.0 0 0 58.50 31.07
  Q 55.20 32.55 52.04 34.70
  C 24.09 53.72 13.56 88.54 26.50 119.91
  Q 34.79 140.01 54.26 149.75"
/>
</g>
<path fill="#ffffff" d="
  M 0.00 0.00
  L 180.00 0.00
  L 180.00 180.00
  L 0.00 180.00
  L 0.00 0.00
  Z
  M 151.97 122.84
  C 160.79 104.94 161.83 83.56 153.95 65.06
  C 145.70 45.68 129.09 28.99 107.88 25.47
  Q 99.64 24.10 93.28 26.70
  C 80.57 31.90 74.67 46.07 79.68 58.92
  C 82.36 65.80 89.06 72.01 94.85 76.51
  Q 106.06 85.22 113.86 92.46
  C 121.55 99.60 128.18 108.88 129.40 119.71
  Q 131.20 135.73 124.75 149.28
  A 1.06 1.05 6.3 0 0 125.94 150.76
  Q 127.42 150.41 128.70 149.52
  Q 144.20 138.61 151.97 122.84
  Z
  M 54.26 149.75
  C 68.49 156.87 88.76 158.23 99.97 145.07
  Q 108.94 134.54 106.11 120.51
  C 105.13 115.68 102.10 109.86 98.40 106.60
  Q 91.01 100.06 79.47 91.14
  Q 72.24 85.55 65.88 77.82
  C 54.95 64.52 52.22 49.27 59.37 32.91
  Q 59.67 32.24 59.49 31.54
  A 0.72 0.72 0.0 0 0 58.50 31.07
  Q 55.20 32.55 52.04 34.70
  C 24.09 53.72 13.56 88.54 26.50 119.91
  Q 34.79 140.01 54.26 149.75
  Z"
/>
<path fill="#f4732a" d="
  M 151.97 122.84
  Q 144.20 138.61 128.70 149.52
  Q 127.42 150.41 125.94 150.76
  A 1.06 1.05 6.3 0 1 124.75 149.28
  Q 131.20 135.73 129.40 119.71
  C 128.18 108.88 121.55 99.60 113.86 92.46
  Q 106.06 85.22 94.85 76.51
  C 89.06 72.01 82.36 65.80 79.68 58.92
  C 74.67 46.07 80.57 31.90 93.28 26.70
  Q 99.64 24.10 107.88 25.47
  C 129.09 28.99 145.70 45.68 153.95 65.06
  C 161.83 83.56 160.79 104.94 151.97 122.84
  Z"
/>
<path fill="#092540" d="
  M 54.26 149.75
  Q 34.79 140.01 26.50 119.91
  C 13.56 88.54 24.09 53.72 52.04 34.70
  Q 55.20 32.55 58.50 31.07
  A 0.72 0.72 0.0 0 1 59.49 31.54
  Q 59.67 32.24 59.37 32.91
  C 52.22 49.27 54.95 64.52 65.88 77.82
  Q 72.24 85.55 79.47 91.14
  Q 91.01 100.06 98.40 106.60
  C 102.10 109.86 105.13 115.68 106.11 120.51
  Q 108.94 134.54 99.97 145.07
  C 88.76 158.23 68.49 156.87 54.26 149.75
  Z"
/>
</svg>
