<?xml version="1.0" encoding="UTF-8" standalone="no"?>
<!DOCTYPE svg PUBLIC "-//W3C//DTD SVG 1.1//EN" "http://www.w3.org/Graphics/SVG/1.1/DTD/svg11.dtd">
<svg xmlns="http://www.w3.org/2000/svg" version="1.1" viewBox="0.00 0.00 512.00 512.00">
<g stroke-width="2.00" fill="none" stroke-linecap="butt">
<path stroke="#8e80b9" vector-effect="non-scaling-stroke" d="
  M 78.89 255.97
  L 56.70 274.70
  A 2.01 2.00 -20.4 0 0 56.00 276.22
  L 56.00 286.26
  A 2.00 2.00 0.0 0 0 56.71 287.79
  L 255.31 455.43
  A 1.07 1.07 0.0 0 0 256.69 455.43
  L 454.98 288.05
  A 2.94 2.93 -20.2 0 0 456.02 285.81
  L 456.00 276.31
  A 2.17 2.15 20.3 0 0 455.23 274.66
  L 433.09 255.98"
/>
<path stroke="#a383d6" vector-effect="non-scaling-stroke" d="
  M 433.09 255.98
  L 455.40 237.23
  A 1.70 1.69 -20.1 0 0 456.01 235.93
  L 456.01 225.58
  A 1.67 1.63 -70.5 0 0 455.42 224.31
  L 256.42 56.34
  Q 256.00 55.98 255.58 56.34
  L 56.55 224.34
  A 1.54 1.53 70.1 0 0 56.00 225.52
  L 56.00 235.65
  Q 56.00 236.74 56.83 237.43
  L 78.89 255.97"
/>
<path stroke="#310490" vector-effect="non-scaling-stroke" d="
  M 433.09 255.98
  L 257.17 404.71
  A 1.65 1.65 0.0 0 1 255.03 404.71
  L 78.89 255.97"
/>
<path stroke="#a383d6" vector-effect="non-scaling-stroke" d="
  M 245.70 253.65
  A 0.34 0.33 36.1 0 1 245.34 253.70
  L 200.40 233.08
  A 0.85 0.85 0.0 0 0 199.50 233.21
  L 179.59 250.35
  Q 179.07 250.80 179.71 251.08
  L 266.46 288.02
  A 0.44 0.42 34.8 0 0 266.92 287.95
  L 283.77 273.48
  A 0.59 0.58 53.1 0 0 283.87 272.72
  Q 270.60 252.58 258.22 234.03
  Q 258.05 233.78 258.11 233.47
  A 0.29 0.29 0.0 0 1 258.52 233.26
  L 303.69 255.29
  A 1.28 1.26 37.3 0 0 305.08 255.11
  L 321.61 240.88
  Q 321.91 240.63 321.71 240.29
  L 278.83 165.60
  A 0.46 0.46 0.0 0 0 278.13 165.48
  L 258.26 182.63
  A 0.71 0.70 -36.6 0 0 258.12 183.54
  L 281.59 221.63
  Q 282.55 223.18 280.91 222.38
  L 237.53 201.20
  A 0.90 0.89 37.7 0 0 236.54 201.32
  L 220.93 214.74
  A 0.55 0.54 -37.1 0 0 220.83 215.44
  Q 234.14 235.57 245.77 253.23
  Q 245.92 253.45 245.70 253.65"
/>
</g>
<path fill="#ffffff" d="
  M 0.00 0.00
  L 512.00 0.00
  L 512.00 512.00
  L 0.00 512.00
  L 0.00 0.00
  Z
  M 78.89 255.97
  L 56.70 274.70
  A 2.01 2.00 -20.4 0 0 56.00 276.22
  L 56.00 286.26
  A 2.00 2.00 0.0 0 0 56.71 287.79
  L 255.31 455.43
  A 1.07 1.07 0.0 0 0 256.69 455.43
  L 454.98 288.05
  A 2.94 2.93 -20.2 0 0 456.02 285.81
  L 456.00 276.31
  A 2.17 2.15 20.3 0 0 455.23 274.66
  L 433.09 255.98
  L 455.40 237.23
  A 1.70 1.69 -20.1 0 0 456.01 235.93
  L 456.01 225.58
  A 1.67 1.63 -70.5 0 0 455.42 224.31
  L 256.42 56.34
  Q 256.00 55.98 255.58 56.34
  L 56.55 224.34
  A 1.54 1.53 70.1 0 0 56.00 225.52
  L 56.00 235.65
  Q 56.00 236.74 56.83 237.43
  L 78.89 255.97
  Z"
/>
<path fill="#4607ad" d="
  M 433.09 255.98
  L 257.17 404.71
  A 1.65 1.65 0.0 0 1 255.03 404.71
  L 78.89 255.97
  L 56.83 237.43
  Q 56.00 236.74 56.00 235.65
  L 56.00 225.52
  A 1.54 1.53 70.1 0 1 56.55 224.34
  L 255.58 56.34
  Q 256.00 55.98 256.42 56.34
  L 455.42 224.31
  A 1.67 1.63 -70.5 0 1 456.01 225.58
  L 456.01 235.93
  A 1.70 1.69 -20.1 0 1 455.40 237.23
  L 433.09 255.98
  Z
  M 245.70 253.65
  A 0.34 0.33 36.1 0 1 245.34 253.70
  L 200.40 233.08
  A 0.85 0.85 0.0 0 0 199.50 233.21
  L 179.59 250.35
  Q 179.07 250.80 179.71 251.08
  L 266.46 288.02
  A 0.44 0.42 34.8 0 0 266.92 287.95
  L 283.77 273.48
  A 0.59 0.58 53.1 0 0 283.87 272.72
  Q 270.60 252.58 258.22 234.03
  Q 258.05 233.78 258.11 233.47
  A 0.29 0.29 0.0 0 1 258.52 233.26
  L 303.69 255.29
  A 1.28 1.26 37.3 0 0 305.08 255.11
  L 321.61 240.88
  Q 321.91 240.63 321.71 240.29
  L 278.83 165.60
  A 0.46 0.46 0.0 0 0 278.13 165.48
  L 258.26 182.63
  A 0.71 0.70 -36.6 0 0 258.12 183.54
  L 281.59 221.63
  Q 282.55 223.18 280.91 222.38
  L 237.53 201.20
  A 0.90 0.89 37.7 0 0 236.54 201.32
  L 220.93 214.74
  A 0.55 0.54 -37.1 0 0 220.83 215.44
  Q 234.14 235.57 245.77 253.23
  Q 245.92 253.45 245.70 253.65
  Z"
/>
<path fill="#ffffff" d="
  M 245.70 253.65
  Q 245.92 253.45 245.77 253.23
  Q 234.14 235.57 220.83 215.44
  A 0.55 0.54 -37.1 0 1 220.93 214.74
  L 236.54 201.32
  A 0.90 0.89 37.7 0 1 237.53 201.20
  L 280.91 222.38
  Q 282.55 223.18 281.59 221.63
  L 258.12 183.54
  A 0.71 0.70 -36.6 0 1 258.26 182.63
  L 278.13 165.48
  A 0.46 0.46 0.0 0 1 278.83 165.60
  L 321.71 240.29
  Q 321.91 240.63 321.61 240.88
  L 305.08 255.11
  A 1.28 1.26 37.3 0 1 303.69 255.29
  L 258.52 233.26
  A 0.29 0.29 0.0 0 0 258.11 233.47
  Q 258.05 233.78 258.22 234.03
  Q 270.60 252.58 283.87 272.72
  A 0.59 0.58 53.1 0 1 283.77 273.48
  L 266.92 287.95
  A 0.44 0.42 34.8 0 1 266.46 288.02
  L 179.71 251.08
  Q 179.07 250.80 179.59 250.35
  L 199.50 233.21
  A 0.85 0.85 0.0 0 1 200.40 233.08
  L 245.34 253.70
  A 0.34 0.33 36.1 0 0 245.70 253.65
  Z"
/>
<path fill="#1c0172" d="
  M 78.89 255.97
  L 255.03 404.71
  A 1.65 1.65 0.0 0 0 257.17 404.71
  L 433.09 255.98
  L 455.23 274.66
  A 2.17 2.15 20.3 0 1 456.00 276.31
  L 456.02 285.81
  A 2.94 2.93 -20.2 0 1 454.98 288.05
  L 256.69 455.43
  A 1.07 1.07 0.0 0 1 255.31 455.43
  L 56.71 287.79
  A 2.00 2.00 0.0 0 1 56.00 286.26
  L 56.00 276.22
  A 2.01 2.00 -20.4 0 1 56.70 274.70
  L 78.89 255.97
  Z"
/>
</svg>
