<svg width="48" height="48" viewBox="0 0 48 48" fill="none" xmlns="http://www.w3.org/2000/svg">
<g clip-path="url(#clip0_2317_3824)">
<path d="M10.9924 38.3308C10.9924 34.5635 19.1692 33.5574 23.9998 33.5574C28.8305 33.5574 37.0073 34.5635 37.0073 38.3308C37.0073 38.3932 36.9995 38.453 36.9943 38.5128L40.2936 15.9454L30.1071 23.9272L23.9998 10.7819L17.8926 23.9272L7.70605 15.9454L11.0054 38.5128C11.0002 38.453 10.9924 38.3932 10.9924 38.3308Z" fill="#FDBD30"/>
<path d="M24.0001 43.1043C19.1695 43.1043 10.9927 42.0982 10.9927 38.3308C10.9927 34.5635 19.1695 33.5574 24.0001 33.5574C28.8308 33.5574 37.0076 34.5635 37.0076 38.3308C37.0076 42.0982 28.8308 43.1043 24.0001 43.1043ZM13.993 38.0839C13.8162 38.2035 13.8162 38.4582 13.993 38.5752C14.9628 39.2226 17.9631 40.4498 24.0001 40.4498C30.0372 40.4498 33.0427 39.2252 34.0073 38.5752C34.1841 38.4556 34.1841 38.2009 34.0073 38.0839C33.0375 37.4365 30.0372 36.2093 24.0001 36.2093C17.9631 36.2093 14.9576 37.4339 13.993 38.0839Z" fill="#FF8800"/>
<path d="M14.9081 6.36984L15.8623 8.89698C15.8805 8.94638 15.9273 8.98018 15.9793 8.98278L18.678 9.10757L18.9588 9.97335L16.8503 11.6607C16.8087 11.6945 16.7905 11.7465 16.8061 11.7985L17.521 14.4036C17.1571 14.6662 17.1467 14.674 16.7853 14.9392L14.5285 13.4547C14.4843 13.4261 14.4271 13.4261 14.3829 13.4547L12.1262 14.9392C11.7622 14.6766 11.7518 14.6688 11.3904 14.4036L12.1054 11.7985C12.1184 11.7465 12.1028 11.6945 12.0612 11.6607L9.95264 9.97335L10.2334 9.10757L12.9322 8.98278C12.9842 8.98278 13.031 8.94638 13.0492 8.89698L14.0033 6.36984H14.9133H14.9081Z" fill="#FF8800"/>
<path d="M34.0048 6.36984L34.959 8.89698C34.9772 8.94638 35.024 8.98018 35.076 8.98278L37.7747 9.10757L38.0555 9.97335L35.9469 11.6607C35.9053 11.6945 35.8871 11.7465 35.9027 11.7985L36.6177 14.4036C36.2537 14.6662 36.2433 14.674 35.8819 14.9392L33.6252 13.4547C33.581 13.4261 33.5238 13.4261 33.4796 13.4547L31.2229 14.9392C30.8589 14.6766 30.8485 14.6688 30.4871 14.4036L31.2021 11.7985C31.2151 11.7465 31.1995 11.6945 31.1579 11.6607L29.0493 9.97335L29.3301 9.10757L32.0288 8.98278C32.0808 8.98278 32.1276 8.94638 32.1458 8.89698L33.1 6.36984H34.01H34.0048Z" fill="#FF8800"/>
</g>
<defs>
<clipPath id="clip0_2317_3824">
<rect width="48" height="48" fill="white"/>
</clipPath>
</defs>
</svg>
