<?xml version="1.0" encoding="utf-8"?>
<!-- Generator: Adobe Illustrator 25.2.1, SVG Export Plug-In . SVG Version: 6.00 Build 0)  -->
<svg version="1.1" id="Layer_1" xmlns="http://www.w3.org/2000/svg" xmlns:xlink="http://www.w3.org/1999/xlink" x="0px" y="0px"
	 viewBox="0 0 513.7 512" style="enable-background:new 0 0 513.7 512;" xml:space="preserve">
<style type="text/css">
	.st0{fill:#002855;}
	.st1{fill:#FFFFFF;}
	.st2{fill:#97DFFC;}
</style>
<g id="Group_21" transform="translate(-11.597 -632.941)">
	<g id="Group_20" transform="translate(11.597 632.941)">
		<g id="Group_15">
			<path id="Path_45" class="st0" d="M39.6,85.7L0,400.1h325.9l-3.3,26.2h52.5l3.3-26.2h95.7l39.6-314.5L39.6,85.7z"/>
			<path id="Path_46" class="st1" d="M311.3,216.1h133.8l-16.5,131.3H385l-3.3,26.6h-52.5l9.9-79.1h43.6l3.3-26.3h-81.3L311.3,216.1
				z"/>
			<path id="Path_47" class="st2" d="M477.3,167.4l-42.1-53.8l-3,24.2H242.9l-19.9,157.6h-26.1l19.7-157h-52.1l-19.7,157h-26.2
				l19.7-157H86.1L59.8,347.4l245.8-0.6l6.6-52.1h-36.9l13.2-104.9h137.4l-2.4,19.5L477.3,167.4z"/>
		</g>
	</g>
</g>
</svg>
