<?xml version="1.0" encoding="UTF-8"?>
<!DOCTYPE svg PUBLIC "-//W3C//DTD SVG 1.1//EN" "http://www.w3.org/Graphics/SVG/1.1/DTD/svg11.dtd">
<svg xmlns="http://www.w3.org/2000/svg" version="1.1" width="256px" height="256px" style="shape-rendering:geometricPrecision; text-rendering:geometricPrecision; image-rendering:optimizeQuality; fill-rule:evenodd; clip-rule:evenodd" xmlns:xlink="http://www.w3.org/1999/xlink">
<g><path style="opacity:1" fill="#fefefe" d="M -0.5,-0.5 C 84.8333,-0.5 170.167,-0.5 255.5,-0.5C 255.5,84.8333 255.5,170.167 255.5,255.5C 170.167,255.5 84.8333,255.5 -0.5,255.5C -0.5,170.167 -0.5,84.8333 -0.5,-0.5 Z"/></g>
<g><path style="opacity:1" fill="#2486e6" d="M 97.5,47.5 C 122.597,46.5879 145.597,53.0879 166.5,67C 190.645,83.3118 210.979,103.479 227.5,127.5C 207.158,156.654 181.491,179.821 150.5,197C 111.65,215.625 77.1503,209.792 47,179.5C 22.6246,147.448 21.2913,114.448 43,80.5C 57.2609,62.9569 75.4276,51.9569 97.5,47.5 Z"/></g>
<g><path style="opacity:1" fill="#fbfcfe" d="M 140.5,97.5 C 149.365,97.5285 153.532,101.862 153,110.5C 152.333,111.833 151.667,113.167 151,114.5C 135.5,130 120,145.5 104.5,161C 103.833,161.667 103.167,161.667 102.5,161C 92.9695,151.804 83.8029,142.304 75,132.5C 72.594,124.653 75.4273,119.653 83.5,117.5C 85.1966,117.899 86.8632,118.399 88.5,119C 93.3981,124.592 98.7314,129.258 104.5,133C 116.395,120.937 128.395,109.104 140.5,97.5 Z"/></g>
</svg>
