<svg width="240" height="49" viewBox="0 0 240 49" fill="none" xmlns="http://www.w3.org/2000/svg">
<mask id="mask0_153_78" style="mask-type:luminance" maskUnits="userSpaceOnUse" x="0" y="0" width="240" height="49">
<path d="M239.44 0H0V48.052H239.44V0Z" fill="white"/>
</mask>
<g mask="url(#mask0_153_78)">
<path d="M24.07 -0.119873C10.78 -0.119873 0 10.6201 0 23.8201C0 37.0601 10.78 47.7701 24.07 47.7701C37.31 47.7701 48.09 37.0601 48.09 23.8201C48.09 10.6201 37.31 -0.119873 24.07 -0.119873ZM26.57 38.0501H21.61V29.8901L12.26 9.55012H17.43L24.72 25.4601C26.12 28.5001 26.57 29.5601 26.57 33.2101V38.0501ZM29.81 23.3301H24.76L30.83 9.55012H35.88L29.81 23.3301Z" fill="white"/>
<path d="M67.6298 38.0501L71.1898 16.4001L74.4298 38.0501H81.2798L85.1698 9.55005H80.9498L77.9998 31.5301L74.4298 9.55005H68.2798L64.6298 31.6501L61.7598 9.55005H57.0898L60.9798 38.0501H67.6298ZM103.01 36.6501V32.6801C101.49 33.7001 98.9498 34.6001 96.5698 34.6001C92.9998 34.6001 91.6498 32.9201 91.4498 29.4801H103.21V26.9001C103.21 19.7201 100.06 17.0201 95.1798 17.0201C89.2298 17.0201 86.3998 21.5701 86.3998 27.8001C86.3998 34.9701 89.9298 38.4601 96.1598 38.4601C99.2798 38.4601 101.57 37.6401 103.01 36.6501ZM95.0998 20.8701C97.5098 20.8701 98.2498 22.8801 98.2498 25.4601V25.8701H91.4498C91.5698 22.5901 92.7598 20.8701 95.0998 20.8701ZM111 38.0501L111.25 35.4201C112.52 37.3901 114.37 38.4601 116.62 38.4601C121.29 38.4601 124.53 34.6501 124.53 27.7601C124.53 20.8301 121.29 17.0201 116.62 17.0201C114.45 17.0201 112.64 18.0001 111.37 19.8901V9.55005H106.49V38.0501H111ZM115.39 20.8701C118.14 20.8701 119.49 22.9601 119.49 27.7601C119.49 32.5101 118.14 34.6001 115.39 34.6001C112.73 34.6001 111.37 32.5101 111.37 27.7201C111.37 22.9601 112.73 20.8701 115.39 20.8701ZM132.69 23.2501C133.59 22.1401 134.82 21.2001 136.59 21.2001C138.31 21.2001 138.88 21.9401 138.88 23.4901V38.0501H143.76V23.2501C144.66 22.1401 145.89 21.2001 147.66 21.2001C149.38 21.2001 149.95 21.9401 149.95 23.4901V38.0501H154.83V23.0001C154.83 18.9001 153.4 17.1001 149.42 17.1001C146.26 17.1001 144.38 18.3301 143.23 19.7201C142.45 17.9201 140.81 17.1001 138.15 17.1001C135.23 17.1001 133.92 18.1601 132.94 19.1501H132.69L132.57 17.4301H127.81V38.0501H132.69V23.2501ZM174.14 23.9801C174.14 18.9801 171.6 17.1001 166.44 17.1001C163.2 17.1001 160.65 18.1201 159.18 18.9801V23.0401C160.49 22.0601 163.36 20.9901 165.86 20.9901C168.2 20.9901 169.26 21.8101 169.26 24.0301V25.1701H168.49C161.02 25.1701 157.7 27.6301 157.7 31.8201C157.7 36.0001 160.24 38.3401 164.02 38.3401C166.89 38.3401 168.12 37.3901 169.06 36.4101H169.26C169.31 36.9401 169.47 37.6401 169.63 38.0501H174.39C174.23 36.3701 174.14 34.6901 174.14 33.0101V23.9801ZM169.26 33.1301C168.65 34.0301 167.5 34.7701 165.78 34.7701C163.73 34.7701 162.7 33.6201 162.7 31.8601C162.7 29.5201 164.39 28.6601 168.57 28.6601H169.26V33.1301ZM184.43 38.4601C189.27 38.4601 192.43 36.4501 192.43 31.5701C192.43 27.9601 189.93 26.0801 185.79 25.5001C183.74 25.2201 182.02 24.9701 182.02 23.0001C182.02 21.4401 183.25 20.7501 185.54 20.7501C188.7 20.7501 190.71 21.8901 191.04 22.1401V18.1601C191.04 18.1601 189.11 17.0201 185.05 17.0201C180.05 17.0201 177.26 19.6401 177.26 23.2101C177.26 26.8601 179.35 28.7401 183.37 29.2701C186.2 29.6401 187.71 30.4201 187.71 32.2301C187.71 33.8301 186.44 34.6001 183.66 34.6001C180.09 34.6001 177.79 32.7601 177.38 32.5501V36.5301C177.38 36.5301 179.68 38.4601 184.43 38.4601ZM193.45 17.4301V21.2801H196.04V31.8601C196.04 35.7101 198.21 38.4601 202.72 38.4601C205.1 38.4601 206.45 37.9301 206.45 37.9301V33.9501C206.45 33.9501 205.55 34.6001 203.91 34.6001C201.86 34.6001 200.92 33.4101 200.92 31.9001V21.2801H206.04V17.4301H200.92V12.9101H196.04V17.4301H193.45ZM224.29 36.6501V32.6801C222.77 33.7001 220.23 34.6001 217.85 34.6001C214.28 34.6001 212.93 32.9201 212.72 29.4801H224.49V26.9001C224.49 19.7201 221.33 17.0201 216.46 17.0201C210.51 17.0201 207.68 21.5701 207.68 27.8001C207.68 34.9701 211.21 38.4601 217.44 38.4601C220.56 38.4601 222.85 37.6401 224.29 36.6501ZM216.37 20.8701C218.79 20.8701 219.53 22.8801 219.53 25.4601V25.8701H212.72C212.85 22.5901 214.04 20.8701 216.37 20.8701ZM232.65 25.1701C234 22.6701 236.01 21.4001 239.01 21.5701V16.9701C236.22 17.1401 233.92 18.8201 232.77 21.5301H232.65L232.53 17.4301H227.77V38.0501H232.65V25.1701Z" fill="white"/>
</g>
</svg>
